<svg xmlns="http://www.w3.org/2000/svg" viewBox="0 0 85.46 60.27"><defs><style>.cls-1{fill:#3f0;}.cls-2{fill:none;stroke:#3f0;stroke-miterlimit:10;stroke-width:2px;}.cls-3{fill:#006884;}.cls-4{fill:#fff;}</style></defs><g id="Layer_2" data-name="Layer 2"><g id="Layer_16" data-name="Layer 16"><circle class="cls-1" cx="42.37" cy="50.09" r="3.59"/><circle class="cls-2" cx="42.37" cy="50.09" r="9.18"/><path class="cls-3" d="M72.76,0H12.7A12.4,12.4,0,0,0,0,12.7v.6A12.4,12.4,0,0,0,12.7,26H38L42.5,50.86,47.35,26H72.76a12.77,12.77,0,0,0,12.7-12.7v-.6A12.4,12.4,0,0,0,72.76,0Z"/><path class="cls-4" d="M14.63,16.24H11.27l-.54,1.57H8.22l3.45-9h2.57l3.44,9H15.17ZM14,14.45l-1.06-3-1,3Z"/><path class="cls-4" d="M24.89,11.79a2.51,2.51,0,0,0-2-1,2.59,2.59,0,0,0-1,.19,2.5,2.5,0,0,0-.78.53,2.63,2.63,0,0,0-.51.78,2.68,2.68,0,0,0-.18,1,2.64,2.64,0,0,0,.18,1,2.41,2.41,0,0,0,.52.79,2.26,2.26,0,0,0,.77.53,2.38,2.38,0,0,0,1,.19,2.68,2.68,0,0,0,2-1v2.79l-.24.08a6.45,6.45,0,0,1-1,.28,4.86,4.86,0,0,1-.92.09,4.57,4.57,0,0,1-1.79-.35,4.87,4.87,0,0,1-1.52-1,5.2,5.2,0,0,1-1.05-1.53A4.72,4.72,0,0,1,18,13.26a4.63,4.63,0,0,1,.39-1.91,4.85,4.85,0,0,1,1-1.5,4.79,4.79,0,0,1,4.39-1.22,5.8,5.8,0,0,1,1.1.35Z"/><path class="cls-4" d="M32.14,16.24H28.78l-.54,1.57H25.73l3.45-9h2.56l3.45,9H32.68Zm-.62-1.79-1.06-3-1.06,3Z"/><path class="cls-4" d="M38.57,17.81H36.22v-9H40a3.21,3.21,0,0,1,2.34.8,3,3,0,0,1,.81,2.23A3,3,0,0,1,42.3,14a3.2,3.2,0,0,1-2.34.79H38.57Zm0-4.89h.78c.87,0,1.3-.38,1.3-1.13s-.43-1.13-1.3-1.13h-.78Z"/><path class="cls-4" d="M46.71,8.76v4.92q0,.4,0,.81a2.17,2.17,0,0,0,.18.75,1.25,1.25,0,0,0,.47.55,1.68,1.68,0,0,0,.91.21,1.63,1.63,0,0,0,.91-.21,1.25,1.25,0,0,0,.47-.55,2,2,0,0,0,.19-.75q0-.4,0-.81V8.76h2.34V14a4.2,4.2,0,0,1-1,3.08,4,4,0,0,1-3,1,4,4,0,0,1-3-1,4.2,4.2,0,0,1-1-3.08V8.76Z"/><path class="cls-4" d="M56.49,8.76v7.06h2.82v2H54.14v-9Z"/><path class="cls-4" d="M66.84,11.79a2.51,2.51,0,0,0-2-1,2.63,2.63,0,0,0-1,.19,2.35,2.35,0,0,0-.77.53,2.29,2.29,0,0,0-.51.78,2.5,2.5,0,0,0-.19,1,2.46,2.46,0,0,0,.19,1,2.24,2.24,0,0,0,.51.79,2.21,2.21,0,0,0,.78.53,2.32,2.32,0,0,0,1,.19,2.68,2.68,0,0,0,2-1v2.79l-.24.08a6.66,6.66,0,0,1-1,.28,5,5,0,0,1-.93.09,4.57,4.57,0,0,1-1.79-.35,4.74,4.74,0,0,1-2.56-2.52,4.57,4.57,0,0,1-.4-1.93,4.63,4.63,0,0,1,.39-1.91,4.85,4.85,0,0,1,1-1.5,4.78,4.78,0,0,1,1.52-1,4.68,4.68,0,0,1,1.81-.36,4.81,4.81,0,0,1,1.07.12A6,6,0,0,1,66.84,9Z"/><path class="cls-4" d="M68.06,13.29a4.64,4.64,0,0,1,3-4.41,5.27,5.27,0,0,1,2-.37,5.34,5.34,0,0,1,2,.37,4.85,4.85,0,0,1,1.59,1,4.55,4.55,0,0,1,1,1.52,4.84,4.84,0,0,1,0,3.76,4.51,4.51,0,0,1-1,1.51,4.87,4.87,0,0,1-1.59,1,5.54,5.54,0,0,1-2,.36,5.46,5.46,0,0,1-2-.36,4.73,4.73,0,0,1-1.58-1,4.66,4.66,0,0,1-1-1.51A4.71,4.71,0,0,1,68.06,13.29Zm2.46,0a2.31,2.31,0,0,0,.2,1,2.65,2.65,0,0,0,.55.8,2.62,2.62,0,0,0,.81.52,2.76,2.76,0,0,0,2,0,2.62,2.62,0,0,0,.81-.52,2.36,2.36,0,0,0,.56-.8,2.31,2.31,0,0,0,.21-1,2.39,2.39,0,0,0-.21-1,2.32,2.32,0,0,0-.56-.79A2.45,2.45,0,0,0,74,11a2.62,2.62,0,0,0-2,0,2.45,2.45,0,0,0-.81.52,2.61,2.61,0,0,0-.55.79A2.38,2.38,0,0,0,70.52,13.29Z"/></g></g></svg>