<?xml version="1.0" encoding="UTF-8"?><svg id="Layer_2" xmlns="http://www.w3.org/2000/svg" viewBox="0 0 91.47 59.09"><defs><style>.cls-1{fill:#006884;}.cls-2{fill:#fff;}.cls-3{fill:none;stroke:#fff;stroke-miterlimit:10;stroke-width:2px;}</style></defs><g id="Layer_1-2"><circle class="cls-2" cx="45.73" cy="48.91" r="3.59"/><circle class="cls-3" cx="45.73" cy="48.91" r="9.18"/><g><path class="cls-1" d="M78.76,0H12.7C5.86-.16,.17,5.25,0,12.1c0,.2,0,.4,0,.61v.6c-.17,6.85,5.25,12.53,12.09,12.7,.2,0,.4,0,.61,0h28.3l4.5,24.86,4.85-24.86h28.41c7-.04,12.66-5.7,12.7-12.7v-.6C91.63,5.86,86.22,.17,79.37,0c-.2,0-.4,0-.61,0Z"/><g><path class="cls-2" d="M13.55,17.53c-.97,.35-1.5,.46-2.1,.46-1.62,0-2.84-.64-3.61-1.4-.91-.91-1.41-2.19-1.41-3.4,0-1.33,.57-2.59,1.41-3.45,.83-.84,2.07-1.46,3.53-1.46,.45,0,1.18,.07,2.18,.48v2.9c-.78-.97-1.71-1.02-2.11-1.02-.7,0-1.23,.21-1.68,.62-.57,.53-.81,1.26-.81,1.92s.27,1.36,.76,1.82c.41,.38,1.05,.64,1.74,.64,.36,0,1.26-.04,2.11-.98v2.87Z"/><path class="cls-2" d="M20.79,16.22h-3.39l-.63,1.57h-2.56l3.59-9.34h2.65l3.52,9.34h-2.59l-.57-1.57Zm-.64-1.85l-1.05-3.03-1.02,3.03h2.07Z"/><path class="cls-2" d="M27.45,14.69v3.1h-2.42V8.44h3.87c.81,0,1.65,.15,2.37,.84,.73,.7,.87,1.49,.87,2.27,0,.74-.1,1.61-.83,2.33-.73,.71-1.6,.81-2.33,.81h-1.53Zm0-1.96h.81c.25,0,.73-.03,1.02-.29,.29-.25,.31-.63,.31-.85,0-.25-.03-.59-.28-.84-.28-.29-.73-.34-1.04-.34h-.83v2.33Z"/><path class="cls-2" d="M38.72,10.5h-2.89v1.55h2.73v2.06h-2.73v1.61h2.89v2.06h-5.31V8.44h5.31v2.06Z"/><path class="cls-2" d="M47.05,10.5v7.28h-2.42v-7.28h-1.99v-2.06h6.4v2.06h-1.99Z"/><path class="cls-2" d="M58.53,16.61c-.95,.91-2.3,1.39-3.68,1.39s-2.73-.48-3.68-1.39c-1-.95-1.47-2.25-1.47-3.49s.48-2.56,1.47-3.5c.95-.91,2.3-1.39,3.68-1.39s2.73,.48,3.68,1.39c1,.94,1.47,2.26,1.47,3.5s-.48,2.54-1.47,3.49Zm-5.57-5.28c-.5,.49-.74,1.18-.74,1.83,0,.83,.39,1.4,.74,1.74,.45,.43,1.08,.74,1.89,.74s1.44-.29,1.88-.73c.43-.43,.76-1.08,.76-1.79s-.32-1.37-.76-1.79c-.52-.49-1.23-.74-1.88-.74s-1.39,.24-1.89,.74Z"/><path class="cls-2" d="M63.09,8.44l1.62,6.04,1.97-6.04h1.93l1.83,6.04,1.76-6.04h2.54l-2.98,9.34h-2.48l-1.69-5.41-1.79,5.41h-2.47l-2.79-9.34h2.54Z"/><path class="cls-2" d="M75.73,17.79V8.44h2.42l4.47,5.72v-5.72h2.42v9.34h-2.42l-4.47-5.72v5.72h-2.42Z"/></g></g></g></svg>