<svg xmlns="http://www.w3.org/2000/svg" viewBox="0 0 184.67 86.07"><defs><style>.cls-1{fill:#f5f7f7;}</style></defs><g id="Layer_2" data-name="Layer 2"><g id="Layer_15" data-name="Layer 15"><path class="cls-1" d="M0,53.9C0,40.74,12.76,30.08,28.51,30.08a33.4,33.4,0,0,1,8.16,1C39.4,13.54,57.34,0,79.07,0c13.44,0,25.43,5.18,33.27,13.28a50.34,50.34,0,0,1,15.92-2.56c20.8,0,38.13,12.41,42,28.85,8.47,2.89,14.44,9.83,14.44,17.94,0,6-3.29,11.42-8.46,15-11,7.87-44,13.59-83.08,13.59-43.6,0-79.71-7.13-86-16.43A21.66,21.66,0,0,1,0,53.9Z"/></g></g></svg>