<svg xmlns="http://www.w3.org/2000/svg" viewBox="0 0 121.46 60.55"><defs><style>.cls-1{fill:#32ff00;}.cls-2{fill:none;stroke:#32ff00;stroke-miterlimit:10;stroke-width:2px;}.cls-3{fill:#006884;}.cls-4{fill:#fff;}</style></defs><g id="Layer_2" data-name="Layer 2"><g id="Layer_8" data-name="Layer 8"><circle class="cls-1" cx="60.91" cy="50.38" r="3.59"/><circle class="cls-2" cx="60.91" cy="50.38" r="9.18"/></g><g id="Layer_16" data-name="Layer 16"><path class="cls-3" d="M108.76,0H12.7A12.4,12.4,0,0,0,0,12.7v.6A12.4,12.4,0,0,0,12.7,26H56.32l4.47,24.86L65.63,26h43.13a12.77,12.77,0,0,0,12.7-12.7v-.6A12.4,12.4,0,0,0,108.76,0Z"/><path class="cls-4" d="M19.56,12.32a2.71,2.71,0,0,0-2.18-1.07,2.6,2.6,0,0,0-1.06.2,2.5,2.5,0,0,0-.84.57,2.62,2.62,0,0,0-.56.85,2.87,2.87,0,0,0-.2,1.07,2.83,2.83,0,0,0,.2,1.07,2.69,2.69,0,0,0,.57.86,2.44,2.44,0,0,0,.83.58,2.75,2.75,0,0,0,1,.2,2.92,2.92,0,0,0,2.2-1v3l-.26.09a8,8,0,0,1-1.09.31,5.72,5.72,0,0,1-1,.09,5,5,0,0,1-2-.38,5.15,5.15,0,0,1-1.63-1.08A5.07,5.07,0,0,1,12.49,16a5,5,0,0,1-.43-2.09,5,5,0,0,1,.42-2.07,5.23,5.23,0,0,1,1.13-1.63,5.32,5.32,0,0,1,3.61-1.45,5.55,5.55,0,0,1,1.15.13,7.07,7.07,0,0,1,1.19.38Z"/><path class="cls-4" d="M22.17,14a5.15,5.15,0,0,1,1.52-3.68,5.24,5.24,0,0,1,1.71-1.1,6.2,6.2,0,0,1,4.38,0,5.18,5.18,0,0,1,1.72,1.1,5,5,0,0,1,1.12,1.64A5.13,5.13,0,0,1,33,14a5,5,0,0,1-.41,2,4.93,4.93,0,0,1-1.12,1.65,5.18,5.18,0,0,1-1.72,1.1,6.34,6.34,0,0,1-4.38,0,5.24,5.24,0,0,1-1.71-1.1A5.2,5.2,0,0,1,22.17,14Zm2.67,0A2.58,2.58,0,0,0,25.06,15a2.89,2.89,0,0,0,.6.86,2.65,2.65,0,0,0,.87.56,2.74,2.74,0,0,0,1.06.2,2.67,2.67,0,0,0,1.06-.2,2.74,2.74,0,0,0,.89-.56,2.89,2.89,0,0,0,.6-.86,2.76,2.76,0,0,0,0-2.16,2.77,2.77,0,0,0-.6-.86,2.74,2.74,0,0,0-.89-.56,2.67,2.67,0,0,0-1.06-.2,2.74,2.74,0,0,0-1.06.2,2.65,2.65,0,0,0-.87.56,2.77,2.77,0,0,0-.6.86A2.58,2.58,0,0,0,24.84,14Z"/><path class="cls-4" d="M38.49,9.05v7.64h3v2.16h-5.6V9.05Z"/><path class="cls-4" d="M43.52,14A5,5,0,0,1,45,10.27a5.24,5.24,0,0,1,1.71-1.1,6.17,6.17,0,0,1,4.37,0,5.22,5.22,0,0,1,1.73,1.1A5,5,0,0,1,54.37,14a5.09,5.09,0,0,1-1.52,3.68,5.22,5.22,0,0,1-1.73,1.1,6.32,6.32,0,0,1-4.37,0A5.24,5.24,0,0,1,45,17.63,5.09,5.09,0,0,1,43.52,14Zm2.66,0A2.74,2.74,0,0,0,46.4,15a2.89,2.89,0,0,0,.6.86,2.81,2.81,0,0,0,1.94.76,2.74,2.74,0,0,0,1.06-.2,2.7,2.7,0,0,0,.88-.56,2.71,2.71,0,0,0,.61-3,2.64,2.64,0,0,0-.61-.86,2.7,2.7,0,0,0-.88-.56,2.74,2.74,0,0,0-1.06-.2A2.81,2.81,0,0,0,47,12a2.77,2.77,0,0,0-.6.86A2.74,2.74,0,0,0,46.18,14Z"/><path class="cls-4" d="M57.29,18.85V9.05h2.54l4.71,6v-6h2.53v9.8H64.54l-4.71-6v6Z"/><path class="cls-4" d="M83.21,12.32A2.72,2.72,0,0,0,81,11.25a2.67,2.67,0,0,0-1.06.2,2.71,2.71,0,0,0-.84.57,2.77,2.77,0,0,0-.55.85,2.87,2.87,0,0,0-.2,1.07,2.83,2.83,0,0,0,.2,1.07,2.67,2.67,0,0,0,.56.86,2.58,2.58,0,0,0,.84.58,2.75,2.75,0,0,0,1,.2,2.94,2.94,0,0,0,2.2-1v3l-.26.09a8.4,8.4,0,0,1-1.09.31,5.83,5.83,0,0,1-1,.09,5,5,0,0,1-1.94-.38,5.2,5.2,0,0,1-1.64-1.08A5.4,5.4,0,0,1,76.13,16a5.13,5.13,0,0,1-.42-2.09,5,5,0,0,1,.42-2.07,5.23,5.23,0,0,1,1.13-1.63A5.14,5.14,0,0,1,78.9,9.16a5.09,5.09,0,0,1,2-.39A5.55,5.55,0,0,1,82,8.9a7.37,7.37,0,0,1,1.19.38Z"/><path class="cls-4" d="M88.67,9.05v9.8H86.12V9.05Z"/><path class="cls-4" d="M95.74,11.21v7.64H93.19V11.21H91.1V9.05h6.73v2.16Z"/><path class="cls-4" d="M103.27,14.14,99.69,9.05h3l1.82,2.68,1.81-2.68h3l-3.59,5.09v4.71h-2.54Z"/></g></g></svg>