<svg xmlns="http://www.w3.org/2000/svg" viewBox="0 0 85.46 60.27"><defs><style>.cls-1{fill:#3f0;}.cls-2{fill:none;stroke:#3f0;stroke-miterlimit:10;stroke-width:2px;}.cls-3{fill:#006884;}.cls-4{fill:#fff;}</style></defs><g id="Layer_2" data-name="Layer 2"><g id="Layer_16" data-name="Layer 16"><circle class="cls-1" cx="42.37" cy="50.09" r="3.59"/><circle class="cls-2" cx="42.37" cy="50.09" r="9.18"/><path class="cls-3" d="M72.76,0H12.7A12.4,12.4,0,0,0,0,12.7v.6A12.4,12.4,0,0,0,12.7,26H38L42.5,50.86,47.35,26H72.76a12.77,12.77,0,0,0,12.7-12.7v-.6A12.4,12.4,0,0,0,72.76,0Z"/><path class="cls-4" d="M16.76,18.44V6.58h2.76a5.1,5.1,0,0,1,3.7,1.28A6.17,6.17,0,0,1,25,12.52a6.55,6.55,0,0,1-1.46,4.55,4.83,4.83,0,0,1-3.74,1.37ZM20,15.57c1.15-.05,1.72-1,1.72-3a4.79,4.79,0,0,0-.44-2.24,1.3,1.3,0,0,0-1.18-.83H20Z"/><path class="cls-4" d="M35.82,18.44H32.51l-.24-1.51H30.11l-.26,1.51H26.54L29.39,6.58h3.92Zm-3.93-4.05L31.69,13a.73.73,0,0,1,0-.21c0-.11-.07-.56-.17-1.34,0-.08,0-.2,0-.35s0-.34-.07-.57l-.1-1.13c0,.11,0,.23,0,.37s0,.27-.05.43c0,.32-.07.54-.08.66s0,.2,0,.23l-.23,1.43-.32,1.86Z"/><path class="cls-4" d="M46.7,18.44H43.25L41.12,13l.09,5.47H38V6.58h3.21l-.09,5.08L43,6.58h3.38L43.83,12.3Z"/><path class="cls-4" d="M57.42,18.44H54.11l-.24-1.51H51.72l-.26,1.51H48.15L51,6.58h3.91ZM53.5,14.39,53.29,13s0-.08,0-.21-.06-.56-.16-1.34c0-.08,0-.2,0-.35s0-.34-.06-.57l-.1-1.13c0,.11,0,.23,0,.37s0,.27-.06.43c0,.32-.06.54-.08.66a1.25,1.25,0,0,1,0,.23l-.22,1.43-.32,1.86Z"/><path class="cls-4" d="M68,18.44H64.58L63,14.21c0-.07,0-.16-.08-.28l-.15-.42,0,.78v4.15H59.61V6.58h3.28a5.22,5.22,0,0,1,3.24.85,3.75,3.75,0,0,1,1.37,3.11,3,3,0,0,1-1.84,3Zm-5.23-6.37H63a1.18,1.18,0,0,0,.92-.42,1.56,1.56,0,0,0,.37-1.08c0-.88-.47-1.32-1.39-1.32h-.12Z"/></g></g></svg>