<svg xmlns="http://www.w3.org/2000/svg" viewBox="0 0 85.46 60.55"><defs><style>.cls-1{fill:#32ff00;}.cls-2{fill:none;stroke:#32ff00;stroke-miterlimit:10;stroke-width:2px;}.cls-3{fill:#006884;}.cls-4{fill:#fff;}</style></defs><g id="Layer_2" data-name="Layer 2"><g id="Layer_8" data-name="Layer 8"><circle class="cls-1" cx="42.63" cy="50.38" r="3.59"/><circle class="cls-2" cx="42.63" cy="50.38" r="9.18"/></g><g id="Layer_16" data-name="Layer 16"><path class="cls-3" d="M72.76,0H12.7A12.4,12.4,0,0,0,0,12.7v.6A12.4,12.4,0,0,0,12.7,26H38L42.5,50.86,47.35,26H72.76a12.77,12.77,0,0,0,12.7-12.7v-.6A12.4,12.4,0,0,0,72.76,0Z"/><path class="cls-4" d="M15.46,12.29h3.4V8.8h2.35v9.05H18.86V14.12h-3.4v3.73H13.11v-9h2.35Z"/><path class="cls-4" d="M29.85,16.28H26.49L26,17.85H23.44l3.45-9h2.57l3.44,9.05H30.39Zm-.62-1.79-1.06-3-1.05,3Z"/><path class="cls-4" d="M37.48,8.8v7.06H40.3v2H35.13v-9Z"/><path class="cls-4" d="M45.07,8.8v9.05H42.72v-9Z"/><path class="cls-4" d="M53.35,10.79H50.52v1.52H53.1v2H50.52v3.55H48.16v-9h5.19Z"/><path class="cls-4" d="M61.12,16.28H57.76l-.54,1.57h-2.5l3.44-9h2.57l3.44,9.05H61.66Zm-.62-1.79-1.06-3-1,3Z"/><path class="cls-4" d="M69,13,66.18,8.8h2.9l1.22,2.34L71.82,8.8h2.9l-3,4.23,3.37,4.82H72.24l-1.82-3-2.12,3H65.46Z"/></g></g></svg>