<svg xmlns="http://www.w3.org/2000/svg" viewBox="0 0 2588.77 1153.16"><defs><style>.cls-1{fill:#609907;}</style></defs><g id="Layer_2" data-name="Layer 2"><g id="Layer_8" data-name="Layer 8"><path class="cls-1" d="M2576.22,1005.23l12.55-6.09-6.77,10.45-10.13,6.53-5.35-.46-2.89,7.85-16.45,9.56-9.68,3-6.76-1.71-8.24,7.38-13.54,6.52c-.2.43-4.08,8.47-4.37,8.47-.33-2.27-14.27,1.94-13.55,1.55-4.76,4.27-18.19,13-23.69,16.52-.62.28-12.35,5.74-14.27,5.74-.73-.95-6.25-3-6.54-3.13l-6.27-3,46.44-25.7,19.83-9.15,14.53-11.3,5.31,3c0,.19,7.25-6.91,7.76-3.47a5.24,5.24,0,0,0,2.89,4.8l8.21-6.54c.17-.26,3.39-5.23,1.46-5.23s-7-4.53-7.24-4.77l12.54-4.34,6.31-13.08,1.9-23.5L2569,980l-2.42,15.25a28.83,28.83,0,0,1,3.86-.43c1.47,0,1,5.77,1,6.08Z"/><path class="cls-1" d="M587.2,37.16c-2.63.83-10-.85-10.38-.87l7.95-3,.48-3.05c.51-.2,10.17-3.92,12.12-5.23s6.11,2,6.28,2.18c-1.12,1.78-6,5.28-7.73,6.54C595.58,33.81,589.16,36.29,587.2,37.16Z"/><path class="cls-1" d="M626.41,51.09c-3.86-1.32-1.48-1.32,2.34-8.29,1.68-3,3.35-3.89,5.27-3.89,2.51,0,5.4,1.49,9.23,1.72,6.81.45,1,7,3.41,8.29,3.09,1.16,6.23-.43,9.6.5,5.59.26,1.09-11.44,5.49-12,12.06,1.16,11.68-1.2,21.18,7.16.78-.26,15.5-5.22,20.32-5.22s13.06-5.65,11.63-6.09c-4.46-2-6.27.67-10.62,1.53-4,0-8.75-4.43-11.15-5.87,0-.8-.66-11.73,3.11-13.07.18-.23,0,4.56,2.72,4.46,4.35,0,15.37-8,15.11-8.36,1,.08,9.74.47,11.05.86,8.06-.14,28.78-3.15,37.41-2.57,8.75,0,26.62-4.39,29.85-4.81,3.46-.46,25.41-.85,33.4-.45,5.8.32,26,.4,36.31.3,7.2,0,11.33-.16,13.81-.34,3.38,0,2,2.66-.77,2.66-2.25,0-12.38,1.9-16,2.61-.71.21-14.15,4.12-19.65,4.12-5.78-1.78-22,5.57-27.5,5.91-4.73,0-23.53,5.26-24.94,7.37s-31.78,13.33-33.37,13.92l-4.86-3.91c0,.07-.49,1.31-1,2.62a5,5,0,0,1-2.4,2.17c-.41-.07-8.24-1.31-11.64-1.76-6.55-.16-14.72,1.32-21.53.36-6.68,0-15.6,6.22-13.78,7,2.62,1,5.44-.16,8.24-1.31,1.43-.65,5.18-.87,9.07-.87,8.77-.44,18.17,2.24,25.26,3.06,2.45,0-3.4,4.77-5.81,5.21-2.83.44-10.82.36-13-.44-3.56-.65-6.9,2.24-14.05,2.17s-9.76.89-15.47.47-2.9-1.34-6.29-1.78-10.18-1.71-12.59-2.17,2.64-3.31,2.91-3.46c-.2-.19-4.31-4.32-6.78-3.49s-1,2.6-2.41,4.35-3.38,1.74-4.82,4.77a2.45,2.45,0,0,1-2.37,1.56c-3-.21-7.78-3.19-11.29-2.73C642.36,53.57,630.29,52.87,626.41,51.09Z"/><path class="cls-1" d="M512,45.92a4.21,4.21,0,0,0-2.2.36L505,43.68c.8-.39,7.6-2,10.1-.67,3.14,0,10.76-3.91,11.16-4.12,1.19-.23,23.72-4.78,26.6-5.21s1.65,4.06,1.49,4.35-6.72,5.12-4.37,4.34c2.55-.85,8.93,1.24,9.21,1.31a10.31,10.31,0,0,1,5.79,3c2.43,2.61,8.22.89,7.26,2.2,1.23.18,11.52-5.08,15.49-7.85a6.83,6.83,0,0,1,3.84-1.47,3,3,0,0,1,2.44,1L592.52,45l6.29,1.73-2.89,4.37c-.28.12-5.6,2.32-7.95,2.32-1.28-.77-9.81-.81-11.15-.58l-9.46,1.29c-1.3.23-18.16,6.05-18.88,5.34-1,0-1.94-.11-1.94-.55-.41-1.28-11.66-8.69-16.36-5.69-2.95,0-4.36-5.34-4.44-5.62C525.28,47.52,516.42,45.92,512,45.92Z"/><path class="cls-1" d="M451.25,78c1.46-2.18-4.07-5.46-4.36-5.63,1.07-.35,21.28-7,24.22-7.83S475,62,475,59.36c1.33-7.35,28.94-3.66,37.25-4.81,5.51-1.35,7.7,11.7,12.47,11.89,1.08.06,1.87-1.09,3.09-1,2.63-.07,7.22,2.52,9.7,2.6a34,34,0,0,1,4.28-.41c1.65,0,3.09.3,3.34,1.26.52,1.73,3.93,2.17,3.93,4.35,0,.76.35,1.09.85,1.09.91,0,2.33-1.14,3-2.82,1-2.62,5.36-4.37,6.31-7l1.91.44c.29-.13,5.83-2.61,8.25-3.06,2.8-.8.74-.26,1.45,6.53.48,8.26-2.91,9.13-4.35,10-2,1.83,11.65,11.39,2.4,12.64-1.44.43-7.89,5-8.23,5.2-.33,0-6.75,0-11.56-2.6-3.12-1.81-5.54-.82-8.55-.52-1-.2-6.76-1.12-7.94-1.22-.73.53-14.58,2.81-16.85,3.08-1.28.1-1.44-.81-2.76-.75-3.27,0-11.66,2.9-16.22,5.5a9.29,9.29,0,0,1-4.51,1.43c-4.36,0-3.06-3.8-3.7-5.79a89.45,89.45,0,0,0-11.12-3.9c-3.86-.88,1.19-2.94,1.46-3-.08-.19-1.46-3.92,4.82-8.27s0-4.8,1.45-5.23,5.8-4.78,4.35-5.66c-2.7-.52-11,4.53-13.05,7-1.94,2.6-10.61,1.29-11.63,3.06C463.31,81.21,449.67,80.09,451.25,78Z"/><path class="cls-1" d="M1055.77,136.42c1.48-2-9.55-7.55-10.13-7.85v-5.86c-.11.17-4.77,2.56-6.54,1.29-2.16-1.29-8.36-3.78-8.69-3.91l13-6.53,10.87,5.89,37-3.92,8,5.87-4.34,7.17c-11.42,3.19-24.35,7.76-37.83,8.39C1056.06,137,1055.49,136.81,1055.77,136.42Z"/><path class="cls-1" d="M1060.1,86.81l-11.54-.65c-2.61.72-52.25,14.34-54.4,15.65l-21,12.39c-9,1.64-27.42,5.39-36.28,7.2l-7.29,3.91-4.36,7.17L910,145.54l-14.49,17.6-14.54.67-10.87-5.87c-.83,0-8.77-1.33-9.44-1.3l-5.82-14.37-2.16-17.63.74-20.89,8.69-9.55,1.38-1.52,10.14-2,1.5-4.54-13,2.33-1.52.27.71-7.19c2.9-.82,15.61-2.94,17.45-2.62l-10.16-4.56c-14.61,2.44-.07-5.64,0-9.79.73-3.27,1.45-9.16-.76-11.12-1.91-1.8-14.79-7-15.22-7.17-11-1-33.07-3.62-43.56-7.16-.71-.65-5.53-5-5.78-5.21l2.89-4.56,47.2-5.25.71-4.57c-.33-.1-6.51-1.95-4.36-3.27,6-1.85,40.59-5.83,40.65-5.85,17-1.75,52.86-4.11,69.68-3.27l9.42-4.56L1053.59,0l42.08,8.48,1.48,4.56,39.9-3.9-33.39,13.69c-.94.1-18.86,2-17.44,5.86s7,11.37,7.28,11.76l-10.17,3.27-1.46,9.76s.76-.08,1.66-.08c1.41,0,3.14.24,2.69,1.43-.73,2-15.87,8.16-16.67,8.48-.55.4-10.9,7.83-8.71,9.13S1060.12,86.76,1060.1,86.81Z"/><path class="cls-1" d="M1105.13,230l1.21-4.13s4.56-2.56,3.94-2.42l3.34-1.28.45-3.06-2.89-.64-2.91-2.17c3.18-2.95,2.68-1.37,1-5.24l1.23-2,3.6-.42,2.47,1.31h2.85a7,7,0,0,0,2.46-2.17c.44-1.29-1.8-1-2.29-.38a40.73,40.73,0,0,0,5.18-5.73l3.87-1.07c3.22.36,9.84,1.66,13,2.4l1.49,6.06-4.6,2.4v9.36l-2,3.27-1,3.23-8.47.47-1.44,1.31-5.1,2.6-6,1.3-5.79-1.08Z"/><path class="cls-1" d="M1140.56,194.91a5.14,5.14,0,0,0,2.83-1.28l-2.92-1.32c-.11-.19-2.18-3.7-1-3.93a3.23,3.23,0,0,0,1.92-1.28,14,14,0,0,0-.48-3c-.25-.21,3.14-3.7,4.11-3.93s4.16-3.3,4.33-3.46,2-2.63,3.06-2.63c1.5.23,3.32-.42,4.72.23.77.56,3.92.11,4.11,0l3.14-4.16,3.39-1.27c.08.1,1.68,1.95.72,2.17s-5.35,7.82-6,7.82-3.15.21-3.4.89,2.06,2.3,2.18,2.39c.27,0,5.41-.28,8-.28a5.5,5.5,0,0,1,1.24.07c.69.21,1.68,2.81,1.19,3.68a53.91,53.91,0,0,1-4.58,4.77c-.17.11-3.39,2.2-1.95,3.93a7.67,7.67,0,0,0,4.13,2.85c1.21.21,4.11,4.35,3.87,5s10.56,13.86,11.13,14.56L1184,221c1.45-.18,8.1-.57,9.65.46.25.64,1.92,2.85,1.23,3.92s-1.23,3.49-2.66,4.13-4.6,1.52-3.87,2.17,3.87,1.52,3.35,2.39-2.31,3.55-2.41,3.69c-.43.12-8.7,2.42-10,2.42-.87-.23-5.72-1.12-6.45-1.55-1.69-.37-6.47.66-6.77.66s-7.52.21-8.22.21-3.75,3.3-3.91,3.47l-5.27.66-4.87-.23-1.94,2.19-3.15-1.31,5.6-3.91,2.64-2.61c.13-.18,2.51-3.55,3.64-3.55a3.79,3.79,0,0,0,1.79.36,16.82,16.82,0,0,0,2.83-.29l-1-1.51-5.34-.66-5.33-.43-.24-3.27c.2-.09,4-1.76,5.17-1.76,1.25.23,4.17-.59,4-1.49s-.49-3-.51-3.06h-3.6c-.62.16-1.65.32-.25-1.11,1.6-1.63,3.39-3.26,4.4-3.26a31.83,31.83,0,0,0,5.75-.44c.45.09,2.22.29,1.93-.85-.25-1.31-1.36-5.44-1.42-5.66l-2.21-3c0-.1,1-2,.26-2.18a48.52,48.52,0,0,0-6.53.66c-3.08,1.18-3.78-.4-4.36-2.83l2.17-3L1145,201c-.19,0-3.85-.42-3.63-1.1s-.48-1.53-2.18-2.17S1139.54,194.91,1140.56,194.91Z"/><path class="cls-1" d="M552.11,499.53c.39,1-5.8,4.25-5.8,4.27l-19.24,1.58c-.21,0-9.82.67-9.8-.62s-2.06-11.23-2.17-11.75L510,488.78,497,484.86c-.33-.1-6.53-1.95-8-1.95s-2-2.71-3.26-2.71c-1.69.67-7.44,1.3-8.34,4-.75,2.36-7.72,8.35-9.06,7.83-.5-1.76-1.65-5.39-1.47-6.5.58-.45,11.51-8.85,12.3-8.85.06.68,24.53,1.93,25.82,2,1.18.26,23.55,5.2,24.31,7.16S540.51,497,543.42,497,551.77,498.56,552.11,499.53Z"/><path class="cls-1" d="M551.4,521.4c-1.84-.65-6.19,0-6.2-2s3.11-2.88,3.28-2.93l.37-1h12l1.08-9.44c-.15-.15-2.88-2.95,0-2.95,2.53,0,10.5,2.45,13.75,2.45,2.46-.42,8.83-3.35,11.28-.2,1.46,2.62,7.66,3.3,9.81,6.89s1.47,5.55.37,5.55-12.82-.32-13.44-.34l-9.06,1.64c-.09.13-1.81,2.6-1.81,3.58.07.68-6.11,2.38-7.62,1.32a16,16,0,0,0-1.44-3.92C561,520.51,554.91,522,551.4,521.4Z"/><path class="cls-1" d="M2185.77,552.34c-.19-.11-3.9-2.18-6.29-3.89s-2.45-10-2.9-11.76,3.64-3,3.85-3l2.4-19.15,6.3-2.17c.26.11,5.35,2.18,5.35,4.36-.31,2.61,4.78,12.75,2.89,15.22-.14.19-2.89,3.9-2.89,5.22s-1,6.52-.47,9.14,1.44,4.78,3.36,4.78c1.62,0,2.89,1.5,5.19,1.5,4-1.19,6.09.83,9.32,2,4.74,1,7.49,3.24,3.39,9.58-1.41,2.17-1.39,2.83-.74,2.83,1,0,3.21-1.51,4.48-1.58,1.6,0,1.78,2.67,4.48,2.67,2.91,0,2.91.43,3.88,1.74s1.94,3.91,2.91,5.21-.42,5.42-.49,5.64,0,4.35.49,4.78,0,0,7.24,5.25.48,7.83,1.44,11.3,2.44,12.59,2.91,14.33c.62,2.81-3.15,2-5.32,1.32-4.07-1.54-3,.58-1.92,4.8.44,3.19.07,7.49-.75,7.49-3.79-3-8.22-4.32-11.36-9.65-1.4-3.51-1.4-4-1-7.43.29-2-.52-2.4-1.27-2.4a3.09,3.09,0,0,0-1.13.25,4.08,4.08,0,0,0-1.56-.29c-1-.22-2.45,1-3.41,1.13-.95,0-1.2-1.29-2.3-1.29-1.45,0-6.05,7.88-6.3,8.29-1.44-3,.91-9.86,1.48-11.33l3.37-1.31c.07-.11,1.46-2.17,2.89-4.77.48-.85.64-1.15.87-1.15.46,0,1.18,1.29,5.44,1.58a22.2,22.2,0,0,1,3.53.41c1.39-1.24,4.07-3.67,6.63-4.75,2.43-.88,1.44,0-.48-4.81s-2.4-5.23-1.94-6.52-2.92-7-4.34-7.41c-1.77-.32-4.34,2.23-5.8,3.51s1.44,3.9,3.37,4.76,2.4,5.84,2.43,6.11c-3.32,1.23-9,5.93-13.06,1.75-2-2.66.65-7.73-4.17-6.39-4.05.37-7.57-14.41-2.94-14.52.31,0,7.45,4.82,10.15,4.82,2.74-.46,6.62-.46,7.13-2.64s-5.85-3-6.82-5.64-6.26-5.23-6.77-7.84-8.78-2.38-11.74-4.63c-2,0-.86,9.35-.8,9.85a6.1,6.1,0,0,1-1.54.22c-.78,0-1.61-.22-1.84-1.07-.52-1.75-6-7.56-6.3-7.87C2184.45,558.65,2186.72,554.53,2185.77,552.34Z"/><path class="cls-1" d="M2095.3,672.44c-1-1.34,3.14-7.1,3.35-7.4l-1-3.92,13.55,2.59,4.34-9.57c.35-.29,6.89-5.79,9.56-5.79,3.35,1.55,8-6.37,11.26-9.44,2.91-3,13.53-9.13,15-9.56,1.24.39,9.9-13.64,9.82-16.14.13,0,.37.16.83.48,1.94,1.3,10.63,8.25,12.09,10s6.78,5.67,6.78,7.4-4.24,8.64-6.8,10.44c-2.41,1.74-6.26,12.61-4.8,14.8s7.71,8.26,7.71,9.58,2.47,3,1,3.91-9.18.42-9.18,3a89.85,89.85,0,0,1-1.46,10.88c-.48,3-2.9,4.77-6.27,7s-4.39,1.74-4.39,7.39,1.91,9.16,0,10.86c-1.9,1.48-8.17,4.33-11.12,3.08-1.45-1.31-9.2,0-11.12-2.18s-8.25-2.17-10.62-3.48a9.18,9.18,0,0,0-8.26.42c-2.18,1.41-6.4.79-8.22-.85s-5.33-2.62-3.87-7c3.22-11.58-2.65-10.49-6.76-17.84C2095.3,678.54,2096.27,673.75,2095.3,672.44Z"/><path class="cls-1" d="M2198.55,669.25c-6.75.7-8.71,4.37-7.43,11,1,3,1,3.47,2.43,3.91s1,3.08,2.54,3.08a1.59,1.59,0,0,0,.36,0l1.93-.44c5.76-1.76,5-6.9,14.52-3.9,3.87.86,2.89.43,2.41,1.74-2.13,4.85-7.38,5.65-11.13,8.26-1.44,1.3,0,0,3.39,3.89s-1,4.79,2.43,8.3,3.36,6.08,4.82,7.82c1.27,1.53.29,6.9.47,8.24-.11.12-.12,0-.08-.19a11.69,11.69,0,0,0-2.6,1.47c-1.3.72-2.43,1.74-3.09,1.35-.38-.68-3.41-2.15-4.73-2.15-.8-.14-.44.76-.85.84s-1.58-1.73-1.2-4.78c.47-3.91-2.91-6.08-3.89-7.81s1.8-4.24,2-4.37c-.19-.22-3.86-4.35-7.76-5.22s.59,10.1,1,13.49-1.85,10.91-2,11.31c-.45,0-7.39.95-8.9,2.26-1.16,0-.28-11.08.2-13.13s-4.57-13.77-4.84-14.38c.22.24,6.82-17.22,6.83-15.77a22.88,22.88,0,0,0,1.38-10.76c-.47-2.19,3.91-7.39,5.32-8.71,4-1.19,12.2,1.94,16.48,1.74,4.36,0,8.29,1.63,11.12,1.3,2.25-.47,11.23-5.4,12.45-6.77.73,0,1.16,3,1.58,4.19s-2.73,5.42-2.9,5.64-3.86,3.71-5.34,3.06c-2.11-.3-5.08,2.29-7.78,2C2211.52,675.41,2205.41,670.2,2198.55,669.25Z"/><path class="cls-1" d="M2068.69,720.27c-1.34,3.36-7,7.62-7.28,7.84-.6-.15-12.06-3.06-12.53-4.79s-16.12-12.89-16.94-13.48c-.37-.56-7.28-11.32-6.82-16.11s-8.68-18.26-9.66-20.44-2.4-6.08-4.33-7-4.26-7.88-4.38-8.25c-.29-.07-5.77-1.33-9.18-3.94s-4.37-4.35-4.84-7.37c-1.12-4.86-9.27-8.74-12.08-10.47-8.11-1.18-6.54-3.63-1.47-7.83l32.91,14.79c.39.59,7.74,11.76,9.19,12.18s11.14,7.41,13.08,7.41,17.54,13.22,18.36,13.91c-.37.18-7.25,3.51-4.34,5.23s11.64,7.94,12.1,8.26l5.31,9.14,5.81-.87c.29,0,5.8.44,1.93,3.49s-6.76,10.88-5.8,12.62S2070.16,716.79,2068.69,720.27Z"/><path class="cls-1" d="M2436.9,759c.31.4,6.16,7.91,3.83,7.91-7.48-1.26-16.14-3.95-22.2-5.69-.43-.35-8.69-7-10.17-10.91s-11.15-7.39-11.15-9.13c-1.94-.24-10.2,6.17-10.63,6.51l-7.24,7.38-12.12-.41-10.62-4.78-8.7-3.91a46.2,46.2,0,0,1-8.59,1.29c-8,0,5.23-8,5.69-8.25l-3.38-13.08-5.82-6.07c-5.58-1.62-23.59-6.65-28.57-9.13l-7.73.43c-.19-.32-3.88-6.53-4.84-7.83s.86-5,1-5.23c-.33-.39-6.52-7.27-10.13-6-3.42,0-8-7.9-8.28-8.32,2.84-.68,12.74-3.69,15.73-3.54,1.76,0,4,.16,4.62.91,6.13,2.15,12.72-5.84,8.68,7.84-.93,3.48,2.92,5.23,4.87,6.52,4.59,4.31,2.42,8.46,10.48,8.34,2,0,1.82-1.56,3.54-3.1,1.93-1.76,6.79-6.54,6.79-7.84s9.23-4.63,9.71-4.8c1,.28,20.27,5.66,24.13,7s35.33,16.11,36.82,18.29,1.92,5.19,2.39,7.8c1,2.26,7.77,2.27,10.17,2.64,2.41,0,7.74,8.29,8.69,9.57s-6.75,2.19-8.69,2.19,2.41,2.61,1.94,4.78,8.22,8.69,8.69,10.86S2436.37,758.72,2436.9,759Z"/><path class="cls-1" d="M2241.89,745.5c1.42-.42,4.27,1.23,4.38,1.31l-3.41,2.17a43.65,43.65,0,0,0-7.73,2.61c-6.35,3.66-15.63,12-22.29,16.18-1,0,1.08-4,1.47-6.16.3-1.59,1-1.9,1.42-1.9,1.06.46,9.75-6.39,13.14-8.12,2.85-1.73,2.85-2.16,2.85-2.18-.51.16-10.3,3.11-15.14,3.11-3.94-.77-8,2-10.48,2.54-2.6.47-7.25-.86-8.7-.85s-1.94-1.3-7.27-1.72c-3.54-.47-7.55,1.48-10.45,1.88-2.39-.74-5.08.19-7.78.09s-5.46-.47-7.4-2.41a5.42,5.42,0,0,0-4-1.65c-3.77,0-7.92,3.06-10,3.39-2.52.12-7.86,2.38-10.17.42-.64-1.94-25-5.64-27.07-6.08-1.35-.28-12.45-.66-15-1.31-2.43-.44-11.61-2.5-12.09-2.61-11.77-8.67-7.69-8.26-23.71-10l5.83-6.08,4.81-.44c.19-.12,5.53-1.24,7.27-.46,2.41.9,1.93,2.21,3.37,2.62s4.84,4,4.84,5.26c3.19,1.57,11.19-.17,15,.43,2.06.42,1.11-6.52,4.67-6.5,4.83.18,7.14,5.68,11.8,5.36,3.7,0,4.62-.91,8.16-.86,2.74,0,6,.4,6.33,1.57.51,1.74,1.46,1.74-2.88,3s-2.55,3.38-2.46,3.49c.73.13,14.53,2.6,16,3.89.78.73,2.92,1,5,1,4.09.1,7.15-2,10.59-2.43,1.28,0,3,1,7.62,1.38,5.32.46,5.32,1.76,7.24,1.76a24.48,24.48,0,0,1,6.79.86c8.88,1.8,14.68,2,21.76-2.62a2,2,0,0,1,1.61-.64c3.4.21,8,3.6,12.09,3.1,6.06-.32,9.07-.78,16.79-2.89C2237.14,743.87,2239.6,745.63,2241.89,745.5Z"/><path class="cls-1" d="M2089.49,549.52l2.91,10,.23,16.1-9.2,7.6-9.65,3.72-1.21,3.26-3.4,4.35c-3.09,2-9.22,6.27-12.12,8.48,0-.23-.72-4.55-1.43-5.85s2.26-6.26,2.42-6.52l-5.57-3.51a14.64,14.64,0,0,1-4,1.36c-1.08-.48-2.46-6.07-2.54-6.37l-5.56-3-4.35-5.2-6.08-5.68-8.69,1.53a15.41,15.41,0,0,1,.47-6.32c1-3.91-2.4-2.62-3.14-3.91-1.6-.29-3.76,2.27-3.87,2.41-.06.44-1.22,8.92-1,9.58s-3.63,10.18-4.11,11.27-1.69,9.35,0,10.24c6,4.32,8.94,7.12,8.74,15.43-.28,2.45,6.29,5.28,7.33,5.28,6.58,3.68,16.57,14.9,21.66,20.4.06.37,1.21,7.41.48,10.27a4.72,4.72,0,0,0,1.21,5c.74.65,6.54,11.32,7.25,12.37s.71,8.64.71,9.18c0-.67-5.27-2.09-5.55-2.17a18,18,0,0,1-2.65-5.24c-.75-2.62-7.76-3.26-8.72-4.34s-6.95-4.82-7.27-5-5-5-7.5-7.61-3.13-7.42-3.37-8.72c-.62-4.39,5.68-4.28-.26-10.22-.71-.84-6.76-9.36-7.22-11.08s-6.06-7.62-6.53-8.07c-2.16-.16-4.26.28-4.64,1.09a7.8,7.8,0,0,1-3.1-5.44,17.39,17.39,0,0,1,.72-5.2,48.41,48.41,0,0,0,1.16-7.81c-1-8.36-4-6.36,1.73-7.64,1.47-.67-1.71-6.52-1.71-7.38s-1.42-10.89-2.4-12.42-3.47-8.95-3.6-9.34c-2.14-5.94-5.64-19.72-8.45-25.15-.29,1.66-7.05,4.7-7.54,5.34-.31.68-8.1,6.3-8.51,6.59-.51-.1-10.16-2-9.91-3.07s-.25-7.41-.25-8.29.93-7.06,1-7.38c-.21-.36-4.12-7.18-5.57-7.38s-4.89-2.29-5.07-2.4c.06-.27,1.19-5.45,1.68-7.19-2.19-.62-5.16.61-5.32.67-.59-.59-11.86-11.76-11.11-13.52s-2.22-6.09-1.69-6.71-3.65-4.56-5.37-5.47c-.44,2.65-3.34,6.54-4.33,6.76s-6.48.21-6.77.21c-.58.17-11.63,3.31-12.32,3.31.72-.47-.44-3.17-.5-3.31-11,1.29-11.09,2.63-10.87,13.07-.27.18-5.33,3.48-8.24,3.9s-4.13,3.72-4.13,5S1872,521,1871.25,521.47l-10.19,6.33-5.31,9.36c-.47.15-9.43,3-10.39,3.25s-2.89,5.23-1,5.89,3.15,15.85,2.67,16.31-1.9,15.09-2,15.86c.05.44,1,8.69.28,8.69s-4.65.61-4.86.64l-1,5.71,5.55,1.94c0-4.13,4.64-3.47,5.37-2.85s6,5.84,6.29,6.11l7.22,9.77-3.14,10-7.25,5.87c-.3-.11-6-2.18-6.79-4.78s-1.65-9.25-1.7-9.6l.53-10.65c-.26-.11-5.11-2.17-5.34-3.05-2.92-.44-5,0-5.6.88-.92,1.31-3.6,5.22-3.82,6.08s-3.73,3.55-3.91,3.7a79.79,79.79,0,0,1-8-3.05c-1.45-.87-3.65-8.27-3.4-9.79s-5-10.42-5.32-10.89c-4.59-12.22-15.41-32.5-21.29-43.7-2.94-8.43-8.82-24.7-10.38-33.1.51-.21-2.44-18.91-2.66-20.86-4.39.22-3.42,4.56-3.65,6.08s-3.63,2.61-4.37,2.61-5.31,2.7-5.56,2.84c-.67-.44-13.56-8.71-13.56-9.36s-2.48-5.8-2.61-6.08l7.7-3.06-16.69-5.89c0,.3-12.67-12.93-15.44-14.14-3.36,0-11.31-.64-12.14-.64s-16.11,1.25-16.9,1.32c-10.53-.91-38.42-4.59-48.41-7.62-.69-1.31-1.93-5.68-1-7.19s-6.55-1.95-6.75-3.05c-1.36-.14-6.52,4.33-6.79,4.56l-8,1.1c-9.37-2.25-9.84-5.12-16.75-6.77-1.67,0-12.51-8.47-12.51-9.76s-7.25-10.9-8.23-13.71c-.67-2.59-9-1.92-10.65-1.55-1,.23-6.7,5.81-7,6.11l.73,6.77,12.56,13c.18.37,3.62,7.4,2.9,7.59s5.27,7.49,5.59,7.87c.18-.38,3.72-7.69,4.3-7.69.27.92,5.58,6.51,5.86,6.8,0,.5.49,10,.72,10.68s4.38,1.67,4.6,1.73l13.09-3.05c4.36-3.56,16-13.23,19.78-17,.73,0,.5,5.56.5,8.69.25.52,5.09,10.44,5.56,11.32s12.91,2.13,13.57,2.19c2.36,2.71,9.32,8.1,12.09,10.43l-.25,3.93-8.46,11.09.22,6.07-5.58-1.51-1,10.89-7.5,4.13-2.18,5-7.71.44-2.18,7.39c-1.08.31-21.53,6.08-22.5,6.08s-1.43,6-1.46,6.34c-1.07.42-21.52,8.46-22,8.69s-5.78,5-6.06,5.23l-7.22.86-5.82,3.91h-13.31l-2.4,4.81-13.56,2.38L1535,563l-3.14-10.45-4.16-11.09c-.42-.4-8.45-8.06-9.43-8.69s1.57-4.39,1.7-4.59l8.49,7-2.44-7.84L1513.46,515l-2.89-8-13.81-11.11c-.23-.5-4.6-10-4.35-10.65s-1.34-9.21-1.45-9.21c-.51.07-6.9-8-7.24-8.44-.49-.72-9.7-14.56-9.7-15.42s-15.39-17.2-16.2-18.06c-.36,0-7.19.89-9.42.89-1.56,0,1.95,5.21,2.89,6.27s9.72,20.52,10.18,21.54c4.83,8.28,15.2,24.7,20.78,32.41l.25,14.61c.43.38,8.69,7.6,9.15,7.6.17,0,5.62,14.79,5.12,15.45s8.26,6.64,8.72,7l18.41,16.5,13,14-1.44,6.52,9.68,9.12c5.82-2.48,23.87-6.88,30.24-8.69.83,0,16.68-.87,17.41-1.32a41,41,0,0,0,3.65-3.48l5.78.88-1.9,19.12-9,18.94-27.8,40.93-18.41,13.25-32.67,33.71-8,14.15c-.29.73-5.74,14.59-5.55,15.63s2.69,13.74,2.69,14.6,7,21.53,7.25,22.64l-224.37,3-6.17-15.38,3.88-4.79-3.88-8.47c-3.11-6.7-8.95-20.67-12.12-27,0-.21-20.66-27.49-21.74-28.93l.71-4.14c1.59-3,4.44-9.25,5.8-12.41.81-5.33,1.61-16,1.93-21.09-.46-.41-9.19-8.08-9.9-8.29-4.79,0-21.85.75-22.26,1.52-1,.08-4.13-5.08-4.13-6.29s-5.73-9-6-9.39l-9.21-3.22-19.09.62-4.84,3.3-24.72,10.21-6.74-2.83-9.21-1.3c-.49,0-9.78.83-13.53.83-2.6-.21-18.07,6.62-18.89,7-11.31-8-33.33-20.17-44-29.13L1056,596.72c-1.46-3.05-10.38-12.61-11.37-14.14s-7.3-5.71-8.72-5.71c-1.7.17-4.42-1.78-4.56-1.89l-3.65-7.62v-4.59l1.47-4.57-.75-4.12-5.08-3.7,5.58-6.73,1.93-9.58,3.88-7.41V513.2c0-.65-3.45-5.42-3.63-5.67l3.37-3c-.8-1.9-3.71-6.93-3.86-7.2s-2.4-2.6-2.4-3.46.68-6.11,1.39-6.11c.93,0,5.63-7.41,6.11-7.81s2.31-10,2.41-10.46c.44-.36,8.74-7.3,10.19-7.3.4.26.21-6.88.2-7.26a51.62,51.62,0,0,0,4.12-5.21c.46-1.12,7.35-6.89,7.71-7.19l5.35-8.28,9.67-1.94c.88-.75,17.67-15,18.14-15.45s-.42-8.51-.47-8.93l1-6.73,3.38-3.48,2.18-5.45c6.68-3.56,14.94-9.07,21.3-13.06l6-12.16c-1.68-4.79-4.37-8.49-5-11.1s-3.42-1.11-4.15-2.63c-2.83-.56-5.38.68-5.55,1.31s-2.78.5-5.18.5c-4.53.18-2.41-4.18-2.3-4.41l-.5-5.42-3.14-4.58c0-.3.4-6.08.3-6.35.51-.74,5.47-9.72,5.73-10.2,0-.52.68-10.44,1-10.44.1.06-1.8-7.86-1.91-8.27v-3.88l5.32-.24,3.62-3.7h4.36c10.91,3.53,10.69,2.17,16.89,1.95,1,.23,8.37,1.67,8.75,1.75l15.75.24a62.21,62.21,0,0,0,5.59-3.7c.45-.68,2.74-13.48,2.86-14.16l-3.61-6.52-3.16-7-8.2-4.56-8.73-3.27a7.72,7.72,0,0,1,2.43-7.62c3.38,0,5.27,0,7.36,0a27.46,27.46,0,0,1,5.22.28c1,.44,5.79,1.72,6.78,2.61.83.17.46-1.94.46-3,0-1.31-3.14-8.07-2.88-8.73,1-.13,3.17,1.41,3.38,2.16s8.26,3,8.69,3.06c.51-.24,10.28-4.81,11.33-4.81.5,0,3.54-7.21,3.7-7.59.37-.09,7.5-1.72,8.69-1.72s11.38-6.51,11.84-6.75c.14-.47,2.71-9.36,2.2-10.23s9.68-3.69,10.64-4.13a106.33,106.33,0,0,1,17.16-1.74,29.71,29.71,0,0,1,3.64-4.13c1.19-.88-1.77-2.73-1.92-2.82a75.4,75.4,0,0,1-4.11-8.52c-1.23-3.24.71-7.78,1-8.69s4.62-5,4.85-5.21c.42-.15,8.47-3,9.2-3.27,2.16.45,2.41,4.56,1.42,5.22,2.1,2.61,4.36,5.91,3.65,6.77s-3.9,3.89-3.14,4.34c3.88-1.77,10.74-2.59,11.1-2.63.17-.15,3.39-3,3.88-3.7s-1.47-3.67-2.9-6.73-4.84-5.42-5.8-6.73-1.94-6.75-2.4-8.26a43.29,43.29,0,0,0-14.27,7.6c-.74.44-5.12,3.05-6.28,3.26-2,0-9.78-2.29-10.19-2.41l-6.77-4.1c0-.35-.25-7,1.45-8.5s-3.82-1.51-4.11-1.51c-.07-.58-1.23-11.53-.73-12.63s2.79-5,2.91-5.23l9.66-8.27c.67-.21,13.49-4.21,16.44-4.21,1.48,1,5.85,3,6.08,3.12l6.52-6.29,1-5.44,6.76-10,12.09-8.08,4.38-6.73-10.16-.86L1303,89c9.54-2,28-6.22,37.52-8.07l14.5,2.2c.39-.17,7.74-3.31,8.25-4,2.66-.06,18.52,4.16,19.36,4.38L1377.75,89l5.81-.67c.61.06,12.11,1.1,12.34,1.75,7.79,3.74,46.31,11.09,55.64,13.25L1453,107c-.06.21-1.18,4.13-2.17,4.39s-8.22,3.47-12.55,4.77c-9.67-.31-20.72-2.29-32.18-3-.75,1,2.62,3.23,5.76,3.23s1.74,2.39,0,3.9,3.62,6.47,3.9,6.73c.85.36,16.93,7.18,17.61,7.18s3.45-2.61,2.45-3.91-7.88-1.71-8.25-1.74l-2.39-3.68c.28-.08,5.55-1.53,6.55-1.75,1.86,0,14,2.86,13.52,4.14.88.29,4-2.07,4.14-2.2-.15-.14-3.13-2.8-3.38-4.11-.2-1.06,2.5-2.13,3.77-2.13,1.92.24,8.43-4.3,10.49-6.15a4.87,4.87,0,0,1,4.87,1.52l6.49.65c.07-.18,1.39-3.71.79-3.71-1.19,0-4.45-1.83-4.62-1.93,0-.32-.75-6.32-.75-7s-4.68-4.67-6.21-5.17c2.92,0,5.19,0,7.51,0s4.81-.06,6.5-.06c2.83.26,7.81,5.94,8.81,5.94-.46.28-6.18,3.74-6,4.34s5,3.3,5.3,3.45c12.59-1.71,2.25-1.89,11.12-6.74,3.16-.43,9-1.51,9.43-2.61s12.66-4.59,13.3-4.77c.36-.09,7.15-1.72,9.47-1.72.94,1.07-.53,5.63,0,6.71,1.93.18,7.16-3.15,8.22-3.9,1.23-.88,10.89-1.09,11.4-1.1,13.93-5.7,6.65-6.54,14.74,2,3.86-1.72,6.1-4.16,1.45-6.73l-8-2.65a58.82,58.82,0,0,1-5.58-3.25l5.09-2.38c.45.23,9,4.58,8.47,5.23s20.65,1.88,21.76,1.95l23,6.52,10.38,4.35c6.76-8.57-11.08-8.43-14.74-11.75-.22-1-.91-5.46-.54-5.46-.51-.34-6-4.52-6.23-4.74l6.77-4.16-1-3.27,3.39-8a14,14,0,0,0,5.3-2.17c2.34-.36,3.11,2.05,3.16,2.17s2.16,2.41,3.13,2.62a59.45,59.45,0,0,0,7.72.76c2.18-.42,3.39,4.76,2.72,6s-.72,3.71.22,3.93,5.35,2.88,5.58,3,1.92,3.25,1.92,3.94,3.91,6.44,4.11,6.74,6.76,5.44,8.72,7l.72,8.71-7.26,5a40.12,40.12,0,0,0,6.28,1.95l6.79-1.3c.23-.37,4.58-7.39,4.84-8.48s-2-3.25-3.66-3.92-.09-3.74,0-3.91c3.57-.57,5.38-.07,6.32.45,1.92.08,5.43-2.74,4.1-3.91-8.78-1.27-8.76,1.21-13.81,3.68-.38-.22-7.49-4.56-8-5.43s-.7-6.45-.71-6.75c-.25-.22-5.08-4.36-8.22-4.36s-.48-3.69-.24-4.34,3.62-2.39,4.83-2.62-3.16-3.51-3.39-3.68l-5.32-4.35c.22,0,4.36-.44,5.55-1.53,1.81-.12,5.56,6,5.56,7.84s3.4,5.63,3.63,6.31,7.17,3.14,7.53,3.27c.27-.08,5.31-1.56,5.06-3.49-8.26-1.7-2.62,3.45-9.45-3.92-1-.43,3-3.54,3.15-3.7s5.31-.65,6.55-.65,10.9,2,11.61,2.18,8,3.92,8.72,3.92,6.45-1,6.76-1.1c-1.8-3.18-3.37-2.57-5.09-2-3.05.27-4.27-.87-4.84-1.74s-10.19-7.7-11.64-8.26c1-.14,6.68-2,9-2,3.73,2,22,.51,23-.12s-5.46-4-7.26-5.41c2-.81,9.84-3.83,11-3.83,2.63.11,19.81-3.13,27.11-4.52,3.26-.62,25.07-.62,25.78-.19,1.34,0,7.88-4.33,8.23-4.56-.16-.07-3.14-1.29-2.7-2.62s13.84-3.77,14.54-3.9c.51,0,10.08.27,14.72.27,3.53-.06,5.75,5.51,5.86,5.8,4.55-.48,26.11.62,29.51.45.66,0,11.89,3.17,14.84,3.17,2.17-.21,6.42,5.59,6,6.62l-6.28,4.13-17.68,8.49L1836,62.66l5.81-5.66c.38-.06,7.5-1.11,7.72-1.56.82,0,9.94,6.44,10.42,6.78L1887,62l3.67,3.46c5.4.15,22.21.62,28.08,1.49,1.89-.84-3.2-3.87-3.68-4.74s3.2-2.31,3.39-2.38L1931.57,62c.91.19,18.17,3.77,20.91,3.77,1.34-.1,13,9.22,13.64,9.71.78.25,15.72,5,15.72,6.09l4.83-8.69,6.79,3,17.91.22,17.86.45-10.83-7.4c.43-.06,8.51-1.11,12.9-1.11,4,1,30.73,3.18,38.92,3.18,7.08-.15,20.07,4.85,20.75,5.12l22.69,3c.6,0,12.05-.11,20.3-.11,4.12,0,7.3,0,7.53.11.72.23,21.42,3.29,22.5,3.45l6.78,6.55c2.27,0,45.48.24,46,.88s16.08,2.92,16.9,3L2247,95.06l-13.34-10c17,1,42.6,5.69,60.5,6.76l61.93,15c10.54,2,16.78,3.52,27.71,5,3.32-.09,13.39,2,16,3,2.91,1.1,4.84,3.28,6.06,3.71s-2.9,2.62-5.1,3c4.47,2.14,5.75,7.74,5.81,8-6.27-.53-20.76-1.17-23.21-2.83-1-.89-3.88-1.3-3.63-3s-7.27-1.76-7-2.39-10.65-1.09-12.83-2a23.12,23.12,0,0,0-6.47-1c0,1.28,1.57,4,1.66,4.1-.17.21-3.4,4.13-4.87,4.56a35.27,35.27,0,0,0-5,2.17c.21,0,4.61,1.45,4.84,1.53.43.24,8.58,4.81,9.6,4.81a53.26,53.26,0,0,1,7.19,2.28c7.72,2.78,7.38,1.67,11.51,6.41a9.81,9.81,0,0,1-4,1.38c-2.33-2.68-10.36-2.48-11.33-3.12-1.73-.08-6.22,3.29-8.45,3.66-2.45.46-4.94,3.76-5.07,3.94l-6.82,8.26a55.12,55.12,0,0,0-.29,6.12c-.68-.71-5.09-1.84-6-2.63s-8-2.19-9.44-2.84c-4.57.43-7.19,4.42-10.19,6.54a8.81,8.81,0,0,1-2.66-3.49c-2.45-3.71-13.38,2.2-16.3,2.22.31.36,4.71,6,4.95,6.29l-1.44,3.7,2.64,4.75,4.89-.62c.37.15,7.48,3,8.21,3s-.5,3.46-.28,4.34,5.35,2,5.35,2.6,8.71,3.48,10.16,3.71-2.16,3.12-3,3.12c-.42-.73-4.33-1.54-4.53-1.59l3.88,7,7.5,7.17-5.6-1.51-2.4,4.55,7.26,8.26c-.19,0-3.62-.63-4.86-.87-1.27,0-2.17,2.86-2.63,3.52s2.95,3.92,4.16,3.92-1.15,9.69-1.27,10.2l-13.06-6.94-15.72-13.95c-1.21-.94-24.2-18.9-24.94-19.38s-1.87-6.83-1.93-7.17-3.36-5.85-3.36-6.95c2.4-1.07,7.24-5,7.24-5.63s1.68-9.61,1.68-10.46,4.16-10.17,4.38-10.66c-.24-.47-4.82-9.36-7-11.53a7.4,7.4,0,0,0-6.28,2,63.28,63.28,0,0,0,5,5.37c-2.69,1.64-6.67,7.22-8.87,9-.42-.23-8.45-4.58-8.45-5.87s-5-5.63-5.31-5.85c-.65,0-13.1,0-15-.45-1.89,0-1.44,4.19-1.21,5.44s-3.88,9.55-3.39,9.77a49.15,49.15,0,0,0,6,2.19c.75,0,5.55,4.33,5.8,4.56-2.6.08-9.93,1.61-12.57,2.18-.33,0-6.65.38-10.39.38a5,5,0,0,1-4.1-4.27c-7.46,1.28-37.32.47-42.6.85-.64.08-12.71,1.58-15.43,1.58-1-.08-4.67,6.55-4.86,6.9-.14.76-2.81,15.24-2,15.24.61,0-9.83,10.92-10.38,11.5a36.78,36.78,0,0,0,4.35,2c.47,0,7.82,1.22,8.21,1.29.2.27,4.05,5.52,4.71,5.52.39-1-.54-4.67-.58-4.87l-.72-6.07,6.3,10,4.58,5,4.34-6.52,7,.21,16.22,6.5c.35.5,7,9.82,7.72,9.82s5.34,9.71,5.58,10.22l10.41,16.75-.25,27.43L2215.54,302l-11.62,6.54-7.75-4.81c-.33.22-6.74,4.34-7.25,4.34s-2.78,7.87-2.9,8.28l1,8.49-11.12,9.79,8,5.85,18.41,11.35c.4.87,8,17.4,8,18.06s-7.11,5.6-7.48,5.86l-13.8,4.78c-.24-.19-4.85-3.91-5.32-4.56s2.05-5.61,2.18-5.87c-.07-.29-1.43-5.88-2.18-6.76a24.38,24.38,0,0,0-4.84-3.68c-1-.45-.74-3.76-.72-3.94s2.18-1.74,2.18-2.82-18.4-5-19.36-5.22l-1.46-13.07c-.4-.08-8-1.74-8.24-2.4-2.74-.16-8.34.9-8.94.9s-4.59,3.67-4.36,4.15-4.1,3.52-4.33,3.68l-3.63.45c2.6-4.26,2.73-2.63-1.72-9-.7-1.27,2.44-5.85,2.91-6.08s-4.12-3.26-4.86-3.68c-1.2-.06-3.88,2-4.31,2.6s-4.38,4.13-4.87,6.3-6.27,4.78-7,5.21a52.88,52.88,0,0,1-5.31,2l-.26,4.58,7.48,2.39,6.56,2.82.74,5a57.32,57.32,0,0,0,12.33-4.8c.82.06,16.44,1.31,17.15,1.53s1.65,4.33,1.7,4.55c-.21,0-4.13-.21-5.31-.42-1.45,0-8,6.53-8.22,7.16s-8,9.8-7.5,11.13c2.35,1.08,9.35,6.41,10.85,6.41,2-.19,11.17,12.43,11.4,12.5.4.37,8,7.41,8.41,7.41-.29.28-2.27,4.35-2.38,4.56.24.07,4.84,1.29,5.82,1.52s-.88,3.93-1,4.13l-3.37,5.45a35,35,0,0,0,4.81.87c1-.25,6-4,6.31-4.15.66,4.34-3.17,19-3.64,23.29l-5.55,14.57-4.59,10.24c-.67.63-13.39,12.61-14,12.61-.31-.08-2.33,4.12-2.44,4.34l-5.78,2.18-6.53,1.31c-3.07,3.11-14.33,8.06-18.42,10.21l-6.75-2.16c-6,5.9-9.25,4.48-9.68,11.74-1.41,2.83-4.54,2-6.56.44-.71-.65-1.44-6.55-1-7.84-1-2.38-8.69-2.17-9.65-3-6.12.29-11.23,7.06-15.25,10.22l-4.39,3.71c-.05.35-.94,6.94-1.19,8.26s3.93,6.05,4.15,6.3c5.35,6.6,16.25,15.91,22.25,21.3ZM1458.93,386.36c2.55-4.21,2.58-9.78,4.38-14s-3.06-8.16-2.21-12.4c.58-4-5-.18-6.82-.49-4.19-.26-10.23,3.88-10.55,4.1s-4.21,1.76-5.23,1.76c-.23-.81-6.38-.81-7.13-3.38s-9.8-2.62-10.9-3.3c-1.3-.07-2.6,3.44-3.25,5.23-1,2-5.19-.17-5.81-1-.73-1-5.44-1.66-5.44-3s-5.48-2.26-11.25-2.92-3.64-1.65-2.9-3.25-4-3-4.73-7.83-2.1-5.82-2.17-5.87c-.18-.52-3.63-10.47-3.26-11.78s-4.35-2.92-6.91-3.9c-3.07-.92-6.11,2.17-7.58,6.2-1.78,4.33-4.61-2.31-7.66-3.27-3.25-1.3-2.18,2.91-1.45,6.23s3.66,4.24,6.53,6.19,3.61,4.89,4.36,6.51-4,3.25-7.23,4.89c-2.75,1.38-2.21,5-2.36,7.32-3.36-.5-8-.77-8.2-.78-.29-.26-5.8-5.23-4.7-9.14s-6.52-6.51-9.06-6.51-9.08-12.08-9.45-12.75.71-1.63,1.42-4.88-.71-3.27-.71-4.89-1.44-2-2.53-3.58-4-1.31-4.74-2.31S1320,312,1315.26,310s-4.35-2.61-8-3.91-4.7-3.28-6.54-3.92-9.79-6.21-10.5-8.15-6.56-6.84-8-9.79S1278.58,280,1279,279c-.7-.09-7.58,5.73-6.89,8.17.73,2.6,1.09,4.22,1.46,5.21s3.47,3.76,3.63,3.91c.29.36,5.82,7.17,6.19,8.16s6.88,5.55,6.88,6.54,6.17,1.93,8.71,1.64c2,0,.79,3.09.72,3.25,3.35,1.63,11.36,5.16,15.95,6.19,2.53.33,5.31,3.73,5.45,3.91s.33,5.23-.37,6.55c-.85.37-1-1.34-.74-2.62.36-1.64-5.06-2.29-6.86-3.59a2.35,2.35,0,0,0-1.35-.4c-1.9,0-4.35,1.71-5.23,3-1,1.62.4,2.61,1.84,4.24,4.11,4.8,4.17,2.68,0,5.89l.36,2.28-3.25,3.56a4.76,4.76,0,0,0-1.11,2.3c0,1-4,.33-6.53,1s-2.18,3.59-1.81,5.87c.33,2-.77,5.05-1,5.05-.06-1.14-4.2-1.73-4.42-1.76s-6.53-2.63-9.09-3.93-11.65-1.89-9.08-6.21l9.06-1c.42.06,8.37,1.31,9.45,1.6,3.17-.52,9.4-8.24,10.16-10.77l-2.91-4.54c-.27-.28-5.43-5.57-6.51-5.89s-6.59-4.66-6.88-4.89l-9.8-3.25-8-5.55-8.33-7.85c-.28-.4-5.45-8.16-6.17-10.77-.8-2.33-5.42-1.55-7.61-1.56s-2.88,2.41-2.91,2.54c-3.2,1.63-13.34,6.75-16.33,8.79l-12.34-3.58c-.49.09-9.82,2-10.89,2.94s.27,6.57.34,6.86l-2.53,4.56-14.86,6.54-10.5,14.68c.07.23,1.42,4.58,1.78,5.55s-4.82,1.92-5.09,2l-2.88,6.83-4.7,1.64-7.64,4.55-15.62,2.64-6.52,3.92-1.8,3.88c0,.22,0,4.38,1.1,4.38,1.71-1.2,6.2,1,6.5,1.19.31,0,6.18-.7,9.66-.7,1.3,0,2.21.1,2.31.36.28.86,6.23,1.68,8,1,1.08-.64,4.71-3.26,5.07-4.89s11.39-6.62,12-6.88l17.42-2.6c.53,0,10.52,0,11.62-.33,2.41-.28,6.75,1.39,8.7,0,.6-1.39,7.91-4.58,10.3-3.77,5.9-.86,18.15-.57,23.46-2.42,2.83-1.3,1.82,3.56,9.56,2.95.88,0,1.64,0,2.06,0,1.45,0-2,.62-2.18.65-.13.28-2.54,5.55,1.09,7.22s1.43,7.15,1.81,8.13-2.9,6.54-4,7.18-2.12,4.6.42,4.6c4.18,0,8.79,6.53,10.81,7.8,1.84,1.31,13.79,1,14.91,1.31s11.42,6.53,12,6.86l6.89,7.17c.85.12,17,2.27,18.85,2.94s7,5,7.27,5.2c.26-.1,5.07-1.95,6.53-3.58s-2.52-3.9-2.93-6.85c.51-5.35,5.16-7.48,8.73-10.46,1.45-1,12-3.92,13.4-4.21,1.27-.06.44,1.07.76,1.94s9.4,2,10.86,3c8.25,4.23,24.09,8.67,32.67,12.36,1.37.58,10.38,2.41,12.34,0,1.47-2.25,13.8-1.6,14.88-1.93a29.09,29.09,0,0,1,4.75-.27c3.38,0,7.56.28,9,1.25a4,4,0,0,0,2.14.56c2.44,0,5.47-1.61,7.67-2.87,2.89-1.61,2.89-5.21,4.7-7.8s2.9-4.92,5.44-9.15m-188-181.21-8,6.08,0,.45c.35,0,7-.66,8-1.52s1.39-.88,1.9-1.74,4.36-1.74,6-2.17c2-1.1,1.54,6.54,4.63,5.48,1-.62,1.39.84,2.41.78,1.76,0,4.87-2.25,6-2.79,1.45-.66,5.07-.66,5.81-1.09s4-2.5,4.13-2.61l6.26-2.16c.14,0,2.69-.25,3.13-.87.8-.13,1.67,1.43,1.71,1.51,2.43,3.72,1.63,6.05,7.75,3.7,1.19-.43,4.61-2.61,6-3.27s4.81-1.72,6.29-3.25-1.72-4.56-2.44-7,1-5.42,1-7.81c.79-4.88,7.05-5.3,10.67-4.34,1,.64,4.59,3.46,5.32,5a.77.77,0,0,0,.77.49c3.53-1,4.35-3.63,5-7.65.51-2.61-1.93-2-1.93-3.05-.56-.39-6.37-3.37-6.54-3.9l1-3.06a181.5,181.5,0,0,1,18.09-3.94c1.5-.12,6.21,1.71,8.44,1.87a10.26,10.26,0,0,1,3,.18,10.37,10.37,0,0,0,7.67-6.61l-2.91-1.95c-1,.06-3.71.06-4.11-.65-.07-.12-.27-.18-.56-.18-1.42,0-6.15,1.66-7.5,1.71a25.74,25.74,0,0,0-4.59.77c-4.07,1.09-6.79.55-10.58.73-1.84,0-5.4,1.85-5.58,1.95l-4.07.89a1.14,1.14,0,0,1-1.48-.43c-.76-1-3.27-.52-4.6-.46-.19-.09-3.88-1.73-4.1-2.6s-3.15-1.73-3.41-3.69-1-2.6,0-3.7.26-3.47-.71-5-.25-6.09.24-10.24c.36-2.7.18-2.52,1.43-2.3a72.07,72.07,0,0,0,15-8.58c2.41-1.94,6.29-5,8-5.65s-.25-1.08-1-3c-1.32-2-5.17.12-7,0-1.67-.25-7.53-.46-8.21-.46s-3.67,2-5.34,2.39-3.09,5.42-2.49,5.42-1.1,3.72.31,3.92-7,3.67-8,4.13a15.13,15.13,0,0,1-5.53.85c-1.15,0-6.31,5.7-7,6.54-6.42,6.55-6.79,7-5.32,16.1,0,1.1,10.87,5.86,12.34,7s-2,4.38-2.17,4.56c-.47.25-9.48,5-10.17,5.24-1.69,1.5-5.88,8.76-1.21,10.43a55.47,55.47,0,0,1-4.11,8.48c-.33.12-4.53,1.59-6,.73-2.22.29-8.18,2.44-5.2,5.13,1.22.68,3.28,1.71,3.39,1.76a23.27,23.27,0,0,1-.24,3.7.28.28,0,0,1-.29.25c-.51,0-1.47-1.16-1.64-2.21-.23-1.32-2.66-1.08-4.62-2.6-1.22-1.15-2.69.17-3.68.6-.4-1-7.52-2.07-7.89-2.13l-1.7,5.88m265.33,84.64c-.3.58,1.25,4.59,1.44,5.21l6.51,1.31L1542,302.5l2.55,4.9c.24.15,4.72,2.94,5.8,3.88s9.1,7.88,9.78,8.83,7.28,5.23,8.36,6.22.41,2.82.37,2.92c-.35.16-4.94.25-4.37,2,0,.7.4,4.91,1.1,5.87s-2.9,3.27-4.72,4.58-.73,4.25-.73,5.54,4,4.23,5.12,4.58a12.19,12.19,0,0,0,6.11-.77c1.1,0,2.6,2.52,3,3.69s7.9,4.09,8.3,4.24c4.88-.4,14.77-1.78,19.61-2.61-1-4.57-4.54-7.09-2.54-13,2.62-4.22-6.42-9.26-8.69-9.78-1.11-.68-3.29-3.62-4.39-5.58a3.15,3.15,0,0,1,1.59-4.39c1.06,0,3,1.14,4.23,1.14,1.35,0,6.4.32,7.62-.33s-1.11-2.94-2.16-5.2-5.45-5.22-6.55-5.87c-1.4-.06-4.22,5.25-4.37,5.53-.13,0-2.54.34-3.62.34s-.34-6.86,0-8.15a1.73,1.73,0,0,0-.74-2c-.51-.29-10.15-5.87-10.86-7.84s-6.88-4.9-8-5.55-1.84-2.61-2.18-3.91,4.7.34,3.63-2.26,4-4.27,4.7-4.58c1.57-.23,6.86,1.27,7.24,1.31.14-.43,2.89-8.48,3.25-9.82s-2.73-1.9-2.89-1.93c-.46-.13-9.07-2.63-10.5-4.26-1.67-1.64-4,1.4-5.43,2s-8.37,4.88-8.71,5.89c-.59,1.24-2.87,3.68-4.56,2.82-1.62,0-5.09,1.68-5.27,1.76l-6.87,7.17M1392.9,305.11l1.42,5.22h-4l4.38,4.25,8,3.59,13.44,2.92,4-3.26,11.27-2.93,14.52-2.95c.35.12,6.87,2.3,8,3.27,4.31,2.48,10.32,3.6,14.51,5.22h9.43l13.8,1.65c.34-.31,6.91-6.19,8-7.18.84-1-2.36-3.88-2.14-3.88l-7.64-5.58-9.79-8.8c-3.78-1.7-16.77-8.21-20.71-9.12-1.1-.33-1.82-3.62-.71-3.92a25.17,25.17,0,0,0,5.44-3c1.83-1.32.7-4.56,1.44-5.55s6.27-5.94,6.56-6.2c-.37.06-7.3,1.31-8.37,1.31s-12.45,3.09-13.05,3.25c-.24.33-4.72,6.52-5.46,7.51,0,2.14,8.47,3.55,10.16,4.23l-3.63,1.65-10.15,2.27-2.18,3.27c-1.43.08-6.07.07-5.43-1.63.75-2-2.55-3.59-4-4.56s-4.6-2.52-4.76-2.6c.22-.23,4.34-4.59,5.81-4.91s-7.17-1.27-7.62-1.32l-8.69-3.27c-.18.23-3.62,4.58-4.7,5.55s-4.55,3.79-4.74,3.93l-1.08,4.88-4.37,1.65-2.56,9.44-3.6,2-.71,3.59"/><path class="cls-1" d="M2421.42,868.16l4.32,12.2,10.65,14.38L2432,909.55l-5.81,19.52-10.63,17.42-7.73,10L2397.18,963c-6.71,6.7-29.41,34.07-36.58,39.26-3.11-1.54-13.6,1.32-14.19,1.18l-17.91,12.64c-.79-1.87-7.05-6.89-5.78-10-1.19-.28-5.48,2.44-6.31,3.92s-4.92,1.9-7.47,1.9c-3.05.17-9.08-2.94-13.84-2.79-3.34,0-6.1-3.29-6.25-3.47-.24-.47-4.86-9.56-5.35-10.44s3.4-4.34,2.89-6.06-1.92-3.95-1.92-6.13c-.3-2.24-3.19.76-4.36,1.33a19.91,19.91,0,0,0-5.81,6.09c-1.47,2.71-4.11.87-5.32-.44-1-.85-3.39-2.17-1.93-3.49s3.89,0,7.25-1.74,5.81-3.06,7.78-3.94,1.91-3,2.39-5.2c.34-1.49,0-2.17-.88-2.17-4,.4-6.13,5.72-10.06,5.44s.53-2.45,2.21-4.58c1.45-1.73,4.37-4.33,5.81-4.33s4.67-8.27,4.84-8.71c-.65,1.82-12.31,7.76-13.51,8.7-1.46,1.3-6.79,6.51-7.3,7.83-1.87.27-5.58-2.47-5.77-2.61l1-8.26c-.15-.29-3-5.73-3.34-5.73-1.3.13-15.3-9-16-9.51L2222.53,950l-22.23,5.64-9.21.89-18.4,7.39-6.76,6.51c-.14,0-2.79.11-5.74.11s-6.11-.11-6.83-.54c-3.29-.93-8.69.51-12.1,0-2.56,0-7.93,3.32-8.21,3.49-5.17,2.34-13.39,7.39-20.86,7.37-4,0-10.63-3.69-12.54-3.46-1.47,0-2.35-7.86-2.4-8.27l4.33-.44,5.31-7.81c.21-.57,4.37-11.33,4.37-13.09s-1.47-8.26-1.47-10,1.95-4.36,2.45-6.94-1.83-6.78-1.95-7l-1.44-14.32-4.36-7.83,3.87-2.63,4.36-1.32-2.93-10,5.34-6.51V870.35l5.32-5.22,1.45,3.48,4.33-3.91c.63-.41,12.6-8.27,14-8.27s7.91-1.25,8.25-1.31c8.44-2.84,26.25-7.14,34.33-12.18,1-1.74,9.7-9.19,10.15-9.58l2.45-10,7.25-6.09,1.92,7,3.43-6.5,6.23-2.22,6.31-9.55,7.27,1.73,1.92-9.13c.24-.19,4.84-3.92,6.77-3.92,7.4,1,10,6.19,12.57,11.32.58-.15,11.62-3.1,13.77-3.1,1,.08-1.06-2.85-1.16-3,1.63-3.17,5.45-9.53,7.25-12.63l5.81-4.78,9.2-.85c.13-.08,2.43-1.64,3.65-1.64a36.36,36.36,0,0,0-2.21-4.9c0-.21-1-4.34,0-5.21,1.87-1,4.9.8,6.31,2.6,5.11,4.92,12,6.53,17.4,9.16.51-.22,10.21-4.41,12.77-4.41,2.23.48,2.23,2.66,3.68,4s.08,3.36,0,3.47l-7.74,5.68c0,.21-.45,4.34-1.95,5.2-1.35.85-5.94,7-5.82,7,.87,0,6.07,5.78,6.34,6.09l8.69,6.08,5.34,7.38c.43.2,8.69,3.92,9.66,5.23s8.34,1.29,8.73,1.29c.33-.52,6.77-10.41,9.68-14.77s3.37-11.33,4.34-16.1,3.27-18,3.39-18.72l4.76-9.81,2.49.68,4.86,14.79,1.94,15.68,8.71-.88,3.39,9.58,1.44,16.09c.22.68,4.4,13.57,5.25,13.57,1.63-.15,14.39,14.38,15.06,15.15l-1,4.78c.09.41,1.78,8.31,2.37,8.31C2417.73,866.66,2421.24,868.09,2421.42,868.16Z"/><path class="cls-1" d="M868.8,723.71c.26-.16,5.55,14.64,6.44,16.56,1,1.74-5,10.4-5.33,10.86l-7.84,16.09-19.25,25.25c-.08.24-1.47,4.81-.5,5.23s-.48,17.83,0,19.16c-1.09,10.6-5.83,29-7.73,39.58,0,1.31-9.17,12.44-9.65,13l-6.31,4.37-18.88,5.66-25.16,15.24-3.39,5.18,2.43,14.38-2.92,11.75L763,938.65h-7.26l-3.37,12.64-7.75,17-11.13,10L719,976.09l-9.68-6.53-4.37,3.91,4.83-.86a27.05,27.05,0,0,1,3.88,7.38c1,3.52,1,4.8,4.87,5.22a4.29,4.29,0,0,1,3.87,4.37c0,.28,0,5.67.48,7.39s-5.52,11.27-5.83,11.77l-16.46,3.91c-.28,0-5.63-.56-8.58-.56-3,.56-4.45,6.21-4,7.52s1.86,4.6,1.93,4.77l-4.35,5.65-7.76,1.32-8.23-2.18v5.25l4.86,6.94,3.87,1.28h6.74c-.19.26-3.84,5.24-5.31,5.69s-3.88,7-2.9,8.26.52,6.68.49,7l-5.81,3-1,10,9.67,8.69,5.81,2.62c-.19.32-3.85,6.53-5.81,7.83s-1.9,5.84-1.9,6.07l1,6.55-5.34,3.47,3.4,8.69,16.94,16.55,22.23,7-3.35,3.91-10.66,5.22c-.36-.08-7.25-1.72-32.43-7.39s-53.63-50.71-55.13-53.08l4.83-7.39-4.83-3.47-6.77-.88,1-7.86,2.41-6-4.85-3.94,2.43-2.61,3.4-3,3.83,3-.46-6.1-3.37-15.19-4.86-.45,3.88,9.58-6.29.42-5.32-16.54c-.07-.76-1.44-15.21-1.44-17s-7.34-13.32-7.73-13.93l1.92-7.83,2.44-38.71-5.8-19.18-2-67-6.75-31.75c-2-1.27-39.49-25.57-44.9-29.16-.36-.25-17.38-31.11-18.28-32.73-2.44-3.47-9.71-12.42-12.31-16l-12.7-22.82c-.3-.21-6.09-4.32-6.86-4.32-1.63-2.57-5.24-14.64-6.54-17.84l4.68-6.19,6.54-6.23L483,695.69l-1.09-7.82,5.11-9.13,3.24-10.45,8.37-2.93.34-7.82,8-4.89,5.82-8.5-.37-26.43-6.53-9.46.37-4.57-5.46-3.9h-5.1L489.93,605l1.76,6.18-6.15,3.27-9.42-7.83L469.59,605,466.33,607l-5.1-5.2c-2.87-2.21-9.31-8.2-12-10.8L443.09,588c.05-.43,1.08-8.5-.36-9.46s-7.65-8.12-8-8.5l-1.82-7.49H426L411.51,558l-14.15-3.25L383.57,540.4l-9.06-3.94-14.17,3.94-12-2.62L324.4,527l-6.52-5.86-3.62.65-22.15-14.7-2.18-7.83,4-5.53.37-11.43-26.47-28.4,2.16-8.82L256.22,427.8c-.13-.39-2.55-7.83-2.55-9.13S252,405.59,251.86,405l-10.53-2-2.57,13.38c.26.32,5.09,6.49,4.4,7.49S248,435.4,248.24,436c.31.74,6.16,14.69,5.8,16.65,1.06,7.22,7.32,15.83,10.16,21.86L258,480l-1.09-4.56-6.55-9.14-6.88-4.88,2.56-9.15-6.55-6.84-11.62-10.76,7.24-4.58L228.62,418l-2.18-26.75-4-6.52-15.24-8.49c-.22-1.78-4.38-35.57-5.06-36.21s2-5.62,2.13-5.88l-1.81-7.52L213,316.22l3.6-12.11L238,281.93l9.09-20.22,4-4.58c-.6-.53-12-10.77-13.08-11.75s.3-8.09.37-8.46c.37.1,7.45,2.14,9.59,2.14.57-1.17-.09-7.05-.13-7.36l-.74-17.31L250.36,204l-13.05,1.31c.28-6.81,1-22,2.18-28.73l-7.27-9.79c-1.21-.17-24.28-3.29-24.28-4.26s-11.63-3.89-10.9-4.88c-1.25-.15-8.32,2.78-8.69,2.93l-11.26,4.26-28,4.89c1-.58,19.6-11.75,20-12.75-2-.08-18.39,5.9-19.25,6.22-.66.08-13.06,1.64-14.49,2s3.6,2.93,4.36,3.92-7.56,6.26-8,6.54c-1,.3-20.75,6-24.46,6-3.3-.57-7,.8-7.83.8-1.09,0-18.52,8.17-18.89,9.14-17,6.5-44.75,12.2-62.74,15.69-1.11,0-17,2.47-17.8,2.6.54-.27,10.87-5.32,13-5.32,3.77.13,87.42-28.95,87.42-29.6s-4.33,0-5.07-1.31-10-1.32-10.54-1.32l-8.35.35,7.27-8.82L71,165.75l.72-6.53,6.51-8.8,17.08-8.82c.56-.12,11.22-2.46,14.39-2.46,2.65.34,8.51-2.9,8.82-3.07a27.74,27.74,0,0,1,5-.71l12.73-.29c.15-.38,2.91-7.48,2.91-8.47-1.46-.19-5.25,1.84-5.45,2-5.37-.64-16-1.48-21.41-2l2.56-4.24-.77-3.6,37.05-9.13-3.65,4.57h7.27l6.9-1.31c-.11-.33-2.17-6.51-2.55-7.51s-1-6.55-1.07-6.84l25-4.56,38.09-11.11c1.42-.22,28.37-4.29,31.93-5.64-.73,1.73,9.42,4,8.34,4.34s14.75,2.5,15.58,2.62l29.05,4.27,15.61-.66,14.14,2.6L342.82,95l17.4-1,9.11-3.91c.32.13,6.51,2.64,8.41,2.64,1.73-.35,30-5.62,31.48-5.9l8-3.26,3.26,6.85,11.63-4.22,1.46,4.89,13.05-1.64,11.6,3.25L474.54,95l9.06,3.93-13.06,5.22c.14,0,8.71-.63,8.36.66,5.25.36,14.72-1.23,15.22-1.31l18.88,1,.73-4.56c.81-.23,16.31-4.56,17.8-4.56s6.14,3.25,6.14,4.89,12.06,3.19,12.69,3.27l26.54-1.32V95l14.49-5.21c3.29.55,10.41,1.76,13.76,2.28l.74-7.5c3.29-1.61,22.17-12.35,25-14.69.47-.44,9.42-8.79,10.14-10.1,7.6-2.81,22.33-1.1,30.13-1l-18.51,9.45c-.58,0-11.62.66-12.7,1s-6.94,4.66-7.25,4.88l1.81,5.25.37,6.85c0,.32-.64,6.29-.42,6.29,9.59-.8,10.87,6.36,10.93,6.74l-7.25,3.92,1.44,5.22,8.35-2.94,9.82-6.5,8-3.93,2.52-4.89,3.28-2.62c-2.86-.85-13.88-2.15-17-2.61l-.4-7.83c.67-.47,13.43-9.45,14.16-10.43s17.28-5.95,18.15-6.21c.48,0,9.42.34,8.36,1s-8,4.24-8.71,5.23,0,4.7,0,4.9l9.77-6.86,18.9-4.27,4.7,3.28c5.48-2,14.48-.69,20.32-1.62,4.29.26,7,5.41,9.43,7.83.25.29,4.92,5.91,6.34,5.91a54.08,54.08,0,0,1,8.89.27l2.22,4.26,9.06,1.64,5.81,5.21L779.34,93l-5.06,4.22,4.67,4.9,5.12-1.31,6.51,2.94,12,9.49-8.37,1.95c0,.2-.66,3.94-.71,3.94-2.46-.1-8.73.59-9.06.62l-3.29,4.9-6.87-1.3c-.37-.42-7.28-8.49-8-9.8-2-.39-4.24,1.14-5.09,1.64l-2.53,6.2c2,2,5.57,6,7.62,7.82l2.52,4.24-6.53,3.6-2.9,7.18c-.37-.2-7.26-3.94-8.32-4.27-.31-.25-6.19-4.88-8.75-5.54l5.48,9.82c0,.23.79,4.58,1,5.45-.8-.74-9.65-2.74-10.11-2.85l-14.49-4.23-4.72-1.29-5.12-8.83c-.31-.23-6.15-4.58-7.24-6.2a10.38,10.38,0,0,0-7.25,1.29c-1.44,1-10.06,4.08-10.51,4.24L683.17,127l7.62-5.54,4.72-.32,10.14,1.62,9.79-1,.39-5.9c.3-.13,6.17-2.59,7.62-2.93s11.09-5.29,11.6-5.55l-1.47-7.83-9.05.67L716.2,108l-10.9-1.33,3.61-6.5,14.91-1.66,3.62-2.92c-.47-.31-9.43-6.2-10.53-7.83a14.93,14.93,0,0,0-7.27,1c-6.7-.39-20.47-.25-27.22,0l5.46,5.2-8.32,7.18.7,4.22-10.87,6.89-10.89,1.28-5.44,4.92-5.12-3.91-6.14-.68,1.44,3.27,3.29,2.93,14.14,9.12.37,6.21-9.06.32-2.91-2.91-6.56-2-8.33,6.21-8.35,1.3,1.09-3.93-7.62-1,8.35-3.62c3.49-4.4,9.69-8.66,13.41-12l-15.25,7.83-18.14,7.48-8.33.68-5.09,4.88c-2.09,1-41.83,19.29-42.79,19.29-.36,0-14.16,12.69-14.89,13.37l8.69,1.3L543,179.16l.39,6.83,8.69-1,8,3.27,6.53,3.57.73,3.6,9.48,1.31,4.3,4.59L600,202.65l-5.43,8.15L592,218.31l5.83-.35-1.1,4.59a54.37,54.37,0,0,1-7.53-1.31c3.22,4.39,4.9,9.61,6.45,14l6.17-3.92c.44-.17,8.71-3.56,8.34-4.86S615.7,206,616,205l10.13-1.34,20.67-10.76,5.47-11.73c-.29-.26-5.87-5.25-7-5.25,1.53-.91,14-12.11,14.66-12.7l1.79-6.85,8.35-13.07,24,2,3.27-2.94c1.4,0,10.39,8.05,10.87,8.48l12,5.88-6.88,5.85-.76,8.2,8,6.2L735.73,170c.74-.52,14.87-10.45,15.26-11.11,1.37,4.61,3.46,21,5.44,25.78l-4,8.5,5.09,3.58,4,4.91,11.26,4.9,1.48,5.53,4.35,11.07L769.84,233c.12.15,2.29,3.07,3.06,3.32-1,.63-5.43,4.15-6.46,4.77,1,.27,4.68,4.1,4.87,4.3v4.25l12.71-.34-2.92,7.84,3.28,8.48-10.9,7.51-3.28-7.51L764,269.54c0-.23-.34-4.58-1.67-4.58-2.34.42-12.53-.06-12.83,0l-14.89-.66c3.25-4.27,10.35-11.07,14.16-14.67s13.57-12.56,17.8-16l-20.34,7.5-14.14,2.61H690.39l-8.71,7.2L674,252l-18.51,13.37c.3-.19,5.94-3.73,6.81-3.73,1.39.22,13.26-6.08,14.61-6.08L691.11,251c.4.14,7.85,2.7,9.5,2.7-.11.61-5.24,9.86-5.51,10.35l-6.17,7.49,6.53,8.83,14.12.64,8.77-8.48,5.8-2-.73,5.21,2.16,3.93c-.34.1-7,2.08-9.38,2.08-1-.69-4.59,4.82-4.78,5.11l-20,4.89L683.83,296l-10.51,2.6-2.91-6.19,14.18-8.16c-10.62,2.12-35.7,10.8-46.11,14.68L629.41,311l4.35,3.25-3.63,3.59-11.63,2-18.84,5.86-11.27,12.71-5.82-.61-5.75,11.08-5.84,1,.72,12.39-13.42,13L543,383.11l-19.2,12.42-14.9,16.27v7.83l2.54,10.8,1.08,13.38-5.8,14.35-4.7-1.61-7.25-9.15-2.55-11.77,2.55-5.2v-5.56l-3.29-3.24-5.45-5.23L475.92,420,469,413.12l-11.25,1.94L446.2,413.7l-9.08,8.14L428,423.17l-3.64-3.25-14.84-2-38.83,22.83c0,.61-.71,12.11-.4,12.11.15,0-11.34,30.68-11.94,32.29l4.71,16c.49.57,9.79,11.44,9.45,13.07l7.95,3.91,30.85-7.5,6.17-16.33,10.9-3.9,18.13,1-3.62,5.56-6.16,16.3-4.71,8.47c-.15.37-2.93,7.49-2.93,8.48s-4,7.19-4.34,8.15a298.85,298.85,0,0,0,33.74,0l10.89,7.2L467.6,555l-4.35,14.38-.74,13,8,11.1,10.16,6.2,8.34-3.94,14.53-1.6c.62.46,12.33,9.13,13,10.42,1.92.1,11.85-9.89,12.37-10.42,0-.31-.39-6.21.69-6.55s5.59-6.83,5.82-7.17h4.72l10.54-3.59c.44-.23,8.71-4.56,8.71-5.53s6.18-2.54,6.51-2.62l2.18,4.23c-.27.11-5.43,2.28-5.43,3.27V584l-4.37,5.53,6.15,5.91-.7-10.47c.46-.34,9.07-6.84,9.79-7.5s3.49-6.54,3.64-6.85c.21.24,4.34,4.89,4,6.2s11.72,5.63,12.36,5.85l17.76,1,10.55,4.88,2.17-3.89c1.12-.15,22.51-3,23.56-3.25.3,0-8.94,3.69-9.43,3.89L641,589l4.73,1.3,7.29,5.1c0,.22-.48,4.34.45,4.77,4.36,2.18,15.39,6.71,16,7l4.36,9.12,20.32,10,22.24.87,18.4,13.49c.17.87,3.39,17.41,3.88,18.27l7.27,3.92-1.45,9.14L757,678.89v8.27l8.24-6.52c1,.47,20.37,9.33,23.74,9.33,1.08-.39,1.81,8.64.46,10.24.63.41,5.09-2.47,5.32-2.62l16,3.51c.75,0,15,0,16-2.19,2.76-.7,7.43,4.14,9.17,4.82,1,0,20.36,15.22,20.83,16.5S868.52,723.65,868.8,723.71Z"/><path class="cls-1" d="M2314,1030.47c4.67.19,18-2.44,18.9-2.61-.49.72-9.68,14.35-10.16,16.1s-14.26,9.15-15.9,9.15c-1-.41-9.24-1.28-9.76-1.31l4.35-14.39,4.81-13.46v1.31C2307.22,1026.56,2313.64,1030.28,2314,1030.47Z"/><path class="cls-1" d="M1588.28,781.31c1.23,1.16,6,8.8,6.31,13.82-.07,5.15-.39,13-1.15,14.74-.26,3.73-7.79,2-7.1,4,3.14,7.07-2.74,16-5.35,20.85a48.5,48.5,0,0,0-1.44,9.18c-.49,5.19-2.91,7-4.82,13.48s-2.44,6.07-3.88,13.48a67.49,67.49,0,0,1-4.85,14.36c-.46,1.29,1.48,0-1.45,4.36s-3.86,4.75-5.32,5.65c-5.81,2.72-7.71,4-14.51,4.94-1.83,0-5.34-3.58-5.78-3.66-.2-.07-3.88-1.29-5.32-3.45s-5.38-8.72-3.9-10,.55-7.51.5-7.84c-1-2.74,2.59-14.07,6.28-14.8,1.44-.43,4.2-9.11,4.35-9.57v-8.27l-1.91-8.7c-4.89-7.55,3.36-11.21,4.33-16.51-1.44-1.76,3.15-2.18,3.39-2.2l14-5.22c.39-.24,7.72-4.78,8.7-7s7.25-9.13,7.77-10.41,7.84-8.79,8.22-9.18C1585.38,783.38,1587.32,781.31,1588.28,781.31Z"/><path class="cls-1" d="M1284.52,769.17l223.65-3c1.14,3.93,4.48,13,4.58,13.36l-1.7,32.87-10.18,8.9c-.75.3-15,5.87-16.66,7.39s-5.14,5.44-5.32,5.65l-16,12.82a28.55,28.55,0,0,0-1.69,4.8c0,.89,2.3,6,2.43,6.3,3.91,17.56,3.82,11-.25,28.53-.82.43-16.43,8.68-18.15,9.55s-3.28,5.24-3.36,5.47l.71,8.9-5.06,13.7-9,7c-.86,1-17.26,20.45-17.62,20.45s-18.17,15.5-19.1,16.31l-11.14.66-10.17,4.78-14.52-2c-.44.14-8.78,2.85-10,2.85a68.18,68.18,0,0,0-7.6.85l-6.83,2.82-7.72-3.89-.24-3.93c-.28-.43-5.55-8.71-6.51-10s2.64-1.51,3.35-1.51.29-6.62.26-7l-3.36-4.13A361.6,361.6,0,0,0,1294.53,905l-1.21-26.56c-5.34-11.42-17.09-34.28-23.2-45.25l-1.21-18.27,4.1-13.7,9.45-18.51Z"/></g></g></svg>