<svg xmlns="http://www.w3.org/2000/svg" viewBox="0 0 85.46 60.27"><defs><style>.cls-1{fill:#fff;}.cls-2{fill:none;stroke:#fff;stroke-miterlimit:10;stroke-width:2px;}.cls-3{fill:#006884;}</style></defs><g id="Layer_2" data-name="Layer 2"><g id="Layer_16" data-name="Layer 16"><circle class="cls-1" cx="42.37" cy="50.09" r="3.59"/><circle class="cls-2" cx="42.37" cy="50.09" r="9.18"/><path class="cls-3" d="M72.76,0H12.7A12.4,12.4,0,0,0,0,12.7v.6A12.4,12.4,0,0,0,12.7,26H38L42.5,50.86,47.35,26H72.76a12.77,12.77,0,0,0,12.7-12.7v-.6A12.4,12.4,0,0,0,72.76,0Z"/><path class="cls-1" d="M22.27,18.44H16.66V6.58h3.2v9h2.41Z"/><path class="cls-1" d="M27.68,18.44h-3.2V6.58h3.2Z"/><path class="cls-1" d="M30.34,18.15V14.42a2.61,2.61,0,0,0,2.05,1.29,1,1,0,0,0,.67-.22.66.66,0,0,0,.26-.55,1.26,1.26,0,0,0-.57-.93l-.52-.4a7.08,7.08,0,0,1-.89-.78,4.77,4.77,0,0,1-.6-.8,3.4,3.4,0,0,1-.33-.85,3.46,3.46,0,0,1-.11-.92,4.6,4.6,0,0,1,.38-1.74,4.86,4.86,0,0,1,.45-.77,3.41,3.41,0,0,1,.58-.62,3.26,3.26,0,0,1,2.19-.76,5,5,0,0,1,2.3.6V10.6a3.31,3.31,0,0,0-.89-1,1.73,1.73,0,0,0-1-.35.85.85,0,0,0-.61.22.62.62,0,0,0-.24.5,1.24,1.24,0,0,0,.65.94l.51.38a4.93,4.93,0,0,1,1.45,1.49,3.61,3.61,0,0,1,.44,1.8,4.06,4.06,0,0,1-1.06,2.89,3.56,3.56,0,0,1-2.71,1.13A6.78,6.78,0,0,1,30.34,18.15Z"/><path class="cls-1" d="M39,18.44V6.58h3.73a4.47,4.47,0,0,1,3.09.92,3.19,3.19,0,0,1,1,2.44,2.16,2.16,0,0,1-2.21,2.42,3,3,0,0,1,1.85.82A2.68,2.68,0,0,1,47.11,15a3.22,3.22,0,0,1-1,2.46,3.59,3.59,0,0,1-2.59.94Zm3.2-7.25h.22a1.41,1.41,0,0,0,.91-.27.92.92,0,0,0,.33-.75c0-.69-.37-1-1.12-1h-.34Zm0,4.67.17,0h.11a1.4,1.4,0,0,0,1-.31,1.07,1.07,0,0,0,.35-.85,1,1,0,0,0-.35-.83,1.49,1.49,0,0,0-1-.3h-.26Z"/><path class="cls-1" d="M58.4,12.55A7.31,7.31,0,0,1,57.16,17,3.79,3.79,0,0,1,54,18.64a4,4,0,0,1-3-1.29,6.88,6.88,0,0,1-1.57-4.93A6.56,6.56,0,0,1,51,7.6a3.93,3.93,0,0,1,2.89-1.23A3.82,3.82,0,0,1,57.19,8,7.53,7.53,0,0,1,58.4,12.55Zm-3.32,0c0-2.14-.38-3.22-1.14-3.22-.38,0-.68.28-.91.85a6.18,6.18,0,0,0-.33,2.3A7,7,0,0,0,53,14.82c.21.55.5.83.87.83s.67-.27.87-.81A6.26,6.26,0,0,0,55.08,12.57Z"/><path class="cls-1" d="M61,18.44V6.58h3l1.61,4.16c.08.25.18.53.29.85s.23.68.37,1.1l.33,1q-.18-1.55-.27-2.64c-.06-.73-.09-1.35-.09-1.84V6.58h3.05V18.44H66.32L64.7,14.08c-.16-.47-.32-.91-.45-1.31S64,12,63.89,11.6c.07.84.11,1.56.15,2.18s0,1.17,0,1.63v3Z"/></g></g></svg>