<svg xmlns="http://www.w3.org/2000/svg" viewBox="0 0 85.46 60.27"><defs><style>.cls-1{fill:#fff;}.cls-2{fill:none;stroke:#fff;stroke-miterlimit:10;stroke-width:2px;}.cls-3{fill:#006884;}</style></defs><g id="Layer_2" data-name="Layer 2"><g id="Layer_16" data-name="Layer 16"><circle class="cls-1" cx="42.37" cy="50.09" r="3.59"/><circle class="cls-2" cx="42.37" cy="50.09" r="9.18"/><path class="cls-3" d="M72.76,0H12.7A12.4,12.4,0,0,0,0,12.7v.6A12.4,12.4,0,0,0,12.7,26H38L42.5,50.86,47.35,26H72.76a12.77,12.77,0,0,0,12.7-12.7v-.6A12.4,12.4,0,0,0,72.76,0Z"/><path class="cls-1" d="M17.27,18.44H11.66V6.58h3.2v9h2.41Z"/><path class="cls-1" d="M28.15,12.55A7.31,7.31,0,0,1,26.91,17a3.8,3.8,0,0,1-3.2,1.68,4,4,0,0,1-3-1.29,6.89,6.89,0,0,1-1.58-4.93A6.57,6.57,0,0,1,20.78,7.6a3.92,3.92,0,0,1,2.89-1.23A3.81,3.81,0,0,1,26.93,8,7.54,7.54,0,0,1,28.15,12.55Zm-3.33,0c0-2.14-.38-3.22-1.13-3.22-.38,0-.69.28-.91.85a6.18,6.18,0,0,0-.33,2.3,6.75,6.75,0,0,0,.31,2.32c.21.55.5.83.86.83s.67-.27.88-.81A6.52,6.52,0,0,0,24.82,12.57Z"/><path class="cls-1" d="M30.77,18.44V6.58h3.06l1.6,4.16.3.85c.11.31.23.68.37,1.1l.33,1q-.18-1.55-.27-2.64c-.06-.73-.1-1.35-.1-1.84V6.58h3.06V18.44H36.06l-1.61-4.36c-.17-.47-.32-.91-.46-1.31s-.25-.8-.35-1.17c.06.84.11,1.56.14,2.18s0,1.17,0,1.63v3Z"/><path class="cls-1" d="M42,18.44V6.58H44.8a5.09,5.09,0,0,1,3.69,1.28,6.14,6.14,0,0,1,1.74,4.66,6.5,6.5,0,0,1-1.47,4.55A4.8,4.8,0,0,1,45,18.44Zm3.2-2.87c1.15-.05,1.72-1,1.72-3a4.79,4.79,0,0,0-.44-2.24,1.3,1.3,0,0,0-1.18-.83h-.1Z"/><path class="cls-1" d="M61.57,12.55A7.31,7.31,0,0,1,60.33,17a3.77,3.77,0,0,1-3.2,1.68,4,4,0,0,1-3-1.29,6.88,6.88,0,0,1-1.57-4.93A6.56,6.56,0,0,1,54.2,7.6a3.93,3.93,0,0,1,2.89-1.23A3.82,3.82,0,0,1,60.36,8,7.53,7.53,0,0,1,61.57,12.55Zm-3.32,0c0-2.14-.38-3.22-1.14-3.22-.38,0-.68.28-.91.85a6.18,6.18,0,0,0-.33,2.3,7,7,0,0,0,.31,2.32c.21.55.5.83.87.83s.67-.27.87-.81A6.26,6.26,0,0,0,58.25,12.57Z"/><path class="cls-1" d="M64.2,18.44V6.58h3l1.61,4.16c.09.25.18.53.29.85s.24.68.37,1.1l.33,1q-.18-1.55-.27-2.64c-.06-.73-.09-1.35-.09-1.84V6.58h3.05V18.44H69.49l-1.61-4.36c-.17-.47-.33-.91-.46-1.31s-.26-.8-.36-1.17c.07.84.12,1.56.15,2.18s0,1.17,0,1.63v3Z"/></g></g></svg>