<?xml version="1.0" encoding="UTF-8"?><svg id="Layer_2" xmlns="http://www.w3.org/2000/svg" viewBox="0 0 99.47 59.09"><defs><style>.cls-1{fill:#006884;}.cls-2{fill:#fff;}.cls-3{fill:#3f0;}.cls-4{fill:none;stroke:#3f0;stroke-miterlimit:10;stroke-width:2px;}</style></defs><g id="Layer_1-2"><circle class="cls-3" cx="49.73" cy="48.91" r="3.59"/><circle class="cls-4" cx="49.73" cy="48.91" r="9.18"/><g><path class="cls-1" d="M86.76,0H12.7C5.86-.16,.17,5.25,0,12.1c0,.2,0,.4,0,.61v.6c-.17,6.85,5.25,12.53,12.09,12.7,.2,0,.4,0,.61,0H45l4.5,24.86,4.85-24.86h32.41c7-.04,12.66-5.7,12.7-12.7v-.6C99.63,5.86,94.22,.17,87.37,0c-.2,0-.4,0-.61,0Z"/><g><path class="cls-2" d="M8.39,7.94v7.28h2.91v2.06H5.97V7.94h2.42Z"/><path class="cls-2" d="M20.45,16.11c-.95,.91-2.3,1.39-3.68,1.39s-2.73-.48-3.68-1.39c-1-.95-1.47-2.25-1.47-3.49s.48-2.56,1.47-3.5c.95-.91,2.3-1.39,3.68-1.39s2.73,.48,3.68,1.39c.99,.94,1.47,2.26,1.47,3.5s-.48,2.54-1.47,3.49Zm-5.58-5.28c-.5,.49-.74,1.18-.74,1.83,0,.83,.39,1.4,.74,1.74,.45,.43,1.08,.74,1.89,.74s1.44-.29,1.88-.73c.43-.43,.76-1.08,.76-1.79s-.32-1.37-.76-1.79c-.52-.49-1.23-.74-1.88-.74s-1.39,.24-1.89,.74Z"/><path class="cls-2" d="M24.07,14.49c.52,.49,1.3,.95,2.14,.95,.49,0,.78-.15,.94-.32,.14-.14,.24-.35,.24-.59,0-.18-.07-.39-.27-.56-.24-.21-.6-.31-1.2-.49l-.63-.2c-.39-.13-.97-.34-1.34-.76-.48-.52-.53-1.18-.53-1.65,0-1.15,.45-1.85,.85-2.25,.48-.48,1.26-.88,2.4-.88,.92,0,2,.29,2.89,.76l-.97,1.89c-.73-.57-1.27-.63-1.6-.63-.24,0-.56,.06-.8,.28-.14,.14-.24,.29-.24,.5,0,.17,.03,.29,.13,.42,.07,.08,.24,.25,.81,.42l.74,.22c.59,.18,1.21,.39,1.7,.92,.48,.5,.6,1.02,.6,1.67,0,.85-.21,1.68-.88,2.35-.8,.8-1.76,.95-2.76,.95-.59,0-1.15-.06-1.84-.31-.15-.06-.74-.28-1.41-.74l1.04-1.96Z"/><path class="cls-2" d="M40.41,15.72h-3.39l-.63,1.57h-2.56l3.59-9.34h2.65l3.52,9.34h-2.59l-.57-1.57Zm-.64-1.85l-1.05-3.03-1.02,3.03h2.07Z"/><path class="cls-2" d="M44.65,17.29V7.94h2.42l4.47,5.72V7.94h2.42v9.34h-2.42l-4.47-5.71v5.71h-2.42Z"/><path class="cls-2" d="M60.4,11.99h4.82c0,1.85-.38,3.17-1.5,4.2-.98,.91-2.1,1.18-3.29,1.18-1.68,0-2.83-.62-3.59-1.39-.7-.7-1.34-1.83-1.34-3.38s.59-2.7,1.4-3.5c.77-.77,1.98-1.37,3.63-1.37,.87,0,1.81,.2,2.52,.63,.73,.45,1.33,1.19,1.67,1.92l-2.31,.95c-.17-.43-.43-.74-.67-.94-.41-.34-.84-.46-1.3-.46-.57,0-1.16,.21-1.6,.64-.55,.55-.81,1.41-.81,2.14,0,.85,.31,1.55,.74,2.02,.45,.48,.99,.71,1.71,.71,.42,0,.91-.07,1.34-.43,.22-.18,.49-.52,.57-1.04h-1.99v-1.89Z"/><path class="cls-2" d="M72.06,10h-2.88v1.55h2.73v2.06h-2.73v1.61h2.88v2.06h-5.31V7.94h5.31v2.06Z"/><path class="cls-2" d="M76.03,7.94v7.28h2.91v2.06h-5.34V7.94h2.42Z"/><path class="cls-2" d="M85.49,10h-2.88v1.55h2.73v2.06h-2.73v1.61h2.88v2.06h-5.31V7.94h5.31v2.06Z"/><path class="cls-2" d="M87.64,14.49c.52,.49,1.3,.95,2.14,.95,.49,0,.78-.15,.94-.32,.14-.14,.24-.35,.24-.59,0-.18-.07-.39-.27-.56-.24-.21-.6-.31-1.2-.49l-.63-.2c-.39-.13-.97-.34-1.34-.76-.48-.52-.53-1.18-.53-1.65,0-1.15,.45-1.85,.85-2.25,.48-.48,1.26-.88,2.4-.88,.92,0,2,.29,2.89,.76l-.97,1.89c-.73-.57-1.27-.63-1.6-.63-.24,0-.56,.06-.8,.28-.14,.14-.24,.29-.24,.5,0,.17,.03,.29,.13,.42,.07,.08,.24,.25,.81,.42l.74,.22c.59,.18,1.21,.39,1.7,.92,.48,.5,.6,1.02,.6,1.67,0,.85-.21,1.68-.88,2.35-.8,.8-1.76,.95-2.76,.95-.59,0-1.15-.06-1.84-.31-.15-.06-.74-.28-1.41-.74l1.04-1.96Z"/></g></g></g></svg>