<?xml version="1.0" encoding="UTF-8"?><svg id="Layer_2" xmlns="http://www.w3.org/2000/svg" viewBox="0 0 85.47 59.09"><defs><style>.cls-1{fill:#006884;}.cls-2{fill:#fff;}.cls-3{fill:none;stroke:#fff;stroke-miterlimit:10;stroke-width:2px;}</style></defs><g id="Layer_1-2"><circle class="cls-2" cx="42.73" cy="48.91" r="3.59"/><circle class="cls-3" cx="42.73" cy="48.91" r="9.18"/><g><path class="cls-1" d="M72.76,0H12.7C5.86-.16,.17,5.25,0,12.1c0,.2,0,.4,0,.61v.6c-.17,6.85,5.25,12.53,12.09,12.7,.2,0,.4,0,.61,0h25.3l4.5,24.86,4.85-24.86h25.41c7-.04,12.66-5.7,12.7-12.7v-.6C85.63,5.86,80.22,.17,73.37,0c-.2,0-.4,0-.61,0Z"/><g><path class="cls-2" d="M12.93,17.17V7.83h2.42l4.47,5.71V7.83h2.42v9.34h-2.42l-4.47-5.71v5.71h-2.42Z"/><path class="cls-2" d="M29.9,15.61h-3.39l-.63,1.57h-2.56l3.59-9.34h2.65l3.52,9.34h-2.59l-.57-1.57Zm-.64-1.85l-1.05-3.03-1.02,3.03h2.07Z"/><path class="cls-2" d="M38.34,11.88h4.82c0,1.85-.38,3.17-1.5,4.2-.98,.91-2.1,1.18-3.29,1.18-1.68,0-2.83-.62-3.59-1.39-.7-.7-1.34-1.83-1.34-3.38s.59-2.7,1.4-3.5c.77-.77,1.98-1.37,3.63-1.37,.87,0,1.81,.2,2.52,.63,.73,.45,1.33,1.19,1.67,1.92l-2.31,.95c-.17-.43-.43-.74-.67-.94-.41-.34-.84-.46-1.3-.46-.57,0-1.16,.21-1.6,.64-.55,.55-.81,1.42-.81,2.14,0,.85,.31,1.55,.74,2.02,.45,.48,.99,.71,1.71,.71,.42,0,.91-.07,1.34-.43,.22-.18,.49-.52,.57-1.04h-1.99v-1.89Z"/><path class="cls-2" d="M53.11,16c-.95,.91-2.3,1.39-3.68,1.39s-2.73-.48-3.68-1.39c-.99-.95-1.47-2.25-1.47-3.49s.48-2.56,1.47-3.5c.95-.91,2.3-1.39,3.68-1.39s2.73,.48,3.68,1.39c.99,.94,1.47,2.25,1.47,3.5s-.48,2.54-1.47,3.49Zm-5.58-5.28c-.5,.49-.74,1.18-.74,1.83,0,.83,.39,1.4,.74,1.74,.45,.43,1.08,.74,1.89,.74s1.44-.29,1.88-.73c.43-.43,.76-1.08,.76-1.79s-.32-1.37-.76-1.79c-.52-.49-1.23-.74-1.88-.74s-1.39,.24-1.89,.74Z"/><path class="cls-2" d="M57.82,12.69l-3.38-4.86h2.9l1.77,2.55,1.69-2.55h2.94l-3.49,4.86v4.48h-2.44v-4.48Z"/><path class="cls-2" d="M69.38,15.61h-3.39l-.63,1.57h-2.56l3.59-9.34h2.65l3.52,9.34h-2.59l-.57-1.57Zm-.64-1.85l-1.05-3.03-1.02,3.03h2.07Z"/></g></g></g></svg>