<svg xmlns="http://www.w3.org/2000/svg" viewBox="0 0 85.46 60.55"><defs><style>.cls-1{fill:#fff;}.cls-2{fill:none;stroke:#fff;stroke-miterlimit:10;stroke-width:2px;}.cls-3{fill:#006884;}</style></defs><g id="Layer_2" data-name="Layer 2"><g id="Layer_16" data-name="Layer 16"><circle class="cls-1" cx="42.63" cy="50.38" r="3.59"/><circle class="cls-2" cx="42.63" cy="50.38" r="9.18"/><path class="cls-3" d="M72.76,0H12.7A12.4,12.4,0,0,0,0,12.7v.6A12.4,12.4,0,0,0,12.7,26H38L42.5,50.86,47.35,26H72.76a12.77,12.77,0,0,0,12.7-12.7v-.6A12.4,12.4,0,0,0,72.76,0Z"/><path class="cls-1" d="M7.54,18V9H9.9l4.34,5.53V9h2.34V18H14.24L9.9,12.48V18Z"/><path class="cls-1" d="M19.38,13.49a4.64,4.64,0,0,1,3-4.41,5.27,5.27,0,0,1,2-.37,5.34,5.34,0,0,1,2,.37,4.85,4.85,0,0,1,1.59,1,4.55,4.55,0,0,1,1,1.52,4.71,4.71,0,0,1,.38,1.88A4.66,4.66,0,0,1,29,15.36a4.45,4.45,0,0,1-1,1.52,4.87,4.87,0,0,1-1.59,1,5.54,5.54,0,0,1-2,.36,5.46,5.46,0,0,1-2-.36,4.73,4.73,0,0,1-1.58-1,4.59,4.59,0,0,1-1-1.52A4.66,4.66,0,0,1,19.38,13.49Zm2.46,0a2.31,2.31,0,0,0,.2,1,2.65,2.65,0,0,0,.55.8,2.62,2.62,0,0,0,.81.52,2.76,2.76,0,0,0,2,0,2.62,2.62,0,0,0,.81-.52,2.36,2.36,0,0,0,.56-.8,2.31,2.31,0,0,0,.21-1,2.39,2.39,0,0,0-.21-1,2.32,2.32,0,0,0-.56-.79,2.45,2.45,0,0,0-.81-.52,2.62,2.62,0,0,0-2,0,2.45,2.45,0,0,0-.81.52,2.61,2.61,0,0,0-.55.79A2.38,2.38,0,0,0,21.84,13.49Z"/><path class="cls-1" d="M39.61,18H36.68l-2.24-3.48V18H32.08V9h3.66a3.72,3.72,0,0,1,1.32.22,2.47,2.47,0,0,1,.93.61,2.58,2.58,0,0,1,.56.89,3.14,3.14,0,0,1,.18,1.08,2.58,2.58,0,0,1-.5,1.67,2.48,2.48,0,0,1-1.47.87Zm-5.17-5h.44A1.75,1.75,0,0,0,36,12.72a1,1,0,0,0,.37-.83,1,1,0,0,0-.37-.83,1.75,1.75,0,0,0-1.07-.28h-.44Z"/><path class="cls-1" d="M47,11H44.14v1.52h2.58v2H44.14V18H41.79V9H47Z"/><path class="cls-1" d="M49.16,13.49a4.64,4.64,0,0,1,3-4.41,5.7,5.7,0,0,1,4,0,4.65,4.65,0,0,1,1.59,1,4.66,4.66,0,0,1,1.41,3.4,4.68,4.68,0,0,1-3,4.41,5.85,5.85,0,0,1-4,0,4.73,4.73,0,0,1-1.58-1,4.59,4.59,0,0,1-1-1.52A4.66,4.66,0,0,1,49.16,13.49Zm2.46,0a2.47,2.47,0,0,0,.2,1,2.51,2.51,0,0,0,.56.8,2.53,2.53,0,0,0,1.78.7,2.67,2.67,0,0,0,1-.18,2.79,2.79,0,0,0,.82-.52,2.68,2.68,0,0,0,.56-.8,2.47,2.47,0,0,0,.2-1,2.55,2.55,0,0,0-.2-1A2.63,2.63,0,0,0,56,11.7a2.6,2.6,0,0,0-.82-.52,2.48,2.48,0,0,0-1-.19,2.6,2.6,0,0,0-1.78.71,2.47,2.47,0,0,0-.56.79A2.55,2.55,0,0,0,51.62,13.49Z"/><path class="cls-1" d="M64.22,9V16H67v2H61.87V9Z"/><path class="cls-1" d="M71.8,12.7,74.67,9h2.91L74,13.25,77.91,18h-3L71.8,14.09V18H69.45V9H71.8Z"/></g></g></svg>