<?xml version="1.0" encoding="UTF-8"?><svg id="Layer_2" xmlns="http://www.w3.org/2000/svg" viewBox="0 0 91.47 59.09"><defs><style>.cls-1{fill:#006884;}.cls-2{fill:#fff;}.cls-3{fill:#3f0;}.cls-4{fill:none;stroke:#3f0;stroke-miterlimit:10;stroke-width:2px;}</style></defs><g id="Layer_1-2"><circle class="cls-3" cx="45.73" cy="48.91" r="3.59"/><circle class="cls-4" cx="45.73" cy="48.91" r="9.18"/><g><path class="cls-1" d="M78.76,0H12.7C5.86-.16,.17,5.25,0,12.1c0,.2,0,.4,0,.61v.6c-.17,6.85,5.25,12.53,12.09,12.7,.2,0,.4,0,.61,0h28.3l4.5,24.86,4.85-24.86h28.41c7-.04,12.66-5.7,12.7-12.7v-.6C91.63,5.86,86.22,.17,79.37,0c-.2,0-.4,0-.61,0Z"/><g><path class="cls-2" d="M9.48,7.83c.7,0,1.6,.11,2.28,.83,.53,.55,.8,1.36,.8,2.1,0,.8-.28,1.5-.74,1.95-.36,.35-.85,.56-1.29,.64l2.93,3.82h-3.01l-2.33-3.59v3.59h-2.42V7.83h3.78Zm-1.36,4.19h.46c.36,0,.88-.1,1.18-.38,.18-.18,.31-.49,.31-.78s-.11-.59-.32-.78c-.22-.22-.63-.36-1.16-.36h-.46v2.31Z"/><path class="cls-2" d="M22.89,16c-.95,.91-2.3,1.39-3.68,1.39s-2.73-.48-3.68-1.39c-1-.95-1.47-2.25-1.47-3.49s.48-2.56,1.47-3.5c.95-.91,2.3-1.39,3.68-1.39s2.73,.48,3.68,1.39c1,.94,1.47,2.25,1.47,3.5s-.48,2.54-1.47,3.49Zm-5.57-5.28c-.5,.49-.74,1.18-.74,1.83,0,.83,.39,1.4,.74,1.74,.45,.43,1.08,.74,1.89,.74s1.44-.29,1.88-.73c.43-.43,.76-1.08,.76-1.79s-.32-1.37-.76-1.79c-.52-.49-1.23-.74-1.88-.74s-1.39,.24-1.89,.74Z"/><path class="cls-2" d="M29.43,9.89v7.28h-2.42v-7.28h-1.99v-2.06h6.4v2.06h-1.99Z"/><path class="cls-2" d="M36.65,9.89v7.28h-2.42v-7.28h-1.99v-2.06h6.4v2.06h-1.99Z"/><path class="cls-2" d="M45.03,9.89h-2.89v1.55h2.73v2.06h-2.73v1.61h2.89v2.06h-5.31V7.83h5.31v2.06Z"/><path class="cls-2" d="M50.35,7.83c.7,0,1.6,.11,2.28,.83,.53,.55,.8,1.36,.8,2.1,0,.8-.28,1.5-.74,1.95-.36,.35-.85,.56-1.29,.64l2.93,3.82h-3.01l-2.33-3.59v3.59h-2.42V7.83h3.78Zm-1.36,4.19h.46c.36,0,.88-.1,1.18-.38,.18-.18,.31-.49,.31-.78s-.11-.59-.32-.78c-.22-.22-.63-.36-1.16-.36h-.46v2.31Z"/><path class="cls-2" d="M55.34,17.17V7.83h3.18c.94,0,2.51,.13,3.71,1.29,1.09,1.05,1.3,2.39,1.3,3.4,0,1.23-.31,2.33-1.22,3.24-.74,.74-1.99,1.41-3.59,1.41h-3.39Zm2.42-2.06h.49c.59,0,1.42-.06,2.04-.67,.31-.29,.71-.88,.71-1.92,0-.87-.27-1.61-.73-2.04-.57-.53-1.33-.59-1.93-.59h-.59v5.22Z"/><path class="cls-2" d="M70.25,15.61h-3.39l-.63,1.57h-2.56l3.59-9.34h2.65l3.52,9.34h-2.59l-.57-1.57Zm-.64-1.85l-1.05-3.03-1.02,3.03h2.07Z"/><path class="cls-2" d="M74.07,17.17l1.58-9.34h2.4l1.89,4.99,2-4.99h2.42l1.4,9.34h-2.42l-.69-5.38-2.25,5.38h-.97l-2.16-5.38-.8,5.38h-2.41Z"/></g></g></g></svg>