<svg xmlns="http://www.w3.org/2000/svg" viewBox="0 0 115.46 60.46"><defs><style>.cls-1{fill:#3f0;}.cls-2{fill:none;stroke:#3f0;stroke-miterlimit:10;stroke-width:2px;}.cls-3{fill:#006884;}.cls-4{fill:#fff;}</style></defs><g id="Layer_2" data-name="Layer 2"><g id="Layer_16" data-name="Layer 16"><circle class="cls-1" cx="58.34" cy="50.28" r="3.59"/><circle class="cls-2" cx="58.34" cy="50.28" r="9.18"/><path class="cls-3" d="M102.76,0H12.7A12.4,12.4,0,0,0,0,12.7v.6A12.4,12.4,0,0,0,12.7,26H54L58.5,50.86,63.35,26h39.41a12.77,12.77,0,0,0,12.7-12.7v-.6A12.4,12.4,0,0,0,102.76,0Z"/><path class="cls-4" d="M15,11.15a3,3,0,0,0-.77-.46,2.09,2.09,0,0,0-.75-.15,1.22,1.22,0,0,0-.74.21.7.7,0,0,0-.29.57.53.53,0,0,0,.15.39,1,1,0,0,0,.37.27,2.77,2.77,0,0,0,.53.2l.58.18a3.67,3.67,0,0,1,1.69,1,2.5,2.5,0,0,1,.53,1.67A3.15,3.15,0,0,1,16,16.32a2.66,2.66,0,0,1-.68,1,3.14,3.14,0,0,1-1.11.62,4.52,4.52,0,0,1-1.48.22,5.47,5.47,0,0,1-3.18-1l1-1.89a4.07,4.07,0,0,0,1,.69,2.39,2.39,0,0,0,1,.23,1.24,1.24,0,0,0,.86-.26.81.81,0,0,0,.28-.6.8.8,0,0,0-.07-.36.76.76,0,0,0-.24-.27,2,2,0,0,0-.44-.24l-.65-.24c-.31-.09-.6-.2-.9-.31a2.8,2.8,0,0,1-.78-.47,2.22,2.22,0,0,1-.55-.72A2.56,2.56,0,0,1,10,11.56a3.36,3.36,0,0,1,.22-1.22,2.78,2.78,0,0,1,.63-.94,2.7,2.7,0,0,1,1-.6,3.58,3.58,0,0,1,1.3-.22,5.48,5.48,0,0,1,1.41.19,6.14,6.14,0,0,1,1.4.54Z"/><path class="cls-4" d="M23.13,16.31H19.77l-.54,1.57H16.72l3.44-9h2.57l3.44,9h-2.5Zm-.63-1.79-1.06-3-1.05,3Z"/><path class="cls-4" d="M27.21,17.88v-9h2.35l4.34,5.54V8.83h2.34v9H33.9l-4.34-5.53v5.53Z"/><path class="cls-4" d="M47.4,10.83H44.57v1.51h2.58v2H44.57v3.55H42.22v-9H47.4Z"/><path class="cls-4" d="M56.33,17.88H53.4L51.16,14.4v3.48H48.81v-9h3.66a3.48,3.48,0,0,1,1.31.23,2.58,2.58,0,0,1,.94.6,2.72,2.72,0,0,1,.55.89,3.22,3.22,0,0,1,.18,1.08A2.58,2.58,0,0,1,55,13.3a2.48,2.48,0,0,1-1.47.87Zm-5.17-5h.44a1.73,1.73,0,0,0,1.07-.29,1,1,0,0,0,.37-.83,1,1,0,0,0-.37-.83,1.73,1.73,0,0,0-1.07-.28h-.44Z"/><path class="cls-4" d="M62.86,16.31H59.5L59,17.88H56.45l3.44-9h2.57l3.44,9H63.4Zm-.63-1.79-1-3-1.06,3Z"/><path class="cls-4" d="M66.94,17.88v-9h2.35l4.34,5.54V8.83H76v9H73.63l-4.34-5.53v5.53Z"/><path class="cls-4" d="M84.5,11.86a2.48,2.48,0,0,0-2-1,2.63,2.63,0,0,0-1,.19,2.35,2.35,0,0,0-.77.53,2.29,2.29,0,0,0-.51.78,2.5,2.5,0,0,0-.19,1,2.46,2.46,0,0,0,.19,1,2.24,2.24,0,0,0,.51.79,2.35,2.35,0,0,0,.78.53,2.32,2.32,0,0,0,1,.19,2.71,2.71,0,0,0,2-1v2.79l-.24.08a6.66,6.66,0,0,1-1,.28,5,5,0,0,1-.93.09,4.57,4.57,0,0,1-1.79-.35A4.83,4.83,0,0,1,78,15.26a4.57,4.57,0,0,1-.4-1.93A4.63,4.63,0,0,1,78,11.42a4.85,4.85,0,0,1,1-1.5,4.78,4.78,0,0,1,1.52-1,4.68,4.68,0,0,1,1.81-.36,4.81,4.81,0,0,1,1.07.12,6,6,0,0,1,1.09.35Z"/><path class="cls-4" d="M88.34,8.83v9H86v-9Z"/><path class="cls-4" d="M95.21,11.15a2.85,2.85,0,0,0-.77-.46,2,2,0,0,0-.74-.15,1.23,1.23,0,0,0-.75.21.7.7,0,0,0-.29.57.53.53,0,0,0,.15.39,1,1,0,0,0,.38.27,2.45,2.45,0,0,0,.52.2l.59.18a3.58,3.58,0,0,1,1.68,1,2.5,2.5,0,0,1,.54,1.67,3.15,3.15,0,0,1-.24,1.26,2.55,2.55,0,0,1-.68,1,3.14,3.14,0,0,1-1.11.62,4.47,4.47,0,0,1-1.48.22,5.47,5.47,0,0,1-3.18-1l1-1.89a4.07,4.07,0,0,0,1,.69,2.43,2.43,0,0,0,1,.23,1.24,1.24,0,0,0,.86-.26.81.81,0,0,0,.28-.6.8.8,0,0,0-.07-.36.76.76,0,0,0-.24-.27,2,2,0,0,0-.44-.24l-.65-.24c-.3-.09-.6-.2-.89-.31a2.54,2.54,0,0,1-.78-.47,2.12,2.12,0,0,1-.56-.72,2.71,2.71,0,0,1-.21-1.11,3.16,3.16,0,0,1,.23-1.22,2.61,2.61,0,0,1,.62-.94,2.78,2.78,0,0,1,1-.6,3.64,3.64,0,0,1,1.31-.22,5.47,5.47,0,0,1,1.4.19,5.8,5.8,0,0,1,1.4.54Z"/><path class="cls-4" d="M97.58,13.36A4.71,4.71,0,0,1,98,11.48,4.55,4.55,0,0,1,99,10a4.61,4.61,0,0,1,1.58-1,5.67,5.67,0,0,1,4,0,4.65,4.65,0,0,1,1.59,1,4.57,4.57,0,0,1,1,1.52,5,5,0,0,1,0,3.76,4.53,4.53,0,0,1-1,1.51,4.67,4.67,0,0,1-1.59,1,5.82,5.82,0,0,1-4,0,4.63,4.63,0,0,1-1.58-1,4.51,4.51,0,0,1-1-1.51A4.71,4.71,0,0,1,97.58,13.36Zm2.46,0a2.31,2.31,0,0,0,.21,1,2.48,2.48,0,0,0,.55.8,2.62,2.62,0,0,0,.81.52,2.67,2.67,0,0,0,1,.18,2.7,2.7,0,0,0,1-.18,2.74,2.74,0,0,0,.81-.52,2.51,2.51,0,0,0,.56-.8,2.31,2.31,0,0,0,.2-1,2.38,2.38,0,0,0-.2-1,2.47,2.47,0,0,0-.56-.79,2.55,2.55,0,0,0-.81-.52,2.52,2.52,0,0,0-1-.19,2.48,2.48,0,0,0-1,.19,2.47,2.47,0,0,0-1.36,1.31A2.39,2.39,0,0,0,100,13.36Z"/></g></g></svg>