<svg xmlns="http://www.w3.org/2000/svg" viewBox="0 0 115.46 60.27"><defs><style>.cls-1{fill:#3f0;}.cls-2{fill:none;stroke:#3f0;stroke-miterlimit:10;stroke-width:2px;}.cls-3{fill:#006884;}.cls-4{fill:#fff;}</style></defs><g id="Layer_2" data-name="Layer 2"><g id="Layer_16" data-name="Layer 16"><circle class="cls-1" cx="58.34" cy="50.09" r="3.59"/><circle class="cls-2" cx="58.34" cy="50.09" r="9.18"/><path class="cls-3" d="M102.76,0H12.7A12.4,12.4,0,0,0,0,12.7v.6A12.4,12.4,0,0,0,12.7,26H54L58.5,50.86,63.35,26h39.41a12.77,12.77,0,0,0,12.7-12.7v-.6A12.4,12.4,0,0,0,102.76,0Z"/><path class="cls-4" d="M15.23,11.07a2.71,2.71,0,0,0-.77-.46,2,2,0,0,0-.74-.15,1.22,1.22,0,0,0-.74.21.66.66,0,0,0-.29.57.56.56,0,0,0,.14.39,1.09,1.09,0,0,0,.38.27,3.26,3.26,0,0,0,.53.2l.58.18a3.67,3.67,0,0,1,1.69,1A2.53,2.53,0,0,1,16.54,15a3.4,3.4,0,0,1-.23,1.26,2.69,2.69,0,0,1-.69,1,3.35,3.35,0,0,1-1.1.62,4.56,4.56,0,0,1-1.48.22,5.42,5.42,0,0,1-3.18-1l1-1.89a4.11,4.11,0,0,0,1.05.69,2.52,2.52,0,0,0,1,.23,1.26,1.26,0,0,0,.86-.26.84.84,0,0,0,.28-.6,1,1,0,0,0-.07-.36.76.76,0,0,0-.24-.27,1.81,1.81,0,0,0-.44-.24l-.66-.24a9.44,9.44,0,0,1-.89-.32,2.77,2.77,0,0,1-.78-.46,2.09,2.09,0,0,1-.55-.72,2.62,2.62,0,0,1-.21-1.11,3.16,3.16,0,0,1,.22-1.22,2.8,2.8,0,0,1,.62-.94,2.74,2.74,0,0,1,1-.6,3.58,3.58,0,0,1,1.3-.22,5.35,5.35,0,0,1,1.4.19,6,6,0,0,1,1.41.54Z"/><path class="cls-4" d="M23.39,16.23H20l-.54,1.57H17l3.45-9H23l3.44,9.05H23.93Zm-.62-1.79-1.06-3-1.05,3Z"/><path class="cls-4" d="M27.47,17.8v-9h2.35l4.35,5.53V8.75h2.34V17.8H34.17l-4.35-5.53V17.8Z"/><path class="cls-4" d="M44.84,8.75v7.06h2.82v2H42.48v-9Z"/><path class="cls-4" d="M48.28,13.28a4.64,4.64,0,0,1,3-4.41,5.7,5.7,0,0,1,4,0,4.65,4.65,0,0,1,1.59,1,4.73,4.73,0,0,1,1,1.52,4.94,4.94,0,0,1,0,3.75,4.73,4.73,0,0,1-1,1.52,4.83,4.83,0,0,1-1.59,1,5.85,5.85,0,0,1-4,0,4.89,4.89,0,0,1-1.58-1,4.71,4.71,0,0,1-1.4-3.39Zm2.46,0a2.47,2.47,0,0,0,.2,1,2.36,2.36,0,0,0,.56.79,2.47,2.47,0,0,0,.81.53,2.61,2.61,0,0,0,1,.18,2.67,2.67,0,0,0,1-.18,2.63,2.63,0,0,0,.82-.53,2.51,2.51,0,0,0,.56-.79,2.47,2.47,0,0,0,.2-1,2.51,2.51,0,0,0-.2-1,2.63,2.63,0,0,0-.56-.79,2.43,2.43,0,0,0-.82-.52,2.48,2.48,0,0,0-1-.19,2.43,2.43,0,0,0-1,.19,2.3,2.3,0,0,0-.81.52,2.47,2.47,0,0,0-.56.79A2.51,2.51,0,0,0,50.74,13.28Z"/><path class="cls-4" d="M67.31,17.8H64.38l-2.24-3.48V17.8H59.79v-9h3.66A3.8,3.8,0,0,1,64.77,9a2.64,2.64,0,0,1,.93.61,2.56,2.56,0,0,1,.55.89,3.14,3.14,0,0,1,.19,1.08,2.66,2.66,0,0,1-.5,1.67,2.51,2.51,0,0,1-1.47.87Zm-5.17-5h.44a1.73,1.73,0,0,0,1.07-.29,1,1,0,0,0,.37-.83,1,1,0,0,0-.37-.83,1.73,1.73,0,0,0-1.07-.29h-.44Z"/><path class="cls-4" d="M73.44,10.74H70.65v1.52h2.64v2H70.65v1.56h2.79v2H68.3v-9h5.14Z"/><path class="cls-4" d="M75.14,17.8v-9h2.35l4.34,5.53V8.75h2.34V17.8H81.83l-4.34-5.53V17.8Z"/><path class="cls-4" d="M89.25,15.81H93v2H85.3l4.28-7.06H86v-2h7.49Z"/><path class="cls-4" d="M94.23,13.28a4.64,4.64,0,0,1,3-4.41,5.27,5.27,0,0,1,2-.37,5.34,5.34,0,0,1,2,.37,4.85,4.85,0,0,1,1.59,1,4.73,4.73,0,0,1,1,1.52,4.94,4.94,0,0,1,0,3.75,4.73,4.73,0,0,1-1,1.52,5,5,0,0,1-1.59,1,5.54,5.54,0,0,1-2,.36,5.46,5.46,0,0,1-2-.36,4.89,4.89,0,0,1-1.58-1,4.71,4.71,0,0,1-1.4-3.39Zm2.46,0a2.43,2.43,0,0,0,.75,1.78,2.58,2.58,0,0,0,.81.53,2.76,2.76,0,0,0,2,0,2.47,2.47,0,0,0,.81-.53,2.23,2.23,0,0,0,.56-.79,2.31,2.31,0,0,0,.21-1,2.36,2.36,0,0,0-.21-1,2.32,2.32,0,0,0-.56-.79,2.3,2.3,0,0,0-.81-.52,2.62,2.62,0,0,0-2,0,2.39,2.39,0,0,0-.81.52,2.61,2.61,0,0,0-.55.79A2.51,2.51,0,0,0,96.69,13.28Z"/></g></g></svg>