<?xml version="1.0" encoding="UTF-8"?><svg id="Layer_2" xmlns="http://www.w3.org/2000/svg" viewBox="0 0 85.41 59.11"><defs><style>.cls-1{fill:#006884;}.cls-2{fill:#fff;}.cls-3{fill:none;stroke:#fff;stroke-miterlimit:10;stroke-width:2px;}</style></defs><g id="Layer_1-2"><circle class="cls-2" cx="42.81" cy="48.91" r="3.6"/><circle class="cls-3" cx="42.81" cy="48.91" r="9.2"/><g><path class="cls-1" d="M72.81,0H12.71C5.91-.19,.21,5.21,0,12.11v1.2c-.2,6.8,5.2,12.5,12.1,12.7h25.9l4.5,24.9,4.8-24.9h25.4c7,0,12.7-5.7,12.7-12.7v-.6C85.61,5.91,80.21,.21,73.31,0h-.5Z"/><g><path class="cls-2" d="M18.61,14.21c.5,.5,1.3,1,2.1,1,.5,0,.8-.2,.9-.3,.1-.1,.2-.4,.2-.6s-.1-.4-.3-.6c-.2-.2-.6-.3-1.2-.5l-.6-.2c-.4-.1-1-.3-1.3-.8-.5-.5-.5-1.2-.5-1.7,0-1.1,.4-1.8,.9-2.3s1.3-.9,2.4-.9c.9,0,2,.3,2.9,.8l-1,1.9c-.7-.6-1.3-.6-1.6-.6-.2,0-.6,.1-.8,.3-.1,.1-.2,.3-.2,.5s0,.3,.1,.4,.2,.3,.8,.4l.7,.2c.6,.2,1.2,.4,1.7,.9s.6,1,.6,1.7c0,.9-.2,1.7-.9,2.4-.8,.8-1.8,1-2.8,1-.6,0-1.1-.1-1.8-.3-.2-.1-.7-.3-1.4-.7l1.1-2Z"/><path class="cls-2" d="M31.21,9.71h-2.9v1.6h2.7v2.1h-2.7v1.6h2.9v2.1h-5.3V7.81h5.3v1.9Z"/><path class="cls-2" d="M38.51,15.41h-3.4l-.6,1.6h-2.6l3.6-9.3h2.6l3.5,9.3h-2.6l-.5-1.6Zm-.7-1.8l-1.1-3-1,3h2.1Z"/><path class="cls-2" d="M45.81,9.71v7.3h-2.4v-7.3h-2v-2.1h6.4v2.1h-2Z"/><path class="cls-2" d="M53.11,9.71v7.3h-2.4v-7.3h-2v-2.1h6.4v2.1h-2Z"/><path class="cls-2" d="M58.51,7.61v7.3h2.9v2.1h-5.3V7.71h2.4v-.1Z"/><path class="cls-2" d="M68.01,9.71h-2.9v1.6h2.7v2.1h-2.7v1.6h2.9v2.1h-5.3V7.81h5.3v1.9Z"/></g></g></g></svg>