<svg xmlns="http://www.w3.org/2000/svg" viewBox="0 0 906.3 1179.92"><defs><style>.cls-1{opacity:0.4;}.cls-2{fill:#034651;}</style></defs><g id="Layer_2" data-name="Layer 2"><g id="Layer_13" data-name="Layer 13"><g class="cls-1"><path class="cls-2" d="M748,1116.17c-3.43,0-6.83.14-10.24.09s-6.81-.32-10.22-.44-6.83.06-10.24-.11-6.82-.33-10.22-.56-6.9.52-10.29.23-6.87-.1-10.26-.45-6.8-.86-10.19-1.26-6.78-1-10.15-1.45-6.64-1.86-10-2.38-6.7-1.33-10.06-1.91-6.89-.3-10.24-.93-6.81-.84-10.15-1.53-6.55-2.08-9.88-2.83-6.69-1.42-10-2.22-6.4-2.55-9.7-3.42-6.56-1.89-9.84-2.81-7-.34-10.29-1.31-6.16-3.2-9.42-4.24-6.91-.86-10.14-2-6.52-2.09-9.74-3.23-6.42-2.38-9.62-3.58-6.1-3.19-9.27-4.45-6.47-2.24-9.62-3.55-6.51-2.18-9.64-3.54-5.73-3.95-8.83-5.36-6.67-1.87-9.75-3.34-5.47-4.37-8.53-5.89-6.27-2.71-9.3-4.28-6.71-1.94-9.71-3.57-5.77-3.7-8.74-5.38-6.17-3-9.12-4.73-5.61-4-8.52-5.72-5.91-3.46-8.79-5.29-5.35-4.31-8.2-6.19-5.36-4.26-8.18-6.18-6.33-2.85-9.12-4.83-5.1-4.6-7.85-6.61-5.86-3.58-8.57-5.65-4.83-4.91-7.52-7-6.2-3.19-8.84-5.34-4.43-5.37-7-7.57-6.23-3.23-8.8-5.47-4.08-5.69-6.62-8-5.56-4-8.05-6.37-4.71-5-7.16-7.33-5.58-4.08-8-6.49-4-5.63-6.4-8.08-5.41-4.28-7.74-6.78-4-5.59-6.3-8.13-5.56-4.2-7.81-6.77-3.52-6-5.73-8.59-4.25-5.33-6.41-8-4.46-5.17-6.58-7.85-4.61-5.06-6.68-7.78-3.74-5.74-5.76-8.49-4.94-4.87-6.91-7.66-3-6.23-4.93-9.06-4.19-5.41-6.06-8.27-3.52-5.86-5.35-8.74-3.39-5.93-5.17-8.85-3.38-5.93-5.11-8.87-3.33-6-5-8.93-3-6.14-4.62-9.14-3.33-5.95-4.9-9-3.86-5.69-5.38-8.75-3.28-6-4.75-9.09-1.79-6.69-3.21-9.8-3.33-6-4.69-9.12-3.68-5.85-5-9-1.45-6.78-2.7-10-2.91-6.2-4.11-9.4-1.88-6.57-3-9.79-2-6.52-3.09-9.76-3.76-6-4.8-9.21-.29-7.06-1.27-10.33-3-6.23-3.93-9.52-2-6.55-2.82-9.86-1-6.8-1.76-10.12-2-6.54-2.75-9.88-.73-6.81-1.43-10.16-2.78-6.41-3.42-9.77-.89-6.79-1.47-10.16-.4-6.85-.92-10.23-2.25-6.57-2.71-10-.48-6.83-.88-10.23-.95-6.77-1.3-10.17.82-6.93.53-10.34-.53-6.79-.76-10.2-1.53-6.75-1.7-10.16.49-6.85.37-10.27-1.5-6.79-1.56-10.21.39-6.84.39-10.26.14-6.82.19-10.21-.36-6.83-.24-10.23,1.52-6.75,1.69-10.15.42-6.79.65-10.17.2-6.81.49-10.2.33-6.8.67-10.18,1.3-6.71,1.7-10.08,1-6.73,1.43-10.1.6-6.78,1.12-10.14,1.41-6.66,2-10-.38-7,.25-10.33,2.15-6.52,2.83-9.85,2.07-6.51,2.81-9.83,0-7,.79-10.3,2-6.52,2.88-9.81,2.64-6.34,3.55-9.61,1.24-6.73,2.2-10,1.26-6.74,2.29-10,3.45-6,4.53-9.26,1.88-6.55,3-9.76,1.83-6.57,3-9.76,3-6.12,4.28-9.29,1.86-6.59,3.16-9.73,3.06-6.1,4.41-9.22,3-6.09,4.44-9.19,1.83-6.66,3.28-9.73,3.31-6,4.82-9,3.66-5.78,5.22-8.8,2.94-6.14,4.55-9.13,2.18-6.58,3.85-9.54,3.88-5.64,5.6-8.58,2.9-6.2,4.67-9.11,4.24-5.39,6.06-8.26,4-5.5,5.89-8.35,4.13-5.42,6-8.23,3.94-5.53,5.9-8.32,3.66-5.73,5.66-8.48,3.05-6.22,5.1-8.94,4.08-5.46,6.17-8.14,4.55-5.09,6.69-7.74,3.86-5.65,6-8.26,5.46-4.3,7.69-6.87,4.75-4.87,7-7.4,4.64-5,7-7.45,4.51-5.08,6.87-7.54S319.62,96,322,93.53s4.91-4.72,7.35-7.1,5.74-3.84,8.22-6.17,4.58-5.06,7.1-7.35,5-4.61,7.56-6.85,5.18-4.42,7.77-6.63,4.89-4.77,7.52-6.93,5.3-4.27,8-6.38,6.1-3.24,8.8-5.31,5-4.67,7.73-6.69,5.17-4.48,7.94-6.45,5.62-3.85,8.43-5.78,6.09-3.13,8.93-5,5.22-4.45,8.09-6.29,5.69-3.74,8.59-5.53,6.57-3.33,9.5-5.06c-3.32.9-6.95,2.65-10.24,3.6s-6.55,2-9.83,3.05-6.95.82-10.21,1.89-6.18,3.19-9.42,4.32-6.48,2.28-9.7,3.46-6.58,2-9.78,3.25-6.56,2.11-9.74,3.41-6.13,3.15-9.29,4.5-6.3,2.71-9.43,4.12-6.58,2.14-9.69,3.6-5.74,3.92-8.82,5.43-6.56,2.25-9.61,3.82-6.18,3-9.21,4.64-6.27,2.88-9.27,4.55-5.91,3.53-8.88,5.25-5.52,4.18-8.47,6-5.73,3.78-8.64,5.6-5.84,3.62-8.72,5.49-6.15,3.15-9,5.07-5,4.85-7.81,6.81-6.45,2.79-9.24,4.8-5,4.84-7.71,6.9-6.18,3.25-8.89,5.36-4.59,5.27-7.26,7.43-5.83,3.73-8.46,5.93-4.85,4.9-7.45,7.14-5.82,3.79-8.38,6.08-4.12,5.68-6.64,8-5.84,3.82-8.32,6.2-4.84,4.88-7.28,7.3-4.73,5-7.13,7.45-5.07,4.66-7.42,7.16-4.45,5.25-6.76,7.79-5.2,4.57-7.47,7.15-4.5,5.21-6.73,7.83-3.92,5.69-6.1,8.34-4.7,5-6.83,7.74-4.13,5.5-6.22,8.23-2.93,6.38-5,9.14-5.42,4.56-7.41,7.36-3.89,5.67-5.84,8.5-2.89,6.34-4.78,9.2-3.44,6-5.29,8.84-4.57,5.24-6.36,8.17-3.37,6-5.12,8.94-3.36,6-5.06,9-4.13,5.56-5.77,8.58-1.92,6.76-3.52,9.8-3.31,6-4.85,9.08-4.4,5.49-5.89,8.59-2.74,6.31-4.17,9.43-1.5,6.86-2.88,10-4.31,5.63-5.63,8.8-.94,7-2.21,10.23-3.26,6.09-4.47,9.31-2.65,6.34-3.8,9.58-1.77,6.65-2.87,9.91S30,393.47,29,396.74s-1.73,6.65-2.72,9.94-2.67,6.38-3.6,9.69-.54,7-1.41,10.29-2.62,6.41-3.43,9.75-1.63,6.67-2.38,10-1.17,6.77-1.87,10.14-2.46,6.51-3.1,9.89-1,6.82-1.54,10.21S7.52,483.4,7,486.8s-.23,6.91-.69,10.32-.26,6.88-.67,10.3-.53,6.83-.88,10.25S3,524.4,2.7,527.82s.1,6.89-.14,10.32S2,545,1.78,548.41s-.44,6.85-.55,10.29.05,6.86,0,10.3S0,575.86,0,579.3s1.44,6.83,1.5,10.23-.13,6.84,0,10.24-1.15,6.9-1,10.3.65,6.83.88,10.23,1.06,6.78,1.35,10.18.56,6.82.9,10.21.86,6.78,1.27,10.17,1,6.77,1.42,10.15,1,6.75,1.55,10.12,1.43,6.69,2,10,1.26,6.71,1.89,10.06,1.48,6.66,2.17,10,.87,6.8,1.62,10.13,2,6.54,2.78,9.86.35,7,1.21,10.26,1.71,6.63,2.63,9.91,2.61,6.37,3.58,9.64,1,6.86,2,10.11,2.84,6.27,3.92,9.51S34.88,776.78,36,780s2,6.52,3.22,9.72,1.18,6.87,2.43,10,4.09,5.72,5.4,8.87.9,7,2.26,10.17S52.58,824.85,54,828s3.47,5.93,4.94,9,2.63,6.31,4.15,9.37,3.42,5.92,5,8.95,3.4,5.93,5,8.93,2.48,6.43,4.16,9.41,3.6,5.81,5.32,8.76,3,6.17,4.79,9.08,3.4,5.95,5.23,8.83,4.22,5.42,6.1,8.27,4.79,5,6.71,7.83,2.93,6.28,4.9,9.07,3.8,5.68,5.82,8.43,4.47,5.2,6.54,7.91,4.34,5.27,6.45,8,4,5.56,6.14,8.21,4,5.57,6.19,8.18,4.65,5,6.9,7.59,5.14,4.57,7.42,7.1,4.13,5.48,6.46,8,4.22,5.41,6.6,7.86,4.69,5,7.11,7.4,5.48,4.17,7.94,6.54,4.92,4.73,7.41,7.07,4.92,4.73,7.46,7,5.66,3.9,8.24,6.14,4.24,5.55,6.85,7.75,6.11,3.32,8.76,5.48,4.27,5.6,6.95,7.71,6.24,3.1,9,5.17,4.52,5.36,7.27,7.38,6.08,3.26,8.87,5.23,5.12,4.62,7.94,6.55,5.65,3.87,8.5,5.75,6,3.36,8.86,5.19,5.85,3.53,8.77,5.31,6.45,2.51,9.4,4.24,5.07,4.89,8,6.56,6.29,2.76,9.3,4.39,6.47,2.36,9.5,3.93,5.39,4.47,8.45,6,6.49,2.29,9.57,3.76,6.34,2.55,9.45,4,5.73,3.92,8.87,5.29,6.84,1.35,10,2.66,6.34,2.5,9.52,3.76,5.82,3.87,9,5.07,6.52,2.09,9.74,3.23,6.77,1.32,10,2.41,6.16,3.11,9.42,4.14,6.4,2.48,9.67,3.45,7,.28,10.32,1.2,6.18,3.3,9.49,4.17,6.67,1.48,10,2.29,6.8.88,10.14,1.63,6.57,1.94,9.91,2.63,6.73,1.19,10.09,1.83,6.66,1.53,10,2.1,6.76,1,10.14,1.5,6.85.31,10.24.77,6.66,1.7,10.06,2.1,6.91-.47,10.31-.13,6.73,1.29,10.14,1.57,6.76,1.16,10.17,1.39,6.88-.78,10.29-.61,6.75,2,10.17,2.07,6.85-.54,10.27-.48,6.83-.07,10.25-.07,6.9.8,10.33.74,6.87-.94,10.3-1.06,6.85-.75,10.28-.92,6.9.12,10.33-.11,6.91.06,10.33-.23,6.87-.56,10.29-.91,6.83-1,10.24-1.38,6.93-.15,10.33-.62,6.79-1.26,10.18-1.79,6.75-1.47,10.13-2.06,6.85-.85,10.23-1.49,6.76-1.35,10.12-2,6.41-2.92,9.76-3.68,6.78-1.17,10.12-2,6.92-.7,10.25-1.57,6.26-3.18,9.57-4.11,6.7-1.56,10-2.55,6.69-1.62,10-2.67,6.37-2.62,9.62-3.72,7-.81,10.25-2,6.51-2.28,9.72-3.5,6.43-2.49,9.63-3.76,6-3.48,9.19-4.81,6.26-2.85,9.41-4.23,6.54-2.22,9.66-3.66,5.88-3.66,9-5.15,6.81-1.74,9.89-3.28,5.53-4.3,8.57-5.89,6-3.37,9-5,6.06-3.25,9.05-5,6.89-3.09,9.85-4.84c-3.2.87-7.07,1.81-10.3,2.63s-6.56,1.13-9.79,1.9-6.14,3-9.39,3.7-6.6,1-9.86,1.62-6.74.11-10,.71-6.32,2.42-9.6,3-6.64.61-9.93,1.1-6.62.59-9.92,1-6.65.29-10,.67-6.6.55-9.92.88-6.52,1.47-9.84,1.75-6.68-.35-10-.13-6.58,1-9.91,1.16-6.6,1.26-9.92,1.37-6.67-.75-10-.69S751.31,1116.17,748,1116.17Z"/></g></g></g></svg>