<svg xmlns="http://www.w3.org/2000/svg" viewBox="0 0 85.46 60.27"><defs><style>.cls-1{fill:#fff;}.cls-2{fill:none;stroke:#fff;stroke-miterlimit:10;stroke-width:2px;}.cls-3{fill:#006884;}</style></defs><g id="Layer_2" data-name="Layer 2"><g id="Layer_16" data-name="Layer 16"><circle class="cls-1" cx="42.37" cy="50.09" r="3.59"/><circle class="cls-2" cx="42.37" cy="50.09" r="9.18"/><path class="cls-3" d="M72.76,0H12.7A12.4,12.4,0,0,0,0,12.7v.6A12.4,12.4,0,0,0,12.7,26H38L42.5,50.86,47.35,26H72.76a12.77,12.77,0,0,0,12.7-12.7v-.6A12.4,12.4,0,0,0,72.76,0Z"/><path class="cls-1" d="M17.5,10.78a2.85,2.85,0,0,0-.77-.46,2,2,0,0,0-.74-.15,1.17,1.17,0,0,0-.75.22A.67.67,0,0,0,15,11a.57.57,0,0,0,.15.4,1.28,1.28,0,0,0,.38.27,3.14,3.14,0,0,0,.52.19l.59.18a3.64,3.64,0,0,1,1.68,1,2.52,2.52,0,0,1,.54,1.67A3.15,3.15,0,0,1,18.57,16a2.55,2.55,0,0,1-.68,1,3,3,0,0,1-1.11.62,4.51,4.51,0,0,1-1.48.23,5.47,5.47,0,0,1-3.18-1l1-1.9a4.42,4.42,0,0,0,1,.7,2.57,2.57,0,0,0,1,.22,1.2,1.2,0,0,0,.86-.26.81.81,0,0,0,.28-.6.75.75,0,0,0-.07-.35.78.78,0,0,0-.24-.28,2,2,0,0,0-.44-.23,5.74,5.74,0,0,0-.65-.24L14,13.49a2.72,2.72,0,0,1-.78-.46,2.26,2.26,0,0,1-.56-.73,2.56,2.56,0,0,1-.21-1.11A3.19,3.19,0,0,1,12.72,10,2.58,2.58,0,0,1,13.34,9a2.8,2.8,0,0,1,1-.61,3.87,3.87,0,0,1,1.31-.22A5.94,5.94,0,0,1,17,8.4a5.83,5.83,0,0,1,1.4.55Z"/><path class="cls-1" d="M22.63,12H26V8.47h2.35v9H26V13.78h-3.4v3.73H20.28v-9h2.35Z"/><path class="cls-1" d="M35.82,15.94H32.46l-.54,1.57H29.41l3.45-9h2.57l3.44,9H36.36Zm-.62-1.79-1.06-3-1,3Z"/><path class="cls-1" d="M39.9,17.51v-9h2.35L46.6,14V8.47h2.34v9H46.6L42.25,12v5.53Z"/><path class="cls-1" d="M55.41,12.45h4.66A13,13,0,0,1,60,13.76a4.69,4.69,0,0,1-.24,1.09,4.08,4.08,0,0,1-.68,1.25,4.19,4.19,0,0,1-1,.92,4.72,4.72,0,0,1-1.28.55,5.44,5.44,0,0,1-1.47.2,5.17,5.17,0,0,1-1.92-.35,4.39,4.39,0,0,1-1.5-1,4.46,4.46,0,0,1-1-1.51A5.33,5.33,0,0,1,50.59,13,5.27,5.27,0,0,1,50.94,11a4.17,4.17,0,0,1,1-1.51,4.4,4.4,0,0,1,1.52-1,5.41,5.41,0,0,1,2-.35,4.88,4.88,0,0,1,2.48.62,4.18,4.18,0,0,1,1.69,1.89l-2.23.93a2.25,2.25,0,0,0-.81-1.07,2,2,0,0,0-1.13-.33,2.26,2.26,0,0,0-1,.2,2,2,0,0,0-.74.57,2.41,2.41,0,0,0-.48.88,3.47,3.47,0,0,0-.18,1.15,3.69,3.69,0,0,0,.15,1.07,2.39,2.39,0,0,0,.45.85,2,2,0,0,0,.75.56,2.52,2.52,0,0,0,1,.2,2.93,2.93,0,0,0,.67-.08,1.79,1.79,0,0,0,.58-.25,1.42,1.42,0,0,0,.43-.45,1.88,1.88,0,0,0,.23-.68H55.41Z"/><path class="cls-1" d="M66.77,15.94H63.41l-.54,1.57H60.36l3.45-9h2.56l3.45,9H67.31Zm-.62-1.79-1.06-3-1.06,3Z"/><path class="cls-1" d="M73.2,8.47v9H70.85v-9Z"/></g></g></svg>