<svg xmlns="http://www.w3.org/2000/svg" viewBox="0 0 124.75 49.93"><defs><style>.cls-1{fill:#bce7ee;}.cls-2{fill:#f7ba3b;}.cls-3{fill:#286752;}.cls-4{fill:#824739;}.cls-5{fill:#f7a1a0;}.cls-6{fill:#0091bd;}.cls-7{fill:#dda137;}.cls-8{fill:#ce8484;}.cls-9{fill:#225643;}.cls-10{fill:#703d33;}.cls-11,.cls-12,.cls-14,.cls-19,.cls-27{fill:none;stroke-miterlimit:10;stroke-width:0.35px;}.cls-11{stroke:#007a96;}.cls-12{stroke:#8baaaf;}.cls-13{fill:#8ecedd;}.cls-14{stroke:#5b5b5b;}.cls-15{fill:#d6572c;}.cls-16{fill:#83483a;}.cls-17{fill:#00bdf1;}.cls-18{fill:#262626;}.cls-19{stroke:#8ecedd;}.cls-20,.cls-21{fill:#fff;}.cls-21{font-size:2.8px;font-family:Futura-Bold, Futura;font-weight:700;}.cls-22{letter-spacing:-0.07em;}.cls-23{letter-spacing:0em;}.cls-24{fill:#d5562d;}.cls-25{fill:#005761;}.cls-26{fill:#b74729;}.cls-27{stroke:#063e44;}</style></defs><g id="Layer_2" data-name="Layer 2"><g id="Layer_17" data-name="Layer 17"><rect class="cls-1" x="2.14" y="4.8" width="16.76" height="7.61" transform="translate(21.04 17.21) rotate(-180)"/><rect class="cls-2" x="10.29" y="12.77" width="7.61" height="7.61"/><rect class="cls-3" x="19.23" y="4.82" width="7.61" height="7.61"/><rect class="cls-4" x="27.29" y="4.82" width="7.61" height="7.61"/><rect class="cls-5" x="2.14" y="12.77" width="7.61" height="7.61"/><rect class="cls-6" x="18.3" y="12.77" width="16.76" height="7.61"/><rect class="cls-7" x="13.88" y="13.36" width="0.43" height="6.57" transform="translate(28.19 33.29) rotate(-180)"/><rect class="cls-8" x="5.73" y="13.29" width="0.43" height="6.57" transform="translate(11.89 33.15) rotate(-180)"/><rect class="cls-9" x="22.82" y="5.34" width="0.43" height="6.57" transform="translate(46.06 17.24) rotate(-180)"/><rect class="cls-10" x="30.88" y="5.34" width="0.43" height="6.57" transform="translate(62.18 17.24) rotate(-180)"/><line class="cls-11" x1="34.29" y1="13.85" x2="34.29" y2="19.37"/><line class="cls-11" x1="31.27" y1="13.85" x2="31.27" y2="19.37"/><line class="cls-11" x1="28.24" y1="13.85" x2="28.24" y2="19.37"/><line class="cls-11" x1="25.22" y1="13.85" x2="25.22" y2="19.37"/><line class="cls-11" x1="22.19" y1="13.85" x2="22.19" y2="19.37"/><line class="cls-11" x1="19.17" y1="13.85" x2="19.17" y2="19.37"/><line class="cls-12" x1="18.08" y1="5.85" x2="18.08" y2="11.37"/><line class="cls-12" x1="15.05" y1="5.85" x2="15.05" y2="11.37"/><line class="cls-12" x1="12.03" y1="5.85" x2="12.03" y2="11.37"/><line class="cls-12" x1="9.01" y1="5.85" x2="9.01" y2="11.37"/><line class="cls-12" x1="5.98" y1="5.85" x2="5.98" y2="11.37"/><line class="cls-12" x1="2.96" y1="5.85" x2="2.96" y2="11.37"/><rect class="cls-13" x="99.18" y="5.47" width="18.75" height="9.42"/><rect class="cls-13" x="97.03" y="14.73" width="20.9" height="9.35"/><line class="cls-14" x1="41.48" y1="21.59" x2="39.69" y2="23.38"/><path class="cls-15" d="M38.89,20.61h0A3.43,3.43,0,0,0,42.32,24h59.21v0h19.76c0,11.23-7.58,22.28-18.69,23.45,0,0-90.58,3.32-89.07-1.95s3.19-1.67,7.23-5.18S15.69,25.71,8.17,25.88,0,20.52,0,20.52,38.89,20.61,38.89,20.61Z"/><path class="cls-16" d="M117.53,37.49c-3.29,5.39-8.52,9.35-14.93,10,0,0-90.58,3.32-89.07-1.95s3.19-1.67,7.23-5.18a3.08,3.08,0,0,0,1-2.66Z"/><path class="cls-17" d="M119,46.21c-5.44-.24-6.43-1.69-14-.48s-15.16,1.94-21.75.48-13.18,1.38-19.11,1-8.24-3.64-15.49-2.42-6.75,2.67-13.18,1.94S27.53,44,22.26,44.6s-5.6,1.78-9.39,1.61A65.13,65.13,0,0,0,5,46.46l22.41,3.47,97.38-1.61Z"/><line class="cls-14" x1="1.68" y1="19.26" x2="1.68" y2="20.57"/><line class="cls-14" x1="10.62" y1="19.26" x2="10.62" y2="20.57"/><line class="cls-14" x1="19.56" y1="19.26" x2="19.56" y2="20.57"/><line class="cls-14" x1="28.5" y1="19.26" x2="28.5" y2="20.57"/><line class="cls-14" x1="37.43" y1="19.26" x2="37.43" y2="20.57"/><line class="cls-14" x1="46.58" y1="22.84" x2="46.58" y2="24.17"/><line class="cls-14" x1="58.61" y1="22.84" x2="58.61" y2="24.17"/><line class="cls-14" x1="70.63" y1="22.84" x2="70.63" y2="24.17"/><line class="cls-14" x1="82.66" y1="22.84" x2="82.66" y2="24.17"/><line class="cls-14" x1="94.69" y1="22.84" x2="94.69" y2="24.17"/><line class="cls-14" x1="106.72" y1="22.84" x2="106.72" y2="24.17"/><line class="cls-14" x1="118.75" y1="22.84" x2="118.75" y2="24.17"/><rect class="cls-13" x="95.25" y="5.44" width="19.6" height="2.5"/><rect class="cls-13" x="93.94" y="14.74" width="20.9" height="2.5"/><line class="cls-14" x1="95.14" y1="3.91" x2="117.75" y2="3.91"/><line class="cls-14" x1="95.79" y1="3.91" x2="95.79" y2="5.46"/><line class="cls-14" x1="101.24" y1="3.91" x2="101.24" y2="5.46"/><line class="cls-14" x1="106.69" y1="3.91" x2="106.69" y2="5.46"/><line class="cls-14" x1="112.13" y1="3.91" x2="112.13" y2="5.46"/><line class="cls-14" x1="117.58" y1="3.91" x2="117.58" y2="5.46"/><rect class="cls-18" x="97.01" y="17.23" width="9.85" height="1.47"/><line class="cls-19" x1="101.55" y1="17.2" x2="101.55" y2="18.82"/><rect class="cls-18" x="99.18" y="7.97" width="9.85" height="1.47"/><line class="cls-19" x1="103.72" y1="7.95" x2="103.72" y2="9.56"/><path class="cls-15" d="M114.12,11.85h0a.86.86,0,0,1,.86.86V14.8a0,0,0,0,1,0,0h-1.72a0,0,0,0,1,0,0V12.71A.86.86,0,0,1,114.12,11.85Z"/><circle class="cls-20" cx="114.12" cy="12.69" r="0.32"/><path class="cls-15" d="M114.12,21.17h0A.86.86,0,0,1,115,22v2.09a0,0,0,0,1,0,0h-1.72a0,0,0,0,1,0,0V22a.86.86,0,0,1,.86-.86Z"/><circle class="cls-20" cx="114.12" cy="22.01" r="0.32"/><line class="cls-14" x1="94.6" y1="13.33" x2="94.6" y2="14.81"/><line class="cls-14" x1="100.34" y1="13.33" x2="100.34" y2="14.81"/><line class="cls-14" x1="106.09" y1="13.33" x2="106.09" y2="14.81"/><line class="cls-14" x1="111.83" y1="13.33" x2="111.83" y2="14.81"/><line class="cls-14" x1="117.58" y1="13.33" x2="117.58" y2="14.81"/><line class="cls-14" x1="93.95" y1="13.33" x2="117.75" y2="13.33"/><text class="cls-21" transform="translate(94.53 34.79)">k8S 202 - <tspan class="cls-22" x="15.02" y="0">1</tspan><tspan class="cls-23" x="16.73" y="0">23 </tspan></text><rect class="cls-24" x="48.41" y="16.01" width="7.61" height="7.61"/><rect class="cls-25" x="56.43" y="16.01" width="16.76" height="7.61"/><rect class="cls-1" x="64.58" width="16.76" height="7.61"/><rect class="cls-2" x="65.57" y="7.97" width="7.61" height="7.61" transform="translate(138.75 23.55) rotate(-180)"/><rect class="cls-3" x="56.63" y="0.01" width="7.61" height="7.61" transform="translate(120.88 7.64) rotate(-180)"/><rect class="cls-4" x="48.58" y="0.01" width="7.61" height="7.61" transform="translate(104.76 7.64) rotate(-180)"/><rect class="cls-5" x="73.72" y="7.97" width="7.61" height="7.61" transform="translate(155.05 23.55) rotate(-180)"/><rect class="cls-2" x="73.72" y="15.97" width="7.61" height="7.61" transform="translate(155.05 39.56) rotate(-180)"/><rect class="cls-6" x="48.41" y="7.97" width="16.76" height="7.61" transform="translate(113.58 23.55) rotate(-180)"/><rect class="cls-7" x="69.16" y="8.56" width="0.43" height="6.57"/><rect class="cls-7" x="77.23" y="16.63" width="0.43" height="6.57"/><rect class="cls-8" x="77.31" y="8.49" width="0.43" height="6.57"/><rect class="cls-9" x="60.22" y="0.53" width="0.43" height="6.57"/><rect class="cls-10" x="52.17" y="0.53" width="0.43" height="6.57"/><rect class="cls-26" x="52.01" y="16.53" width="0.43" height="6.57"/><path class="cls-14" d="M121.3,22.78h-18v0H44.08a3.43,3.43,0,0,1-3.43-3.43h0L.22,19.24"/><line class="cls-11" x1="49.18" y1="9.05" x2="49.18" y2="14.57"/><line class="cls-11" x1="52.2" y1="9.05" x2="52.2" y2="14.57"/><line class="cls-11" x1="55.23" y1="9.05" x2="55.23" y2="14.57"/><line class="cls-11" x1="58.25" y1="9.05" x2="58.25" y2="14.57"/><line class="cls-11" x1="61.28" y1="9.05" x2="61.28" y2="14.57"/><line class="cls-11" x1="64.3" y1="9.05" x2="64.3" y2="14.57"/><line class="cls-27" x1="57.24" y1="17.06" x2="57.24" y2="22.57"/><line class="cls-27" x1="60.27" y1="17.06" x2="60.27" y2="22.57"/><line class="cls-27" x1="63.29" y1="17.06" x2="63.29" y2="22.57"/><line class="cls-27" x1="66.32" y1="17.06" x2="66.32" y2="22.57"/><line class="cls-27" x1="69.34" y1="17.06" x2="69.34" y2="22.57"/><line class="cls-27" x1="72.36" y1="17.06" x2="72.36" y2="22.57"/><line class="cls-12" x1="65.39" y1="1.05" x2="65.39" y2="6.56"/><line class="cls-12" x1="68.42" y1="1.05" x2="68.42" y2="6.56"/><line class="cls-12" x1="71.44" y1="1.05" x2="71.44" y2="6.56"/><line class="cls-12" x1="74.47" y1="1.05" x2="74.47" y2="6.56"/><line class="cls-12" x1="77.49" y1="1.05" x2="77.49" y2="6.56"/><line class="cls-12" x1="80.52" y1="1.05" x2="80.52" y2="6.56"/></g></g></svg>