<svg xmlns="http://www.w3.org/2000/svg" viewBox="0 0 124.75 49.93"><defs><style>.cls-1{fill:#bce7ee;}.cls-2{fill:#f7ba3b;}.cls-3{fill:#286752;}.cls-4{fill:#824739;}.cls-5{fill:#f7a1a0;}.cls-6{fill:#0091bd;}.cls-7{fill:#dda137;}.cls-8{fill:#ce8484;}.cls-9{fill:#225643;}.cls-10{fill:#703d33;}.cls-11,.cls-12,.cls-14,.cls-19,.cls-27{fill:none;stroke-miterlimit:10;stroke-width:0.35px;}.cls-11{stroke:#007a96;}.cls-12{stroke:#8baaaf;}.cls-13{fill:#8ecedd;}.cls-14{stroke:#5b5b5b;}.cls-15{fill:#d6572c;}.cls-16{fill:#83483a;}.cls-17{fill:#00bdf1;}.cls-18{fill:#262626;}.cls-19{stroke:#8ecedd;}.cls-20,.cls-21{fill:#fff;}.cls-21{font-size:2.8px;font-family:Futura-Bold, Futura;font-weight:700;}.cls-22{letter-spacing:-0.07em;}.cls-23{letter-spacing:0em;}.cls-24{fill:#d5562d;}.cls-25{fill:#005761;}.cls-26{fill:#b74729;}.cls-27{stroke:#063e44;}</style></defs><g id="Layer_2" data-name="Layer 2"><g id="Layer_17" data-name="Layer 17"><rect class="cls-1" x="105.85" y="4.8" width="16.76" height="7.61"/><rect class="cls-2" x="106.85" y="12.77" width="7.61" height="7.61" transform="translate(221.3 33.15) rotate(-180)"/><rect class="cls-3" x="97.91" y="4.82" width="7.61" height="7.61" transform="translate(203.43 17.24) rotate(-180)"/><rect class="cls-4" x="89.85" y="4.82" width="7.61" height="7.61" transform="translate(187.31 17.24) rotate(-180)"/><rect class="cls-5" x="115" y="12.77" width="7.61" height="7.61" transform="translate(237.6 33.15) rotate(-180)"/><rect class="cls-6" x="89.69" y="12.77" width="16.76" height="7.61" transform="translate(196.13 33.15) rotate(-180)"/><rect class="cls-7" x="110.44" y="13.36" width="0.43" height="6.57"/><rect class="cls-8" x="118.59" y="13.29" width="0.43" height="6.57"/><rect class="cls-9" x="101.5" y="5.34" width="0.43" height="6.57"/><rect class="cls-10" x="93.44" y="5.34" width="0.43" height="6.57"/><line class="cls-11" x1="90.45" y1="13.85" x2="90.45" y2="19.37"/><line class="cls-11" x1="93.48" y1="13.85" x2="93.48" y2="19.37"/><line class="cls-11" x1="96.5" y1="13.85" x2="96.5" y2="19.37"/><line class="cls-11" x1="99.53" y1="13.85" x2="99.53" y2="19.37"/><line class="cls-11" x1="102.55" y1="13.85" x2="102.55" y2="19.37"/><line class="cls-11" x1="105.58" y1="13.85" x2="105.58" y2="19.37"/><line class="cls-12" x1="106.67" y1="5.85" x2="106.67" y2="11.37"/><line class="cls-12" x1="109.69" y1="5.85" x2="109.69" y2="11.37"/><line class="cls-12" x1="112.72" y1="5.85" x2="112.72" y2="11.37"/><line class="cls-12" x1="115.74" y1="5.85" x2="115.74" y2="11.37"/><line class="cls-12" x1="118.76" y1="5.85" x2="118.76" y2="11.37"/><line class="cls-12" x1="121.79" y1="5.85" x2="121.79" y2="11.37"/><rect class="cls-13" x="6.81" y="5.47" width="18.75" height="9.42" transform="translate(32.37 20.36) rotate(-180)"/><rect class="cls-13" x="6.81" y="14.73" width="20.9" height="9.35" transform="translate(34.52 38.8) rotate(-180)"/><line class="cls-14" x1="83.27" y1="21.59" x2="85.05" y2="23.38"/><path class="cls-15" d="M85.86,20.61h0A3.43,3.43,0,0,1,82.42,24H23.22v0H3.45c0,11.23,7.58,22.28,18.7,23.45,0,0,90.57,3.32,89.07-1.95S108,43.89,104,40.38s5.07-14.67,12.58-14.5,8.18-5.36,8.18-5.36C124.6,20.65,85.86,20.61,85.86,20.61Z"/><path class="cls-16" d="M7.22,37.49c3.28,5.39,8.52,9.35,14.93,10,0,0,90.57,3.32,89.07-1.95S108,43.89,104,40.38a3.09,3.09,0,0,1-1-2.66Z"/><path class="cls-17" d="M5.77,46.21c5.43-.24,6.42-1.69,14-.48s15.16,1.94,21.75.48,13.18,1.38,19.12,1,8.23-3.64,15.48-2.42,6.76,2.67,13.19,1.94,7.91-2.75,13.18-2.1,5.6,1.78,9.39,1.61a65.13,65.13,0,0,1,7.91.25L97.38,49.93,0,48.32Z"/><line class="cls-14" x1="123.06" y1="19.26" x2="123.06" y2="20.57"/><line class="cls-14" x1="114.13" y1="19.26" x2="114.13" y2="20.57"/><line class="cls-14" x1="105.19" y1="19.26" x2="105.19" y2="20.57"/><line class="cls-14" x1="96.25" y1="19.26" x2="96.25" y2="20.57"/><line class="cls-14" x1="87.31" y1="19.26" x2="87.31" y2="20.57"/><line class="cls-14" x1="78.17" y1="22.84" x2="78.17" y2="24.17"/><line class="cls-14" x1="66.14" y1="22.84" x2="66.14" y2="24.17"/><line class="cls-14" x1="54.11" y1="22.84" x2="54.11" y2="24.17"/><line class="cls-14" x1="42.08" y1="22.84" x2="42.08" y2="24.17"/><line class="cls-14" x1="30.05" y1="22.84" x2="30.05" y2="24.17"/><line class="cls-14" x1="18.02" y1="22.84" x2="18.02" y2="24.17"/><line class="cls-14" x1="5.99" y1="22.84" x2="5.99" y2="24.17"/><rect class="cls-13" x="9.9" y="5.44" width="19.6" height="2.5" transform="translate(39.4 13.38) rotate(-180)"/><rect class="cls-13" x="9.9" y="14.74" width="20.9" height="2.5" transform="translate(40.7 31.99) rotate(-180)"/><line class="cls-14" x1="29.6" y1="3.91" x2="7" y2="3.91"/><line class="cls-14" x1="28.95" y1="3.91" x2="28.95" y2="5.46"/><line class="cls-14" x1="23.51" y1="3.91" x2="23.51" y2="5.46"/><line class="cls-14" x1="18.06" y1="3.91" x2="18.06" y2="5.46"/><line class="cls-14" x1="12.62" y1="3.91" x2="12.62" y2="5.46"/><line class="cls-14" x1="7.17" y1="3.91" x2="7.17" y2="5.46"/><rect class="cls-18" x="17.88" y="17.23" width="9.85" height="1.47" transform="translate(45.61 35.92) rotate(-180)"/><line class="cls-19" x1="23.19" y1="17.2" x2="23.19" y2="18.82"/><rect class="cls-18" x="15.71" y="7.97" width="9.85" height="1.47" transform="translate(41.28 17.42) rotate(-180)"/><line class="cls-19" x1="21.03" y1="7.95" x2="21.03" y2="9.56"/><path class="cls-15" d="M9.77,11.85h1.72a0,0,0,0,1,0,0v2.09a.86.86,0,0,1-.86.86h0a.86.86,0,0,1-.86-.86V11.85A0,0,0,0,1,9.77,11.85Z" transform="translate(21.25 26.65) rotate(180)"/><circle class="cls-20" cx="10.63" cy="12.69" r="0.32"/><path class="cls-15" d="M9.77,21.17h1.72a0,0,0,0,1,0,0v2.09a.86.86,0,0,1-.86.86h0a.86.86,0,0,1-.86-.86V21.17A0,0,0,0,1,9.77,21.17Z" transform="translate(21.25 45.3) rotate(180)"/><circle class="cls-20" cx="10.63" cy="22.01" r="0.32"/><line class="cls-14" x1="30.15" y1="13.33" x2="30.15" y2="14.81"/><line class="cls-14" x1="24.4" y1="13.33" x2="24.4" y2="14.81"/><line class="cls-14" x1="18.66" y1="13.33" x2="18.66" y2="14.81"/><line class="cls-14" x1="12.91" y1="13.33" x2="12.91" y2="14.81"/><line class="cls-14" x1="7.17" y1="13.33" x2="7.17" y2="14.81"/><line class="cls-14" x1="30.8" y1="13.33" x2="7" y2="13.33"/><text class="cls-21" transform="translate(8.22 34.79)">k8S 202 - <tspan class="cls-22" x="15.02" y="0">1</tspan><tspan class="cls-23" x="16.73" y="0">23 </tspan></text><rect class="cls-24" x="68.72" y="16.01" width="7.61" height="7.61" transform="translate(145.05 39.63) rotate(-180)"/><rect class="cls-25" x="51.57" y="16.01" width="16.76" height="7.61" transform="translate(119.89 39.63) rotate(-180)"/><rect class="cls-1" x="43.41" width="16.76" height="7.61" transform="translate(103.58 7.61) rotate(-180)"/><rect class="cls-2" x="51.57" y="7.97" width="7.61" height="7.61"/><rect class="cls-3" x="60.5" y="0.01" width="7.61" height="7.61"/><rect class="cls-4" x="68.56" y="0.01" width="7.61" height="7.61"/><rect class="cls-5" x="43.41" y="7.97" width="7.61" height="7.61"/><rect class="cls-2" x="43.41" y="15.97" width="7.61" height="7.61"/><rect class="cls-6" x="59.58" y="7.97" width="16.76" height="7.61"/><rect class="cls-7" x="55.16" y="8.56" width="0.43" height="6.57" transform="translate(110.74 23.69) rotate(-180)"/><rect class="cls-7" x="47.09" y="16.63" width="0.43" height="6.57" transform="translate(94.6 39.83) rotate(-180)"/><rect class="cls-8" x="47.01" y="8.49" width="0.43" height="6.57" transform="translate(94.44 23.55) rotate(-180)"/><rect class="cls-9" x="64.09" y="0.53" width="0.43" height="6.57" transform="translate(128.61 7.64) rotate(-180)"/><rect class="cls-10" x="72.15" y="0.53" width="0.43" height="6.57" transform="translate(144.73 7.64) rotate(-180)"/><rect class="cls-26" x="72.31" y="16.53" width="0.43" height="6.57" transform="translate(145.05 39.63) rotate(-180)"/><path class="cls-14" d="M3.45,22.78h18v0H80.67a3.44,3.44,0,0,0,3.43-3.43h0l40.43-.09"/><line class="cls-11" x1="75.57" y1="9.05" x2="75.57" y2="14.57"/><line class="cls-11" x1="72.54" y1="9.05" x2="72.54" y2="14.57"/><line class="cls-11" x1="69.52" y1="9.05" x2="69.52" y2="14.57"/><line class="cls-11" x1="66.49" y1="9.05" x2="66.49" y2="14.57"/><line class="cls-11" x1="63.47" y1="9.05" x2="63.47" y2="14.57"/><line class="cls-11" x1="60.44" y1="9.05" x2="60.44" y2="14.57"/><line class="cls-27" x1="67.5" y1="17.06" x2="67.5" y2="22.57"/><line class="cls-27" x1="64.48" y1="17.06" x2="64.48" y2="22.57"/><line class="cls-27" x1="61.46" y1="17.06" x2="61.46" y2="22.57"/><line class="cls-27" x1="58.43" y1="17.06" x2="58.43" y2="22.57"/><line class="cls-27" x1="55.41" y1="17.06" x2="55.41" y2="22.57"/><line class="cls-27" x1="52.38" y1="17.06" x2="52.38" y2="22.57"/><line class="cls-12" x1="59.35" y1="1.05" x2="59.35" y2="6.56"/><line class="cls-12" x1="56.33" y1="1.05" x2="56.33" y2="6.56"/><line class="cls-12" x1="53.3" y1="1.05" x2="53.3" y2="6.56"/><line class="cls-12" x1="50.28" y1="1.05" x2="50.28" y2="6.56"/><line class="cls-12" x1="47.26" y1="1.05" x2="47.26" y2="6.56"/><line class="cls-12" x1="44.23" y1="1.05" x2="44.23" y2="6.56"/></g></g></svg>