<svg xmlns="http://www.w3.org/2000/svg" viewBox="0 0 129.33 130.26"><defs><style>.cls-1{fill:#e28014;}.cls-2{fill:#cc7015;}</style></defs><g id="Layer_2" data-name="Layer 2"><g id="Layer_10" data-name="Layer 10"><path class="cls-1" d="M127.16,64.35c0-3.41,2.1-6.89,1.59-10.15s-2.68-6.31-3.71-9.47a63.93,63.93,0,0,0-3.36-9.43c-1.53-3-3.73-5.53-5.69-8.23s-2.83-6.48-5.2-8.84-6.4-2.84-9.12-4.82a62.17,62.17,0,0,0-8.5-5,59.66,59.66,0,0,0-9.11-3.74C80.91,3.64,78,2,74.63,1.46s-6.55.6-10,.6S58,1,54.71,1.48,47.89,2,44.73,3a64.42,64.42,0,0,0-9.49,3.6c-3,1.53-6.31,2.89-9,4.85s-4.48,5.25-6.85,7.62-3.3,5.84-5.28,8.55a61.87,61.87,0,0,0-4.74,8.56,60.15,60.15,0,0,0-3.71,9c-1,3.16-3.47,5.85-4,9.2S0,60.94,0,64.35,1.58,71,2.09,74.26s.22,6.86,1.24,10a65.08,65.08,0,0,0,3.59,9.49c1.53,3,4.8,4.91,6.77,7.62s3.2,6,5.57,8.37,4.23,5.56,6.94,7.53,6.67,2.06,9.67,3.59,6.34,1.67,9.55,2.71a59,59,0,0,0,9.54,2c3.26.52,6.3,4.64,9.71,4.64s6.75-2.19,10-2.7,6.28-2.33,9.44-3.36a62.17,62.17,0,0,0,9.21-3.6,63.2,63.2,0,0,0,8.43-5.2c2.71-2,6.16-3.06,8.53-5.43s3.88-5.51,5.85-8.22,4.75-5,6.28-8,1-6.79,2-10,2.51-6.11,3-9.46S127.16,67.76,127.16,64.35Z"/><path class="cls-2" d="M64.66.62c-3.34,0-6.76-1-10-.48s-6.88.47-10,1.45a67.15,67.15,0,0,0-9.29,4c-3,1.47-4.73,5.06-7.4,7a63.5,63.5,0,0,0-7.69,6,60.59,60.59,0,0,0-6.57,6.93c2.75-2.08,4.57-5.47,7.64-7.09a67,67,0,0,1,9.87-4c3.24-1.09,7.13-.44,10.58-1S48.69,12,52.21,12a65.39,65.39,0,0,1,10.15.72c3.35.52,6,3.5,9.21,4.53a59.8,59.8,0,0,1,9.1,3.7A60.84,60.84,0,0,1,89.09,26c2.72,2,6.44,2.71,8.81,5.08s5.22,4.55,7.19,7.27a66.12,66.12,0,0,1,5.45,8.7c1.52,3,1.49,6.73,2.53,9.94s3.23,6.2,3.76,9.55a67.67,67.67,0,0,1,.62,10.23c0,3.51-2.62,6.78-3.16,10.14s1.33,7.53.24,10.77-3.76,6.11-5.36,9.15-5,6.65-7.11,9.4c2.62-2,7-4.31,9.31-6.67s2.84-6.17,4.75-8.85,2.63-5.8,4.1-8.75S126,87.31,127,84.16s1.14-6.62,1.65-9.9S127,67.66,127,64.33s2.82-7,2.31-10.24-2.33-6.51-3.35-9.67-3.48-5.79-5-8.76a62.29,62.29,0,0,0-5.39-8.29c-2-2.72-2-7.24-4.32-9.61s-7.38-1.65-10.1-3.63-3.63-6.82-6.63-8.35A66.63,66.63,0,0,0,85,1.65c-3.15-1-7-.25-10.31-.77S68.07.62,64.66.62Z"/></g></g></svg>