<?xml version="1.0" encoding="UTF-8"?><svg id="Layer_2" xmlns="http://www.w3.org/2000/svg" viewBox="0 0 85.41 59.1"><defs><style>.cls-1{fill:#006884;}.cls-2{fill:#fff;}.cls-3{fill:#3f0;}.cls-4{fill:none;stroke:#3f0;stroke-miterlimit:10;stroke-width:2px;}</style></defs><g id="Layer_1-2"><circle class="cls-3" cx="42.71" cy="48.9" r="3.6"/><circle class="cls-4" cx="42.71" cy="48.9" r="9.2"/><g><path class="cls-1" d="M72.71,0H12.71C5.81-.1,.21,5.3,0,12.1v1.2c-.2,6.8,5.2,12.5,12.1,12.7h25.9l4.5,24.9,4.8-24.9h25.4c7,0,12.7-5.7,12.7-12.7v-.6C85.61,5.9,80.21,.2,73.31,0h-.6Z"/><g><path class="cls-2" d="M17.23,13.44c.52,.49,1.3,.95,2.14,.95,.49,0,.78-.15,.94-.32,.14-.14,.24-.35,.24-.59,0-.18-.07-.39-.27-.56-.24-.21-.6-.31-1.2-.49l-.63-.2c-.39-.13-.97-.34-1.34-.76-.48-.52-.53-1.18-.53-1.65,0-1.15,.45-1.85,.85-2.26,.48-.48,1.26-.88,2.4-.88,.92,0,2,.29,2.89,.76l-.97,1.89c-.73-.58-1.27-.63-1.6-.63-.24,0-.56,.06-.8,.28-.14,.14-.24,.29-.24,.5,0,.17,.03,.29,.13,.42,.07,.08,.24,.25,.81,.42l.74,.22c.59,.18,1.2,.39,1.69,.92,.48,.5,.6,1.02,.6,1.67,0,.85-.21,1.68-.88,2.35-.8,.8-1.76,.95-2.76,.95-.59,0-1.15-.06-1.83-.31-.15-.06-.74-.28-1.41-.74l1.04-1.96Z"/><path class="cls-2" d="M26.49,11.76l-3.38-4.86h2.9l1.77,2.55,1.69-2.55h2.94l-3.49,4.86v4.48h-2.44v-4.48Z"/><path class="cls-2" d="M33.22,16.25V6.9h3.18c.94,0,2.51,.13,3.71,1.29,1.09,1.05,1.3,2.4,1.3,3.4,0,1.23-.31,2.33-1.22,3.24-.74,.74-1.99,1.42-3.59,1.42h-3.39Zm2.42-2.06h.49c.59,0,1.42-.06,2.04-.67,.31-.29,.71-.88,.71-1.92,0-.87-.27-1.61-.73-2.04-.57-.53-1.33-.59-1.93-.59h-.59v5.22Z"/><path class="cls-2" d="M42.95,16.25V6.9h2.42l4.47,5.71V6.9h2.42v9.34h-2.42l-4.47-5.71v5.71h-2.42Z"/><path class="cls-2" d="M59.53,8.96h-2.89v1.55h2.73v2.06h-2.73v1.61h2.89v2.06h-5.31V6.9h5.31v2.06Z"/><path class="cls-2" d="M63.29,11.76l-3.38-4.86h2.9l1.77,2.55,1.69-2.55h2.94l-3.49,4.86v4.48h-2.44v-4.48Z"/></g></g></g></svg>