<svg xmlns="http://www.w3.org/2000/svg" viewBox="0 0 85.46 60.27"><defs><style>.cls-1{fill:#fff;}.cls-2{fill:none;stroke:#fff;stroke-miterlimit:10;stroke-width:2px;}.cls-3{fill:#006884;}</style></defs><g id="Layer_2" data-name="Layer 2"><g id="Layer_16" data-name="Layer 16"><circle class="cls-1" cx="42.37" cy="50.09" r="3.59"/><circle class="cls-2" cx="42.37" cy="50.09" r="9.18"/><path class="cls-3" d="M72.76,0H12.7A12.4,12.4,0,0,0,0,12.7v.6A12.4,12.4,0,0,0,12.7,26H38L42.5,50.86,47.35,26H72.76a12.77,12.77,0,0,0,12.7-12.7v-.6A12.4,12.4,0,0,0,72.76,0Z"/><path class="cls-1" d="M27.84,10.45v7.06H25.49V10.45H23.56v-2h6.21v2Z"/><path class="cls-1" d="M35.94,15.94H32.58L32,17.51h-2.5l3.44-9h2.57L39,17.51H36.48Zm-.62-1.79-1.06-3-1,3Z"/><path class="cls-1" d="M42.38,8.46v9.05H40v-9Z"/><path class="cls-1" d="M46.62,17.51H44.27v-9H48a3.2,3.2,0,0,1,2.34.79,3,3,0,0,1,.81,2.23,3,3,0,0,1-.81,2.24,3.25,3.25,0,0,1-2.34.79H46.62Zm0-4.9h.78c.87,0,1.3-.37,1.3-1.13s-.43-1.12-1.3-1.12h-.78Z"/><path class="cls-1" d="M57.55,10.45H54.76V12H57.4v2H54.76v1.56h2.79v2H52.41v-9h5.14Z"/><path class="cls-1" d="M61.6,8.46v9.05H59.25v-9Z"/></g></g></svg>