<svg xmlns="http://www.w3.org/2000/svg" viewBox="0 0 85.46 60.27"><defs><style>.cls-1{fill:#fff;}.cls-2{fill:none;stroke:#fff;stroke-miterlimit:10;stroke-width:2px;}.cls-3{fill:#006884;}</style></defs><g id="Layer_2" data-name="Layer 2"><g id="Layer_16" data-name="Layer 16"><circle class="cls-1" cx="42.37" cy="50.09" r="3.59"/><circle class="cls-2" cx="42.37" cy="50.09" r="9.18"/><path class="cls-3" d="M72.76,0H12.7A12.4,12.4,0,0,0,0,12.7v.6A12.4,12.4,0,0,0,12.7,26H38L42.5,50.86,47.35,26H72.76a12.77,12.77,0,0,0,12.7-12.7v-.6A12.4,12.4,0,0,0,72.76,0Z"/><path class="cls-1" d="M14.8,18.44H11.6v-9H9.83V6.58h6.81V9.42H14.8Z"/><path class="cls-1" d="M27,18.44H23.67l-.24-1.51H21.27L21,18.44H17.7L20.55,6.58h3.92Zm-3.93-4.05L22.85,13a.73.73,0,0,1,0-.21c0-.11-.07-.56-.16-1.34,0-.08,0-.2,0-.35s0-.34-.06-.57l-.1-1.13c0,.11,0,.23-.05.37s0,.27-.05.43c0,.32-.06.54-.08.66s0,.2,0,.23L22,12.53l-.33,1.86Z"/><path class="cls-1" d="M29.17,18.44V6.58h3l1.61,4.16c.08.25.18.53.29.85l.37,1.1.33,1q-.18-1.55-.27-2.64c-.06-.73-.09-1.35-.09-1.84V6.58h3V18.44h-3l-1.62-4.36c-.16-.47-.32-.91-.45-1.31S32.13,12,32,11.6c.07.84.12,1.56.15,2.18s0,1.17,0,1.63v3Z"/><path class="cls-1" d="M44.69,11.58h4.47v.49a9.06,9.06,0,0,1-1,4.93,3.7,3.7,0,0,1-3.29,1.64A4,4,0,0,1,41.48,17a7.3,7.3,0,0,1-1.21-4.47A7.55,7.55,0,0,1,41.49,8a3.93,3.93,0,0,1,3.34-1.65A4.25,4.25,0,0,1,48.91,9.3l-3.1,1.14a1.91,1.91,0,0,0-.32-.89.77.77,0,0,0-.63-.33q-1.32,0-1.32,3.63a6.45,6.45,0,0,0,.29,2.25,1,1,0,0,0,.93.7.91.91,0,0,0,.46-.13,1,1,0,0,0,.35-.34,1.65,1.65,0,0,0,.22-.54,2.65,2.65,0,0,0,.09-.71H44.69Z"/><path class="cls-1" d="M55,18.44h-3.2V6.58H55Z"/><path class="cls-1" d="M57.91,18.44V6.58h6V9.37H61.11V11.1h2.46v2.68H61.11v1.81h2.75v2.85Z"/><path class="cls-1" d="M74.91,18.44H71.45l-1.58-4.23c0-.07,0-.16-.08-.28s-.09-.26-.14-.42l0,.78v4.15H66.48V6.58h3.28A5.16,5.16,0,0,1,73,7.43a3.75,3.75,0,0,1,1.37,3.11,3,3,0,0,1-1.84,3Zm-5.23-6.37h.22a1.18,1.18,0,0,0,.92-.42,1.56,1.56,0,0,0,.37-1.08c0-.88-.46-1.32-1.39-1.32h-.12Z"/></g></g></svg>