<svg xmlns="http://www.w3.org/2000/svg" viewBox="0 0 85.46 60.27"><defs><style>.cls-1{fill:#fff;}.cls-2{fill:none;stroke:#fff;stroke-miterlimit:10;stroke-width:2px;}.cls-3{fill:#006884;}</style></defs><g id="Layer_2" data-name="Layer 2"><g id="Layer_16" data-name="Layer 16"><circle class="cls-1" cx="42.37" cy="50.09" r="3.59"/><circle class="cls-2" cx="42.37" cy="50.09" r="9.18"/><path class="cls-3" d="M72.76,0H12.7A12.4,12.4,0,0,0,0,12.7v.6A12.4,12.4,0,0,0,12.7,26H38L42.5,50.86,47.35,26H72.76a12.77,12.77,0,0,0,12.7-12.7v-.6A12.4,12.4,0,0,0,72.76,0Z"/><path class="cls-1" d="M23.88,9.85v7H21.53v-7H19.6v-2h6.21v2Z"/><path class="cls-1" d="M26.37,12.38a4.64,4.64,0,0,1,3-4.41,5.7,5.7,0,0,1,4,0A4.85,4.85,0,0,1,35,9a4.73,4.73,0,0,1,1,1.52,5,5,0,0,1,0,3.76,4.68,4.68,0,0,1-1,1.51,4.87,4.87,0,0,1-1.59,1,5.85,5.85,0,0,1-4,0,4.73,4.73,0,0,1-1.58-1,4.66,4.66,0,0,1-1-1.51A4.71,4.71,0,0,1,26.37,12.38Zm2.46,0a2.47,2.47,0,0,0,.2,1,2.65,2.65,0,0,0,.55.8,2.88,2.88,0,0,0,.81.52,2.7,2.7,0,0,0,1,.18,2.67,2.67,0,0,0,1-.18,2.79,2.79,0,0,0,.82-.52,2.48,2.48,0,0,0,.55-.8,2.31,2.31,0,0,0,.21-1,2.39,2.39,0,0,0-.21-1,2.44,2.44,0,0,0-.55-.79,2.6,2.6,0,0,0-.82-.52,2.48,2.48,0,0,0-1-.19,2.52,2.52,0,0,0-1,.19,2.67,2.67,0,0,0-.81.52,2.61,2.61,0,0,0-.55.79A2.55,2.55,0,0,0,28.83,12.38Z"/><path class="cls-1" d="M40.23,11.59,43.1,7.85H46l-3.59,4.29,3.93,4.76H43.29L40.23,13V16.9H37.88v-9h2.35Z"/><path class="cls-1" d="M49.56,12.56l-3.3-4.71h2.81l1.68,2.48,1.67-2.48h2.81l-3.31,4.71V16.9H49.56Z"/><path class="cls-1" d="M55,12.38A4.64,4.64,0,0,1,58,8a5.7,5.7,0,0,1,4,0,4.65,4.65,0,0,1,1.59,1,4.73,4.73,0,0,1,1,1.52,5,5,0,0,1,0,3.76A4.72,4.72,0,0,1,62,16.79a5.85,5.85,0,0,1-4,0,4.73,4.73,0,0,1-1.58-1,4.66,4.66,0,0,1-1-1.51A4.71,4.71,0,0,1,55,12.38Zm2.46,0a2.47,2.47,0,0,0,.2,1,2.51,2.51,0,0,0,.56.8,2.53,2.53,0,0,0,1.78.7,2.67,2.67,0,0,0,1-.18,2.79,2.79,0,0,0,.82-.52,2.68,2.68,0,0,0,.56-.8,2.47,2.47,0,0,0,.2-1,2.55,2.55,0,0,0-.2-1,2.63,2.63,0,0,0-.56-.79,2.6,2.6,0,0,0-.82-.52,2.48,2.48,0,0,0-1-.19,2.6,2.6,0,0,0-1.78.71,2.47,2.47,0,0,0-.56.79A2.55,2.55,0,0,0,57.46,12.38Z"/></g></g></svg>